<svg width="64" height="64" viewBox="0 0 64 64" fill="none" xmlns="http://www.w3.org/2000/svg">
<rect width="64" height="64" rx="10" fill="black"/>
<path d="M35.808 27.8231C35.8225 27.7072 35.7935 28.0693 35.7935 28.1273C35.7935 28.2722 35.7935 28.417 35.7935 28.5619C35.7935 28.8516 35.7646 29.1269 35.7356 29.4166C36.2137 28.8371 36.7207 28.2866 37.2857 27.7651C40.0381 25.201 43.1962 23.9262 46.7454 23.9262C52.1634 23.9696 56.2052 25.9398 58.8562 29.8367L60.0441 28.953C56.9874 24.665 52.5545 22.5065 46.7454 22.4485C42.4574 22.4485 38.8068 24.0276 35.7935 27.1567C35.837 27.3595 35.8515 27.5913 35.808 27.8231Z" fill="white"/>
<path fill-rule="evenodd" clip-rule="evenodd" d="M35.3766 27.853C35.3747 27.8256 35.3754 27.7977 35.3789 27.7694C35.38 27.7608 35.3814 27.75 35.3831 27.7394C35.3839 27.7346 35.3854 27.7249 35.3879 27.7134C35.3882 27.712 35.3885 27.7102 35.389 27.7082C35.4125 27.5541 35.4023 27.3945 35.3707 27.2473C35.3406 27.1067 35.3823 26.9603 35.4821 26.8567C38.5749 23.645 42.3371 22.0161 46.7454 22.0161H46.7497C52.6797 22.0753 57.2497 24.2879 60.3962 28.702C60.5329 28.8937 60.4911 29.1595 60.3022 29.3L59.1143 30.1837C59.0198 30.254 58.9006 30.2827 58.7844 30.2631C58.6682 30.2436 58.565 30.1774 58.4987 30.0799C55.9407 26.3199 52.0437 24.4015 46.7437 24.3586C43.3107 24.359 40.257 25.5881 37.5804 28.0815L37.579 28.0829C37.0309 28.5888 36.5372 29.1245 36.0692 29.6918C35.948 29.8387 35.7451 29.889 35.5693 29.8158C35.3936 29.7426 35.2864 29.563 35.3053 29.3736C35.3064 29.3628 35.3075 29.3521 35.3085 29.3415C35.3367 29.0601 35.3611 28.8163 35.3611 28.5619V28.1273C35.3611 28.0864 35.3678 27.9855 35.3726 27.9144C35.3733 27.9026 35.3741 27.8916 35.3747 27.8818C35.3754 27.8714 35.376 27.8617 35.3766 27.853ZM35.7936 28.5619C35.7936 28.6025 35.793 28.6428 35.7919 28.6829C35.7858 28.916 35.7631 29.1422 35.7396 29.3771C35.7382 29.3903 35.7369 29.4034 35.7356 29.4166C35.8928 29.226 36.0532 29.0386 36.2177 28.8543C36.5534 28.4782 36.9065 28.1151 37.2857 27.7651C40.0381 25.201 43.1962 23.9262 46.7454 23.9262C51.9968 23.9683 55.9553 25.8205 58.6077 29.4826C58.6918 29.5988 58.7747 29.7169 58.8562 29.8367L60.0441 28.953C56.9874 24.665 52.5545 22.5065 46.7454 22.4485C42.4574 22.4485 38.8068 24.0276 35.7936 27.1567C35.808 27.2243 35.8193 27.2952 35.8263 27.3682C35.8396 27.5072 35.8373 27.654 35.812 27.8012C35.8116 27.7979 35.8104 27.8041 35.808 27.8231C35.8094 27.8158 35.8107 27.8085 35.812 27.8012C35.8123 27.8036 35.812 27.8116 35.8115 27.8235C35.8115 27.8236 35.8115 27.8234 35.8115 27.8235C35.8102 27.8505 35.807 27.8978 35.8038 27.9473C35.7988 28.0222 35.7936 28.1025 35.7936 28.1273V28.5619Z" fill="white"/>
<path d="M58.8562 50.06C55.7995 54.2467 51.7578 56.3617 46.7454 56.4196C42.269 56.4196 38.575 54.5798 35.6632 50.8858C35.4748 50.625 35.2865 50.3787 35.1127 50.118C34.9243 50.6105 34.5622 51.0306 34.1131 51.2769C34.7215 52.1026 35.4169 52.8849 36.1847 53.6237C39.2414 56.4776 42.7616 57.9118 46.7454 57.9118C52.4531 57.8683 56.886 55.5505 60.0441 50.9727L58.8562 50.06Z" fill="white"/>
<path fill-rule="evenodd" clip-rule="evenodd" d="M58.7948 49.632C58.9101 49.6154 59.0273 49.6461 59.1197 49.7171L60.3076 50.6298C60.4901 50.77 60.5308 51.0287 60.4001 51.2182C57.1597 55.9153 52.5934 58.2997 46.7487 58.3442L46.7454 58.3442C42.6457 58.3442 39.0215 56.864 35.8896 53.9398L35.8848 53.9354C35.1012 53.1813 34.3893 52.3808 33.765 51.5334C33.691 51.433 33.664 51.3056 33.6908 51.1838C33.7177 51.062 33.7958 50.9577 33.9052 50.8977C34.2614 50.7024 34.5558 50.3635 34.7088 49.9635C34.7665 49.8124 34.9038 49.7062 35.0646 49.6882C35.2254 49.6702 35.3827 49.7435 35.4725 49.8781C35.5889 50.0528 35.7091 50.2164 35.8377 50.3915C35.8929 50.4666 35.9496 50.5439 36.0083 50.6251C38.8412 54.2155 42.4101 55.9865 46.7429 55.9872C51.6131 55.9302 55.5284 53.8847 58.507 49.805C58.5757 49.7109 58.6794 49.6485 58.7948 49.632ZM35.6632 50.8858C35.6071 50.8082 35.5511 50.7319 35.4955 50.6561C35.4643 50.6137 35.4333 50.5715 35.4025 50.5293C35.3032 50.3934 35.2059 50.2578 35.1127 50.118C35.0539 50.2717 34.9782 50.4183 34.8882 50.5549C34.7708 50.733 34.629 50.8939 34.4688 51.0307C34.3584 51.1249 34.2392 51.2078 34.1131 51.2769C34.1992 51.3937 34.287 51.5097 34.3765 51.6247C34.9197 52.3231 35.5255 52.9894 36.1847 53.6237C39.2414 56.4776 42.7616 57.9118 46.7454 57.9118C52.4531 57.8683 56.886 55.5505 60.0441 50.9727L58.8562 50.06C58.8562 50.06 58.8562 50.06 58.8562 50.06C58.7707 50.1771 58.6844 50.2926 58.5974 50.4065C55.5727 54.3634 51.6176 56.3633 46.7454 56.4196C42.2691 56.4196 38.575 54.5798 35.6632 50.8858Z" fill="white"/>
<path d="M46.7744 52.6966C43.3555 52.6966 40.5307 51.2769 38.3142 48.4231C36.5034 46.0328 35.6052 43.2803 35.6052 40.1657C35.6052 36.2543 36.9235 33.0673 39.5601 30.5901C41.6606 28.6199 44.0799 27.6203 46.7889 27.6203C50.932 27.6638 54.0177 29.1849 56.0458 32.1836L56.944 31.5027C54.6116 28.1998 51.2218 26.5338 46.7889 26.4904C43.1382 26.4904 40.0961 27.997 37.6478 30.9957C35.5328 33.6178 34.4897 36.6744 34.4897 40.1657C34.4897 44.3378 35.8949 47.8001 38.7198 50.5381C41.0522 52.7401 43.7467 53.841 46.7889 53.841C51.1493 53.7976 54.5392 52.0157 56.944 48.481L56.0458 47.8001C53.6845 51.0307 50.5988 52.6676 46.7744 52.6966Z" fill="white"/>
<path fill-rule="evenodd" clip-rule="evenodd" d="M55.7966 31.8298C53.7684 29.0652 50.7658 27.662 46.7889 27.6203C44.0799 27.6203 41.6606 28.6199 39.5601 30.5901C36.9235 33.0673 35.6052 36.2543 35.6052 40.1657C35.6052 43.2803 36.5034 46.0328 38.3142 48.4231C40.5307 51.2769 43.3555 52.6966 46.7744 52.6966C50.46 52.6687 53.4595 51.1474 55.7858 48.1457C55.8734 48.0326 55.9601 47.9174 56.0458 47.8001L56.944 48.481C54.5392 52.0157 51.1493 53.7976 46.7889 53.841C43.7467 53.841 41.0522 52.7401 38.7198 50.5381C35.8949 47.8001 34.4897 44.3378 34.4897 40.1657C34.4897 36.6744 35.5328 33.6178 37.6478 30.9957C40.0961 27.997 43.1382 26.4904 46.7889 26.4904C51.2218 26.5338 54.6116 28.1998 56.944 31.5027L56.0458 32.1836C55.9644 32.0633 55.8814 31.9454 55.7966 31.8298ZM38.6574 48.1599C40.796 50.9125 43.4966 52.2637 46.7726 52.2642C50.4514 52.2359 53.4115 50.6713 55.6967 47.545C55.7651 47.4513 55.8683 47.3891 55.9831 47.3723C56.0979 47.3555 56.2146 47.3855 56.307 47.4555L57.2052 48.1364C57.3887 48.2755 57.431 48.5339 57.3015 48.7242C54.8147 52.3795 51.291 54.2286 46.7932 54.2735L46.7889 54.2735C43.6301 54.2735 40.831 53.126 38.423 50.8525L38.4188 50.8486C35.5039 48.0234 34.0573 44.4462 34.0573 40.1657C34.0573 36.5809 35.131 33.4271 37.3112 30.7242L37.3128 30.7222C39.8369 27.6306 42.9988 26.0579 46.7889 26.0579H46.7931C51.3485 26.1026 54.8757 27.824 57.2972 31.2533C57.4317 31.4437 57.391 31.7065 57.2052 31.8473L56.307 32.5282C56.2124 32.5999 56.0925 32.6296 55.9753 32.6102C55.8582 32.5909 55.7541 32.5242 55.6876 32.4258C53.7518 29.5636 50.8104 28.0955 46.7866 28.0527C44.1967 28.0533 41.882 29.0052 39.8559 30.9055C37.3139 33.294 36.0376 36.3633 36.0376 40.1657C36.0376 43.1898 36.9072 45.8489 38.6574 48.1599Z" fill="white"/>
<path d="M34.4898 7.65776V32.7051C32.6644 28.4171 29.7092 25.3894 25.624 23.622C23.6972 22.8397 21.7271 22.4341 19.7134 22.4341C14.9908 22.4341 10.9925 24.3318 7.74749 28.1273C4.89363 31.5751 3.45946 35.5879 3.45946 40.1657C3.45946 45.5402 5.29926 49.9876 8.99334 53.5368C12.0935 56.4486 15.6717 57.8973 19.6989 57.8973C24.523 57.8973 28.5358 55.9561 31.7373 52.0592C32.8673 50.683 33.7799 49.2053 34.4753 47.6263V57.1585V57.8973H35.9529V57.1585V40.1657V7.65776V6.91895H34.4753V7.65776H34.4898ZM29.2456 52.5807C26.4932 55.1448 23.3061 56.4197 19.7134 56.4197C15.2805 56.4197 11.5864 54.5943 8.63117 50.9582C6.16845 47.8581 4.93709 44.2654 4.93709 40.1657C4.93709 35.1388 6.68997 31.0102 10.1812 27.7507C12.9916 25.1865 16.1642 23.9117 19.7134 23.9117C24.2477 23.9117 27.9563 25.7515 30.8681 29.4456C33.2874 32.5457 34.4898 36.1239 34.4898 40.1512C34.4898 45.1925 32.7369 49.3212 29.2456 52.5807Z" fill="white"/>
<path fill-rule="evenodd" clip-rule="evenodd" d="M25.624 23.622C29.401 25.256 32.2121 27.9674 34.0573 31.7561C34.2079 32.0652 34.352 32.3816 34.4897 32.7051V7.65776H34.4753V6.91894H35.9529V57.8973H34.4753V47.6263C34.3394 47.9348 34.1953 48.2394 34.0428 48.5401C33.415 49.7788 32.6465 50.9518 31.7373 52.0592C28.5358 55.9561 24.523 57.8973 19.6989 57.8973C15.6717 57.8973 12.0935 56.4486 8.99334 53.5368C5.29925 49.9876 3.45946 45.5402 3.45946 40.1657C3.45946 35.5879 4.89363 31.5751 7.74749 28.1273C10.9925 24.3318 14.9908 22.4341 19.7134 22.4341C21.7271 22.4341 23.6972 22.8397 25.624 23.622ZM34.0428 49.4578V57.8973C34.0428 58.1361 34.2364 58.3297 34.4753 58.3297H35.9529C36.1917 58.3297 36.3853 58.1361 36.3853 57.8973V6.91894C36.3853 6.68012 36.1917 6.48651 35.9529 6.48651H34.4753C34.2364 6.48651 34.0428 6.68012 34.0428 6.91894V7.65776C34.0428 7.69628 34.0479 7.73361 34.0573 7.76916V30.8099C32.1707 27.3248 29.4151 24.791 25.7957 23.2251L25.7866 23.2213C23.8119 22.4196 21.7867 22.0017 19.7134 22.0017C14.8568 22.0017 10.7409 23.9607 7.41881 27.8463L7.41437 27.8516C4.49505 31.3785 3.02702 35.4893 3.02702 40.1657C3.02702 45.6513 4.91018 50.2135 8.69374 53.8486L8.69728 53.852C11.8734 56.8352 15.556 58.3297 19.6989 58.3297C24.6585 58.3297 28.7917 56.3257 32.0714 52.3337C32.8219 51.4197 33.4792 50.4609 34.0428 49.4578ZM19.7134 55.9872C23.1922 55.9872 26.275 54.757 28.9507 52.2644C32.3497 49.091 34.0573 45.079 34.0573 40.1512C34.0573 36.2172 32.8852 32.7336 30.5277 29.7124C27.6945 26.1184 24.1092 24.3442 19.7134 24.3442C16.2806 24.3442 13.2108 25.5727 10.4745 28.0685C7.07648 31.2418 5.36952 35.2534 5.36952 40.1657C5.36952 44.1705 6.56951 47.6669 8.96834 50.6874C11.8469 54.2282 15.4203 55.9872 19.7134 55.9872ZM8.63117 50.9582C6.16845 47.8581 4.93709 44.2654 4.93709 40.1657C4.93709 35.1388 6.68997 31.0102 10.1812 27.7507C12.9916 25.1865 16.1642 23.9117 19.7134 23.9117C24.2477 23.9117 27.9563 25.7515 30.8681 29.4456C33.2874 32.5457 34.4897 36.1239 34.4897 40.1512C34.4897 45.1925 32.7369 49.3212 29.2456 52.5807C26.4931 55.1448 23.3061 56.4196 19.7134 56.4196C15.2805 56.4196 11.5864 54.5943 8.63117 50.9582Z" fill="white"/>
<path d="M32.5775 28.1128V6.91895H31.0999V26.0123C31.6938 26.6352 32.1864 27.345 32.5775 28.1128Z" fill="white"/>
<path fill-rule="evenodd" clip-rule="evenodd" d="M32.6784 28.5333C32.484 28.58 32.283 28.4873 32.1922 28.3091C31.8188 27.5761 31.35 26.9012 30.7869 26.3107C30.7102 26.2303 30.6674 26.1234 30.6674 26.0123V6.91894C30.6674 6.68012 30.8611 6.48651 31.0999 6.48651H32.5775C32.8163 6.48651 33.0099 6.68012 33.0099 6.91894V28.1128C33.0099 28.3128 32.8729 28.4867 32.6784 28.5333ZM32.5775 6.91894V28.1128C32.445 27.8527 32.3009 27.5993 32.1451 27.3536C31.841 26.8741 31.4926 26.4242 31.0999 26.0123V6.91894H32.5775Z" fill="white"/>
<path d="M19.7134 53.841C13.0206 53.841 7.58814 47.7132 7.58814 40.1657C7.58814 32.6182 13.0206 26.4904 19.7134 26.4904C26.4062 26.4904 31.8387 32.6182 31.8387 40.1657C31.8387 47.7132 26.3917 53.841 19.7134 53.841ZM19.7134 27.7942C13.716 27.7942 8.83399 33.3425 8.83399 40.1657C8.83399 46.9889 13.716 52.5373 19.7134 52.5373C25.7109 52.5373 30.5929 46.9889 30.5929 40.1657C30.5929 33.3425 25.7109 27.7942 19.7134 27.7942Z" fill="white"/>
<path fill-rule="evenodd" clip-rule="evenodd" d="M19.7134 54.2735C12.7343 54.2735 7.15571 47.9017 7.15571 40.1657C7.15571 32.4297 12.7343 26.0579 19.7134 26.0579C26.6925 26.0579 32.2711 32.4297 32.2711 40.1657C32.2711 47.902 26.6777 54.2735 19.7134 54.2735ZM19.7134 28.2266C14.0053 28.2266 9.26642 33.5275 9.26642 40.1657C9.26642 46.8039 14.0053 52.1048 19.7134 52.1048C25.4216 52.1048 30.1604 46.8039 30.1604 40.1657C30.1604 33.5275 25.4216 28.2266 19.7134 28.2266ZM7.58814 40.1657C7.58814 47.7132 13.0206 53.841 19.7134 53.841C26.3917 53.841 31.8387 47.7132 31.8387 40.1657C31.8387 32.6182 26.4062 26.4904 19.7134 26.4904C13.0206 26.4904 7.58814 32.6182 7.58814 40.1657ZM8.83399 40.1657C8.83399 33.3425 13.716 27.7941 19.7134 27.7941C25.7109 27.7941 30.5929 33.3425 30.5929 40.1657C30.5929 46.9889 25.7109 52.5373 19.7134 52.5373C13.716 52.5373 8.83399 46.9889 8.83399 40.1657Z" fill="white"/>
</svg>
