<svg width="155" height="230" viewBox="0 0 155 230" fill="none" xmlns="http://www.w3.org/2000/svg">
<g clip-path="url(#clip0_210_2478)">
<mask id="mask0_210_2478" style="mask-type:luminance" maskUnits="userSpaceOnUse" x="3" y="2" width="152" height="223">
<path d="M154.7 151C153 179.5 139.6 202.7 112.5 216.1C85.0001 229.7 57.7001 227.1 33.4001 208.4C9.8001 190.3 9.71556e-05 165.6 4.9001 135.9C9.7001 106.4 24.0001 80.6999 39.4001 55.7999C49.8001 39.0999 61.6001 23.3999 72.8001 7.19993C76.0001 2.49993 79.8001 -7.08103e-05 84.2001 5.79993C112.3 43.1999 138.8 81.5999 151.7 127.5C152.9 131.8 153.6 136.3 154.2 140.8C154.6 143.6 154.5 146.6 154.7 151Z" fill="white"/>
</mask>
<g mask="url(#mask0_210_2478)">
<path d="M145.4 0V0.8L0 12.1V0H145.4Z" fill="#6279BB"/>
</g>
<mask id="mask1_210_2478" style="mask-type:luminance" maskUnits="userSpaceOnUse" x="3" y="2" width="152" height="223">
<path d="M154.7 151C153 179.5 139.6 202.7 112.5 216.1C85.0001 229.7 57.7001 227.1 33.4001 208.4C9.8001 190.3 9.71556e-05 165.6 4.9001 135.9C9.7001 106.4 24.0001 80.6999 39.4001 55.7999C49.8001 39.0999 61.6001 23.3999 72.8001 7.19993C76.0001 2.49993 79.8001 -7.08103e-05 84.2001 5.79993C112.3 43.1999 138.8 81.5999 151.7 127.5C152.9 131.8 153.6 136.3 154.2 140.8C154.6 143.6 154.5 146.6 154.7 151Z" fill="white"/>
</mask>
<g mask="url(#mask1_210_2478)">
<path d="M145.4 0.800049L145.6 2.60005L0 13.9V12.1L145.4 0.800049Z" fill="#6279BB"/>
</g>
<mask id="mask2_210_2478" style="mask-type:luminance" maskUnits="userSpaceOnUse" x="3" y="2" width="152" height="223">
<path d="M154.7 151C153 179.5 139.6 202.7 112.5 216.1C85.0001 229.7 57.7001 227.1 33.4001 208.4C9.8001 190.3 9.71556e-05 165.6 4.9001 135.9C9.7001 106.4 24.0001 80.6999 39.4001 55.7999C49.8001 39.0999 61.6001 23.3999 72.8001 7.19993C76.0001 2.49993 79.8001 -7.08103e-05 84.2001 5.79993C112.3 43.1999 138.8 81.5999 151.7 127.5C152.9 131.8 153.6 136.3 154.2 140.8C154.6 143.6 154.5 146.6 154.7 151Z" fill="white"/>
</mask>
<g mask="url(#mask2_210_2478)">
<path d="M145.6 2.59985L145.7 4.29985L0 15.6999V13.8999L145.6 2.59985Z" fill="#6279BB"/>
</g>
<mask id="mask3_210_2478" style="mask-type:luminance" maskUnits="userSpaceOnUse" x="3" y="2" width="152" height="223">
<path d="M154.7 151C153 179.5 139.6 202.7 112.5 216.1C85.0001 229.7 57.7001 227.1 33.4001 208.4C9.8001 190.3 9.71556e-05 165.6 4.9001 135.9C9.7001 106.4 24.0001 80.6999 39.4001 55.7999C49.8001 39.0999 61.6001 23.3999 72.8001 7.19993C76.0001 2.49993 79.8001 -7.08103e-05 84.2001 5.79993C112.3 43.1999 138.8 81.5999 151.7 127.5C152.9 131.8 153.6 136.3 154.2 140.8C154.6 143.6 154.5 146.6 154.7 151Z" fill="white"/>
</mask>
<g mask="url(#mask3_210_2478)">
<path d="M145.7 4.30005L145.8 6.10005L0 17.5V15.7L145.7 4.30005Z" fill="#627ABB"/>
</g>
<mask id="mask4_210_2478" style="mask-type:luminance" maskUnits="userSpaceOnUse" x="3" y="2" width="152" height="223">
<path d="M154.7 151C153 179.5 139.6 202.7 112.5 216.1C85.0001 229.7 57.7001 227.1 33.4001 208.4C9.8001 190.3 9.71556e-05 165.6 4.9001 135.9C9.7001 106.4 24.0001 80.6999 39.4001 55.7999C49.8001 39.0999 61.6001 23.3999 72.8001 7.19993C76.0001 2.49993 79.8001 -7.08103e-05 84.2001 5.79993C112.3 43.1999 138.8 81.5999 151.7 127.5C152.9 131.8 153.6 136.3 154.2 140.8C154.6 143.6 154.5 146.6 154.7 151Z" fill="white"/>
</mask>
<g mask="url(#mask4_210_2478)">
<path d="M145.8 6.09985L146 7.89985L0 19.1999V17.4999L145.8 6.09985Z" fill="#627ABB"/>
</g>
<mask id="mask5_210_2478" style="mask-type:luminance" maskUnits="userSpaceOnUse" x="3" y="2" width="152" height="223">
<path d="M154.7 151C153 179.5 139.6 202.7 112.5 216.1C85.0001 229.7 57.7001 227.1 33.4001 208.4C9.8001 190.3 9.71556e-05 165.6 4.9001 135.9C9.7001 106.4 24.0001 80.6999 39.4001 55.7999C49.8001 39.0999 61.6001 23.3999 72.8001 7.19993C76.0001 2.49993 79.8001 -7.08103e-05 84.2001 5.79993C112.3 43.1999 138.8 81.5999 151.7 127.5C152.9 131.8 153.6 136.3 154.2 140.8C154.6 143.6 154.5 146.6 154.7 151Z" fill="white"/>
</mask>
<g mask="url(#mask5_210_2478)">
<path d="M146 7.8999L146.1 9.5999L0 20.9999V19.1999L146 7.8999Z" fill="#627BBB"/>
</g>
<mask id="mask6_210_2478" style="mask-type:luminance" maskUnits="userSpaceOnUse" x="3" y="2" width="152" height="223">
<path d="M154.7 151C153 179.5 139.6 202.7 112.5 216.1C85.0001 229.7 57.7001 227.1 33.4001 208.4C9.8001 190.3 9.71556e-05 165.6 4.9001 135.9C9.7001 106.4 24.0001 80.6999 39.4001 55.7999C49.8001 39.0999 61.6001 23.3999 72.8001 7.19993C76.0001 2.49993 79.8001 -7.08103e-05 84.2001 5.79993C112.3 43.1999 138.8 81.5999 151.7 127.5C152.9 131.8 153.6 136.3 154.2 140.8C154.6 143.6 154.5 146.6 154.7 151Z" fill="white"/>
</mask>
<g mask="url(#mask6_210_2478)">
<path d="M146.1 9.59985L146.3 11.3999L0 22.7999V20.9999L146.1 9.59985Z" fill="#627CBB"/>
</g>
<mask id="mask7_210_2478" style="mask-type:luminance" maskUnits="userSpaceOnUse" x="3" y="2" width="152" height="223">
<path d="M154.7 151C153 179.5 139.6 202.7 112.5 216.1C85.0001 229.7 57.7001 227.1 33.4001 208.4C9.8001 190.3 9.71556e-05 165.6 4.9001 135.9C9.7001 106.4 24.0001 80.6999 39.4001 55.7999C49.8001 39.0999 61.6001 23.3999 72.8001 7.19993C76.0001 2.49993 79.8001 -7.08103e-05 84.2001 5.79993C112.3 43.1999 138.8 81.5999 151.7 127.5C152.9 131.8 153.6 136.3 154.2 140.8C154.6 143.6 154.5 146.6 154.7 151Z" fill="white"/>
</mask>
<g mask="url(#mask7_210_2478)">
<path d="M146.3 11.3999L146.4 13.0999L0 24.4999V22.7999L146.3 11.3999Z" fill="#627CBA"/>
</g>
<mask id="mask8_210_2478" style="mask-type:luminance" maskUnits="userSpaceOnUse" x="3" y="2" width="152" height="223">
<path d="M154.7 151C153 179.5 139.6 202.7 112.5 216.1C85.0001 229.7 57.7001 227.1 33.4001 208.4C9.8001 190.3 9.71556e-05 165.6 4.9001 135.9C9.7001 106.4 24.0001 80.6999 39.4001 55.7999C49.8001 39.0999 61.6001 23.3999 72.8001 7.19993C76.0001 2.49993 79.8001 -7.08103e-05 84.2001 5.79993C112.3 43.1999 138.8 81.5999 151.7 127.5C152.9 131.8 153.6 136.3 154.2 140.8C154.6 143.6 154.5 146.6 154.7 151Z" fill="white"/>
</mask>
<g mask="url(#mask8_210_2478)">
<path d="M146.4 13.0999L146.5 14.8999L0 26.2999V24.4999L146.4 13.0999Z" fill="#627DBB"/>
</g>
<mask id="mask9_210_2478" style="mask-type:luminance" maskUnits="userSpaceOnUse" x="3" y="2" width="152" height="223">
<path d="M154.7 151C153 179.5 139.6 202.7 112.5 216.1C85.0001 229.7 57.7001 227.1 33.4001 208.4C9.8001 190.3 9.71556e-05 165.6 4.9001 135.9C9.7001 106.4 24.0001 80.6999 39.4001 55.7999C49.8001 39.0999 61.6001 23.3999 72.8001 7.19993C76.0001 2.49993 79.8001 -7.08103e-05 84.2001 5.79993C112.3 43.1999 138.8 81.5999 151.7 127.5C152.9 131.8 153.6 136.3 154.2 140.8C154.6 143.6 154.5 146.6 154.7 151Z" fill="white"/>
</mask>
<g mask="url(#mask9_210_2478)">
<path d="M146.5 14.8999L146.7 16.6999L0 28.0999V26.2999L146.5 14.8999Z" fill="#627DBB"/>
</g>
<mask id="mask10_210_2478" style="mask-type:luminance" maskUnits="userSpaceOnUse" x="3" y="2" width="152" height="223">
<path d="M154.7 151C153 179.5 139.6 202.7 112.5 216.1C85.0001 229.7 57.7001 227.1 33.4001 208.4C9.8001 190.3 9.71556e-05 165.6 4.9001 135.9C9.7001 106.4 24.0001 80.6999 39.4001 55.7999C49.8001 39.0999 61.6001 23.3999 72.8001 7.19993C76.0001 2.49993 79.8001 -7.08103e-05 84.2001 5.79993C112.3 43.1999 138.8 81.5999 151.7 127.5C152.9 131.8 153.6 136.3 154.2 140.8C154.6 143.6 154.5 146.6 154.7 151Z" fill="white"/>
</mask>
<g mask="url(#mask10_210_2478)">
<path d="M146.7 16.7L146.8 18.4L0 29.7999V28.1L146.7 16.7Z" fill="#627EBB"/>
</g>
<mask id="mask11_210_2478" style="mask-type:luminance" maskUnits="userSpaceOnUse" x="3" y="2" width="152" height="223">
<path d="M154.7 151C153 179.5 139.6 202.7 112.5 216.1C85.0001 229.7 57.7001 227.1 33.4001 208.4C9.8001 190.3 9.71556e-05 165.6 4.9001 135.9C9.7001 106.4 24.0001 80.6999 39.4001 55.7999C49.8001 39.0999 61.6001 23.3999 72.8001 7.19993C76.0001 2.49993 79.8001 -7.08103e-05 84.2001 5.79993C112.3 43.1999 138.8 81.5999 151.7 127.5C152.9 131.8 153.6 136.3 154.2 140.8C154.6 143.6 154.5 146.6 154.7 151Z" fill="white"/>
</mask>
<g mask="url(#mask11_210_2478)">
<path d="M146.8 18.3999L146.9 20.1999L0 31.5999V29.7999L146.8 18.3999Z" fill="#627EBB"/>
</g>
<mask id="mask12_210_2478" style="mask-type:luminance" maskUnits="userSpaceOnUse" x="3" y="2" width="152" height="223">
<path d="M154.7 151C153 179.5 139.6 202.7 112.5 216.1C85.0001 229.7 57.7001 227.1 33.4001 208.4C9.8001 190.3 9.71556e-05 165.6 4.9001 135.9C9.7001 106.4 24.0001 80.6999 39.4001 55.7999C49.8001 39.0999 61.6001 23.3999 72.8001 7.19993C76.0001 2.49993 79.8001 -7.08103e-05 84.2001 5.79993C112.3 43.1999 138.8 81.5999 151.7 127.5C152.9 131.8 153.6 136.3 154.2 140.8C154.6 143.6 154.5 146.6 154.7 151Z" fill="white"/>
</mask>
<g mask="url(#mask12_210_2478)">
<path d="M146.9 20.2L147.1 21.9L0 33.4V31.6L146.9 20.2Z" fill="#627FBB"/>
</g>
<mask id="mask13_210_2478" style="mask-type:luminance" maskUnits="userSpaceOnUse" x="3" y="2" width="152" height="223">
<path d="M154.7 151C153 179.5 139.6 202.7 112.5 216.1C85.0001 229.7 57.7001 227.1 33.4001 208.4C9.8001 190.3 9.71556e-05 165.6 4.9001 135.9C9.7001 106.4 24.0001 80.6999 39.4001 55.7999C49.8001 39.0999 61.6001 23.3999 72.8001 7.19993C76.0001 2.49993 79.8001 -7.08103e-05 84.2001 5.79993C112.3 43.1999 138.8 81.5999 151.7 127.5C152.9 131.8 153.6 136.3 154.2 140.8C154.6 143.6 154.5 146.6 154.7 151Z" fill="white"/>
</mask>
<g mask="url(#mask13_210_2478)">
<path d="M147.1 21.8999L147.2 23.6999L0 35.1999V33.3999L147.1 21.8999Z" fill="#627FBB"/>
</g>
<mask id="mask14_210_2478" style="mask-type:luminance" maskUnits="userSpaceOnUse" x="3" y="2" width="152" height="223">
<path d="M154.7 151C153 179.5 139.6 202.7 112.5 216.1C85.0001 229.7 57.7001 227.1 33.4001 208.4C9.8001 190.3 9.71556e-05 165.6 4.9001 135.9C9.7001 106.4 24.0001 80.6999 39.4001 55.7999C49.8001 39.0999 61.6001 23.3999 72.8001 7.19993C76.0001 2.49993 79.8001 -7.08103e-05 84.2001 5.79993C112.3 43.1999 138.8 81.5999 151.7 127.5C152.9 131.8 153.6 136.3 154.2 140.8C154.6 143.6 154.5 146.6 154.7 151Z" fill="white"/>
</mask>
<g mask="url(#mask14_210_2478)">
<path d="M147.2 23.7L147.4 25.4L0 36.9V35.2L147.2 23.7Z" fill="#6280BB"/>
</g>
<mask id="mask15_210_2478" style="mask-type:luminance" maskUnits="userSpaceOnUse" x="3" y="2" width="152" height="223">
<path d="M154.7 151C153 179.5 139.6 202.7 112.5 216.1C85.0001 229.7 57.7001 227.1 33.4001 208.4C9.8001 190.3 9.71556e-05 165.6 4.9001 135.9C9.7001 106.4 24.0001 80.6999 39.4001 55.7999C49.8001 39.0999 61.6001 23.3999 72.8001 7.19993C76.0001 2.49993 79.8001 -7.08103e-05 84.2001 5.79993C112.3 43.1999 138.8 81.5999 151.7 127.5C152.9 131.8 153.6 136.3 154.2 140.8C154.6 143.6 154.5 146.6 154.7 151Z" fill="white"/>
</mask>
<g mask="url(#mask15_210_2478)">
<path d="M147.4 25.3999L147.5 27.1999L0 38.6999V36.8999L147.4 25.3999Z" fill="#6281BB"/>
</g>
<mask id="mask16_210_2478" style="mask-type:luminance" maskUnits="userSpaceOnUse" x="3" y="2" width="152" height="223">
<path d="M154.7 151C153 179.5 139.6 202.7 112.5 216.1C85.0001 229.7 57.7001 227.1 33.4001 208.4C9.8001 190.3 9.71556e-05 165.6 4.9001 135.9C9.7001 106.4 24.0001 80.6999 39.4001 55.7999C49.8001 39.0999 61.6001 23.3999 72.8001 7.19993C76.0001 2.49993 79.8001 -7.08103e-05 84.2001 5.79993C112.3 43.1999 138.8 81.5999 151.7 127.5C152.9 131.8 153.6 136.3 154.2 140.8C154.6 143.6 154.5 146.6 154.7 151Z" fill="white"/>
</mask>
<g mask="url(#mask16_210_2478)">
<path d="M147.5 27.2L147.6 29L0 40.5V38.7L147.5 27.2Z" fill="#6281BB"/>
</g>
<mask id="mask17_210_2478" style="mask-type:luminance" maskUnits="userSpaceOnUse" x="3" y="2" width="152" height="223">
<path d="M154.7 151C153 179.5 139.6 202.7 112.5 216.1C85.0001 229.7 57.7001 227.1 33.4001 208.4C9.8001 190.3 9.71556e-05 165.6 4.9001 135.9C9.7001 106.4 24.0001 80.6999 39.4001 55.7999C49.8001 39.0999 61.6001 23.3999 72.8001 7.19993C76.0001 2.49993 79.8001 -7.08103e-05 84.2001 5.79993C112.3 43.1999 138.8 81.5999 151.7 127.5C152.9 131.8 153.6 136.3 154.2 140.8C154.6 143.6 154.5 146.6 154.7 151Z" fill="white"/>
</mask>
<g mask="url(#mask17_210_2478)">
<path d="M147.6 29L147.8 30.7L0 42.2V40.5L147.6 29Z" fill="#6282BB"/>
</g>
<mask id="mask18_210_2478" style="mask-type:luminance" maskUnits="userSpaceOnUse" x="3" y="2" width="152" height="223">
<path d="M154.7 151C153 179.5 139.6 202.7 112.5 216.1C85.0001 229.7 57.7001 227.1 33.4001 208.4C9.8001 190.3 9.71556e-05 165.6 4.9001 135.9C9.7001 106.4 24.0001 80.6999 39.4001 55.7999C49.8001 39.0999 61.6001 23.3999 72.8001 7.19993C76.0001 2.49993 79.8001 -7.08103e-05 84.2001 5.79993C112.3 43.1999 138.8 81.5999 151.7 127.5C152.9 131.8 153.6 136.3 154.2 140.8C154.6 143.6 154.5 146.6 154.7 151Z" fill="white"/>
</mask>
<g mask="url(#mask18_210_2478)">
<path d="M147.8 30.7L147.9 32.5L0 44V42.2L147.8 30.7Z" fill="#6282BB"/>
</g>
<mask id="mask19_210_2478" style="mask-type:luminance" maskUnits="userSpaceOnUse" x="3" y="2" width="152" height="223">
<path d="M154.7 151C153 179.5 139.6 202.7 112.5 216.1C85.0001 229.7 57.7001 227.1 33.4001 208.4C9.8001 190.3 9.71556e-05 165.6 4.9001 135.9C9.7001 106.4 24.0001 80.6999 39.4001 55.7999C49.8001 39.0999 61.6001 23.3999 72.8001 7.19993C76.0001 2.49993 79.8001 -7.08103e-05 84.2001 5.79993C112.3 43.1999 138.8 81.5999 151.7 127.5C152.9 131.8 153.6 136.3 154.2 140.8C154.6 143.6 154.5 146.6 154.7 151Z" fill="white"/>
</mask>
<g mask="url(#mask19_210_2478)">
<path d="M147.9 32.5L148 34.2L0 45.8V44L147.9 32.5Z" fill="#6283BC"/>
</g>
<mask id="mask20_210_2478" style="mask-type:luminance" maskUnits="userSpaceOnUse" x="3" y="2" width="152" height="223">
<path d="M154.7 151C153 179.5 139.6 202.7 112.5 216.1C85.0001 229.7 57.7001 227.1 33.4001 208.4C9.8001 190.3 9.71556e-05 165.6 4.9001 135.9C9.7001 106.4 24.0001 80.6999 39.4001 55.7999C49.8001 39.0999 61.6001 23.3999 72.8001 7.19993C76.0001 2.49993 79.8001 -7.08103e-05 84.2001 5.79993C112.3 43.1999 138.8 81.5999 151.7 127.5C152.9 131.8 153.6 136.3 154.2 140.8C154.6 143.6 154.5 146.6 154.7 151Z" fill="white"/>
</mask>
<g mask="url(#mask20_210_2478)">
<path d="M148 34.2L148.2 36L0 47.5V45.7999L148 34.2Z" fill="#6283BC"/>
</g>
<mask id="mask21_210_2478" style="mask-type:luminance" maskUnits="userSpaceOnUse" x="3" y="2" width="152" height="223">
<path d="M154.7 151C153 179.5 139.6 202.7 112.5 216.1C85.0001 229.7 57.7001 227.1 33.4001 208.4C9.8001 190.3 9.71556e-05 165.6 4.9001 135.9C9.7001 106.4 24.0001 80.6999 39.4001 55.7999C49.8001 39.0999 61.6001 23.3999 72.8001 7.19993C76.0001 2.49993 79.8001 -7.08103e-05 84.2001 5.79993C112.3 43.1999 138.8 81.5999 151.7 127.5C152.9 131.8 153.6 136.3 154.2 140.8C154.6 143.6 154.5 146.6 154.7 151Z" fill="white"/>
</mask>
<g mask="url(#mask21_210_2478)">
<path d="M148.2 36L148.3 37.8L0 49.3V47.5L148.2 36Z" fill="#6284BC"/>
</g>
<mask id="mask22_210_2478" style="mask-type:luminance" maskUnits="userSpaceOnUse" x="3" y="2" width="152" height="223">
<path d="M154.7 151C153 179.5 139.6 202.7 112.5 216.1C85.0001 229.7 57.7001 227.1 33.4001 208.4C9.8001 190.3 9.71556e-05 165.6 4.9001 135.9C9.7001 106.4 24.0001 80.6999 39.4001 55.7999C49.8001 39.0999 61.6001 23.3999 72.8001 7.19993C76.0001 2.49993 79.8001 -7.08103e-05 84.2001 5.79993C112.3 43.1999 138.8 81.5999 151.7 127.5C152.9 131.8 153.6 136.3 154.2 140.8C154.6 143.6 154.5 146.6 154.7 151Z" fill="white"/>
</mask>
<g mask="url(#mask22_210_2478)">
<path d="M148.3 37.7998L148.5 39.4998L0 51.0998V49.2998L148.3 37.7998Z" fill="#6285BC"/>
</g>
<mask id="mask23_210_2478" style="mask-type:luminance" maskUnits="userSpaceOnUse" x="3" y="2" width="152" height="223">
<path d="M154.7 151C153 179.5 139.6 202.7 112.5 216.1C85.0001 229.7 57.7001 227.1 33.4001 208.4C9.8001 190.3 9.71556e-05 165.6 4.9001 135.9C9.7001 106.4 24.0001 80.6999 39.4001 55.7999C49.8001 39.0999 61.6001 23.3999 72.8001 7.19993C76.0001 2.49993 79.8001 -7.08103e-05 84.2001 5.79993C112.3 43.1999 138.8 81.5999 151.7 127.5C152.9 131.8 153.6 136.3 154.2 140.8C154.6 143.6 154.5 146.6 154.7 151Z" fill="white"/>
</mask>
<g mask="url(#mask23_210_2478)">
<path d="M148.5 39.5L148.6 41.3L0 52.8V51.1L148.5 39.5Z" fill="#6285BC"/>
</g>
<mask id="mask24_210_2478" style="mask-type:luminance" maskUnits="userSpaceOnUse" x="3" y="2" width="152" height="223">
<path d="M154.7 151C153 179.5 139.6 202.7 112.5 216.1C85.0001 229.7 57.7001 227.1 33.4001 208.4C9.8001 190.3 9.71556e-05 165.6 4.9001 135.9C9.7001 106.4 24.0001 80.6999 39.4001 55.7999C49.8001 39.0999 61.6001 23.3999 72.8001 7.19993C76.0001 2.49993 79.8001 -7.08103e-05 84.2001 5.79993C112.3 43.1999 138.8 81.5999 151.7 127.5C152.9 131.8 153.6 136.3 154.2 140.8C154.6 143.6 154.5 146.6 154.7 151Z" fill="white"/>
</mask>
<g mask="url(#mask24_210_2478)">
<path d="M148.6 41.2998L148.7 42.9998L0 54.5998V52.7998L148.6 41.2998Z" fill="#6286BC"/>
</g>
<mask id="mask25_210_2478" style="mask-type:luminance" maskUnits="userSpaceOnUse" x="3" y="2" width="152" height="223">
<path d="M154.7 151C153 179.5 139.6 202.7 112.5 216.1C85.0001 229.7 57.7001 227.1 33.4001 208.4C9.8001 190.3 9.71556e-05 165.6 4.9001 135.9C9.7001 106.4 24.0001 80.6999 39.4001 55.7999C49.8001 39.0999 61.6001 23.3999 72.8001 7.19993C76.0001 2.49993 79.8001 -7.08103e-05 84.2001 5.79993C112.3 43.1999 138.8 81.5999 151.7 127.5C152.9 131.8 153.6 136.3 154.2 140.8C154.6 143.6 154.5 146.6 154.7 151Z" fill="white"/>
</mask>
<g mask="url(#mask25_210_2478)">
<path d="M148.7 43L148.9 44.8L0 56.4V54.6L148.7 43Z" fill="#6286BC"/>
</g>
<mask id="mask26_210_2478" style="mask-type:luminance" maskUnits="userSpaceOnUse" x="3" y="2" width="152" height="223">
<path d="M154.7 151C153 179.5 139.6 202.7 112.5 216.1C85.0001 229.7 57.7001 227.1 33.4001 208.4C9.8001 190.3 9.71556e-05 165.6 4.9001 135.9C9.7001 106.4 24.0001 80.6999 39.4001 55.7999C49.8001 39.0999 61.6001 23.3999 72.8001 7.19993C76.0001 2.49993 79.8001 -7.08103e-05 84.2001 5.79993C112.3 43.1999 138.8 81.5999 151.7 127.5C152.9 131.8 153.6 136.3 154.2 140.8C154.6 143.6 154.5 146.6 154.7 151Z" fill="white"/>
</mask>
<g mask="url(#mask26_210_2478)">
<path d="M148.9 44.7998L149 46.5998L0 58.1998V56.3998L148.9 44.7998Z" fill="#6287BC"/>
</g>
<mask id="mask27_210_2478" style="mask-type:luminance" maskUnits="userSpaceOnUse" x="3" y="2" width="152" height="223">
<path d="M154.7 151C153 179.5 139.6 202.7 112.5 216.1C85.0001 229.7 57.7001 227.1 33.4001 208.4C9.8001 190.3 9.71556e-05 165.6 4.9001 135.9C9.7001 106.4 24.0001 80.6999 39.4001 55.7999C49.8001 39.0999 61.6001 23.3999 72.8001 7.19993C76.0001 2.49993 79.8001 -7.08103e-05 84.2001 5.79993C112.3 43.1999 138.8 81.5999 151.7 127.5C152.9 131.8 153.6 136.3 154.2 140.8C154.6 143.6 154.5 146.6 154.7 151Z" fill="white"/>
</mask>
<g mask="url(#mask27_210_2478)">
<path d="M149 46.5999L149.1 48.2999L0 59.8999V58.1999L149 46.5999Z" fill="#6287BD"/>
</g>
<mask id="mask28_210_2478" style="mask-type:luminance" maskUnits="userSpaceOnUse" x="3" y="2" width="152" height="223">
<path d="M154.7 151C153 179.5 139.6 202.7 112.5 216.1C85.0001 229.7 57.7001 227.1 33.4001 208.4C9.8001 190.3 9.71556e-05 165.6 4.9001 135.9C9.7001 106.4 24.0001 80.6999 39.4001 55.7999C49.8001 39.0999 61.6001 23.3999 72.8001 7.19993C76.0001 2.49993 79.8001 -7.08103e-05 84.2001 5.79993C112.3 43.1999 138.8 81.5999 151.7 127.5C152.9 131.8 153.6 136.3 154.2 140.8C154.6 143.6 154.5 146.6 154.7 151Z" fill="white"/>
</mask>
<g mask="url(#mask28_210_2478)">
<path d="M149.1 48.2998L149.3 50.0998L0 61.6998V59.8998L149.1 48.2998Z" fill="#6288BD"/>
</g>
<mask id="mask29_210_2478" style="mask-type:luminance" maskUnits="userSpaceOnUse" x="3" y="2" width="152" height="223">
<path d="M154.7 151C153 179.5 139.6 202.7 112.5 216.1C85.0001 229.7 57.7001 227.1 33.4001 208.4C9.8001 190.3 9.71556e-05 165.6 4.9001 135.9C9.7001 106.4 24.0001 80.6999 39.4001 55.7999C49.8001 39.0999 61.6001 23.3999 72.8001 7.19993C76.0001 2.49993 79.8001 -7.08103e-05 84.2001 5.79993C112.3 43.1999 138.8 81.5999 151.7 127.5C152.9 131.8 153.6 136.3 154.2 140.8C154.6 143.6 154.5 146.6 154.7 151Z" fill="white"/>
</mask>
<g mask="url(#mask29_210_2478)">
<path d="M149.3 50.0999L149.4 51.7999L0 63.4999V61.6999L149.3 50.0999Z" fill="#6289BD"/>
</g>
<mask id="mask30_210_2478" style="mask-type:luminance" maskUnits="userSpaceOnUse" x="3" y="2" width="152" height="223">
<path d="M154.7 151C153 179.5 139.6 202.7 112.5 216.1C85.0001 229.7 57.7001 227.1 33.4001 208.4C9.8001 190.3 9.71556e-05 165.6 4.9001 135.9C9.7001 106.4 24.0001 80.6999 39.4001 55.7999C49.8001 39.0999 61.6001 23.3999 72.8001 7.19993C76.0001 2.49993 79.8001 -7.08103e-05 84.2001 5.79993C112.3 43.1999 138.8 81.5999 151.7 127.5C152.9 131.8 153.6 136.3 154.2 140.8C154.6 143.6 154.5 146.6 154.7 151Z" fill="white"/>
</mask>
<g mask="url(#mask30_210_2478)">
<path d="M149.4 51.7998L149.5 53.5998L0 65.1998V63.4998L149.4 51.7998Z" fill="#6289BD"/>
</g>
<mask id="mask31_210_2478" style="mask-type:luminance" maskUnits="userSpaceOnUse" x="3" y="2" width="152" height="223">
<path d="M154.7 151C153 179.5 139.6 202.7 112.5 216.1C85.0001 229.7 57.7001 227.1 33.4001 208.4C9.8001 190.3 9.71556e-05 165.6 4.9001 135.9C9.7001 106.4 24.0001 80.6999 39.4001 55.7999C49.8001 39.0999 61.6001 23.3999 72.8001 7.19993C76.0001 2.49993 79.8001 -7.08103e-05 84.2001 5.79993C112.3 43.1999 138.8 81.5999 151.7 127.5C152.9 131.8 153.6 136.3 154.2 140.8C154.6 143.6 154.5 146.6 154.7 151Z" fill="white"/>
</mask>
<g mask="url(#mask31_210_2478)">
<path d="M149.5 53.5999L149.7 55.2999L0 66.9999V65.1999L149.5 53.5999Z" fill="#628ABD"/>
</g>
<mask id="mask32_210_2478" style="mask-type:luminance" maskUnits="userSpaceOnUse" x="3" y="2" width="152" height="223">
<path d="M154.7 151C153 179.5 139.6 202.7 112.5 216.1C85.0001 229.7 57.7001 227.1 33.4001 208.4C9.8001 190.3 9.71556e-05 165.6 4.9001 135.9C9.7001 106.4 24.0001 80.6999 39.4001 55.7999C49.8001 39.0999 61.6001 23.3999 72.8001 7.19993C76.0001 2.49993 79.8001 -7.08103e-05 84.2001 5.79993C112.3 43.1999 138.8 81.5999 151.7 127.5C152.9 131.8 153.6 136.3 154.2 140.8C154.6 143.6 154.5 146.6 154.7 151Z" fill="white"/>
</mask>
<g mask="url(#mask32_210_2478)">
<path d="M149.7 55.2998L149.8 57.0998L0 68.7998V66.9998L149.7 55.2998Z" fill="#628ABD"/>
</g>
<mask id="mask33_210_2478" style="mask-type:luminance" maskUnits="userSpaceOnUse" x="3" y="2" width="152" height="223">
<path d="M154.7 151C153 179.5 139.6 202.7 112.5 216.1C85.0001 229.7 57.7001 227.1 33.4001 208.4C9.8001 190.3 9.71556e-05 165.6 4.9001 135.9C9.7001 106.4 24.0001 80.6999 39.4001 55.7999C49.8001 39.0999 61.6001 23.3999 72.8001 7.19993C76.0001 2.49993 79.8001 -7.08103e-05 84.2001 5.79993C112.3 43.1999 138.8 81.5999 151.7 127.5C152.9 131.8 153.6 136.3 154.2 140.8C154.6 143.6 154.5 146.6 154.7 151Z" fill="white"/>
</mask>
<g mask="url(#mask33_210_2478)">
<path d="M149.8 57.0999L150 58.8999L0 70.4999V68.7999L149.8 57.0999Z" fill="#628BBD"/>
</g>
<mask id="mask34_210_2478" style="mask-type:luminance" maskUnits="userSpaceOnUse" x="3" y="2" width="152" height="223">
<path d="M154.7 151C153 179.5 139.6 202.7 112.5 216.1C85.0001 229.7 57.7001 227.1 33.4001 208.4C9.8001 190.3 9.71556e-05 165.6 4.9001 135.9C9.7001 106.4 24.0001 80.6999 39.4001 55.7999C49.8001 39.0999 61.6001 23.3999 72.8001 7.19993C76.0001 2.49993 79.8001 -7.08103e-05 84.2001 5.79993C112.3 43.1999 138.8 81.5999 151.7 127.5C152.9 131.8 153.6 136.3 154.2 140.8C154.6 143.6 154.5 146.6 154.7 151Z" fill="white"/>
</mask>
<g mask="url(#mask34_210_2478)">
<path d="M150 58.8999L150.1 60.5999L0 72.2999V70.4999L150 58.8999Z" fill="#628BBD"/>
</g>
<mask id="mask35_210_2478" style="mask-type:luminance" maskUnits="userSpaceOnUse" x="3" y="2" width="152" height="223">
<path d="M154.7 151C153 179.5 139.6 202.7 112.5 216.1C85.0001 229.7 57.7001 227.1 33.4001 208.4C9.8001 190.3 9.71556e-05 165.6 4.9001 135.9C9.7001 106.4 24.0001 80.6999 39.4001 55.7999C49.8001 39.0999 61.6001 23.3999 72.8001 7.19993C76.0001 2.49993 79.8001 -7.08103e-05 84.2001 5.79993C112.3 43.1999 138.8 81.5999 151.7 127.5C152.9 131.8 153.6 136.3 154.2 140.8C154.6 143.6 154.5 146.6 154.7 151Z" fill="white"/>
</mask>
<g mask="url(#mask35_210_2478)">
<path d="M150.1 60.5999L150.2 62.3999L0 74.0999V72.2999L150.1 60.5999Z" fill="#628CBE"/>
</g>
<mask id="mask36_210_2478" style="mask-type:luminance" maskUnits="userSpaceOnUse" x="3" y="2" width="152" height="223">
<path d="M154.7 151C153 179.5 139.6 202.7 112.5 216.1C85.0001 229.7 57.7001 227.1 33.4001 208.4C9.8001 190.3 9.71556e-05 165.6 4.9001 135.9C9.7001 106.4 24.0001 80.6999 39.4001 55.7999C49.8001 39.0999 61.6001 23.3999 72.8001 7.19993C76.0001 2.49993 79.8001 -7.08103e-05 84.2001 5.79993C112.3 43.1999 138.8 81.5999 151.7 127.5C152.9 131.8 153.6 136.3 154.2 140.8C154.6 143.6 154.5 146.6 154.7 151Z" fill="white"/>
</mask>
<g mask="url(#mask36_210_2478)">
<path d="M150.2 62.3999L150.4 64.0999L0 75.8999V74.0999L150.2 62.3999Z" fill="#628DBE"/>
</g>
<mask id="mask37_210_2478" style="mask-type:luminance" maskUnits="userSpaceOnUse" x="3" y="2" width="152" height="223">
<path d="M154.7 151C153 179.5 139.6 202.7 112.5 216.1C85.0001 229.7 57.7001 227.1 33.4001 208.4C9.8001 190.3 9.71556e-05 165.6 4.9001 135.9C9.7001 106.4 24.0001 80.6999 39.4001 55.7999C49.8001 39.0999 61.6001 23.3999 72.8001 7.19993C76.0001 2.49993 79.8001 -7.08103e-05 84.2001 5.79993C112.3 43.1999 138.8 81.5999 151.7 127.5C152.9 131.8 153.6 136.3 154.2 140.8C154.6 143.6 154.5 146.6 154.7 151Z" fill="white"/>
</mask>
<g mask="url(#mask37_210_2478)">
<path d="M150.4 64.0999L150.5 65.8999L0 77.5999V75.8999L150.4 64.0999Z" fill="#628DBE"/>
</g>
<mask id="mask38_210_2478" style="mask-type:luminance" maskUnits="userSpaceOnUse" x="3" y="2" width="152" height="223">
<path d="M154.7 151C153 179.5 139.6 202.7 112.5 216.1C85.0001 229.7 57.7001 227.1 33.4001 208.4C9.8001 190.3 9.71556e-05 165.6 4.9001 135.9C9.7001 106.4 24.0001 80.6999 39.4001 55.7999C49.8001 39.0999 61.6001 23.3999 72.8001 7.19993C76.0001 2.49993 79.8001 -7.08103e-05 84.2001 5.79993C112.3 43.1999 138.8 81.5999 151.7 127.5C152.9 131.8 153.6 136.3 154.2 140.8C154.6 143.6 154.5 146.6 154.7 151Z" fill="white"/>
</mask>
<g mask="url(#mask38_210_2478)">
<path d="M150.5 65.8999L150.6 67.6999L0 79.3999V77.5999L150.5 65.8999Z" fill="#628EBE"/>
</g>
<mask id="mask39_210_2478" style="mask-type:luminance" maskUnits="userSpaceOnUse" x="3" y="2" width="152" height="223">
<path d="M154.7 151C153 179.5 139.6 202.7 112.5 216.1C85.0001 229.7 57.7001 227.1 33.4001 208.4C9.8001 190.3 9.71556e-05 165.6 4.9001 135.9C9.7001 106.4 24.0001 80.6999 39.4001 55.7999C49.8001 39.0999 61.6001 23.3999 72.8001 7.19993C76.0001 2.49993 79.8001 -7.08103e-05 84.2001 5.79993C112.3 43.1999 138.8 81.5999 151.7 127.5C152.9 131.8 153.6 136.3 154.2 140.8C154.6 143.6 154.5 146.6 154.7 151Z" fill="white"/>
</mask>
<g mask="url(#mask39_210_2478)">
<path d="M150.6 67.7L150.8 69.4L0 81.2V79.4L150.6 67.7Z" fill="#628EBE"/>
</g>
<mask id="mask40_210_2478" style="mask-type:luminance" maskUnits="userSpaceOnUse" x="3" y="2" width="152" height="223">
<path d="M154.7 151C153 179.5 139.6 202.7 112.5 216.1C85.0001 229.7 57.7001 227.1 33.4001 208.4C9.8001 190.3 9.71556e-05 165.6 4.9001 135.9C9.7001 106.4 24.0001 80.6999 39.4001 55.7999C49.8001 39.0999 61.6001 23.3999 72.8001 7.19993C76.0001 2.49993 79.8001 -7.08103e-05 84.2001 5.79993C112.3 43.1999 138.8 81.5999 151.7 127.5C152.9 131.8 153.6 136.3 154.2 140.8C154.6 143.6 154.5 146.6 154.7 151Z" fill="white"/>
</mask>
<g mask="url(#mask40_210_2478)">
<path d="M150.8 69.3999L150.9 71.1999L0 82.8999V81.1999L150.8 69.3999Z" fill="#628FBE"/>
</g>
<mask id="mask41_210_2478" style="mask-type:luminance" maskUnits="userSpaceOnUse" x="3" y="2" width="152" height="223">
<path d="M154.7 151C153 179.5 139.6 202.7 112.5 216.1C85.0001 229.7 57.7001 227.1 33.4001 208.4C9.8001 190.3 9.71556e-05 165.6 4.9001 135.9C9.7001 106.4 24.0001 80.6999 39.4001 55.7999C49.8001 39.0999 61.6001 23.3999 72.8001 7.19993C76.0001 2.49993 79.8001 -7.08103e-05 84.2001 5.79993C112.3 43.1999 138.8 81.5999 151.7 127.5C152.9 131.8 153.6 136.3 154.2 140.8C154.6 143.6 154.5 146.6 154.7 151Z" fill="white"/>
</mask>
<g mask="url(#mask41_210_2478)">
<path d="M150.9 71.2L151.1 72.9L0 84.7V82.9L150.9 71.2Z" fill="#628FBE"/>
</g>
<mask id="mask42_210_2478" style="mask-type:luminance" maskUnits="userSpaceOnUse" x="3" y="2" width="152" height="223">
<path d="M154.7 151C153 179.5 139.6 202.7 112.5 216.1C85.0001 229.7 57.7001 227.1 33.4001 208.4C9.8001 190.3 9.71556e-05 165.6 4.9001 135.9C9.7001 106.4 24.0001 80.6999 39.4001 55.7999C49.8001 39.0999 61.6001 23.3999 72.8001 7.19993C76.0001 2.49993 79.8001 -7.08103e-05 84.2001 5.79993C112.3 43.1999 138.8 81.5999 151.7 127.5C152.9 131.8 153.6 136.3 154.2 140.8C154.6 143.6 154.5 146.6 154.7 151Z" fill="white"/>
</mask>
<g mask="url(#mask42_210_2478)">
<path d="M151.1 72.8999L151.2 74.6999L0 86.4999V84.6999L151.1 72.8999Z" fill="#6290BF"/>
</g>
<mask id="mask43_210_2478" style="mask-type:luminance" maskUnits="userSpaceOnUse" x="3" y="2" width="152" height="223">
<path d="M154.7 151C153 179.5 139.6 202.7 112.5 216.1C85.0001 229.7 57.7001 227.1 33.4001 208.4C9.8001 190.3 9.71556e-05 165.6 4.9001 135.9C9.7001 106.4 24.0001 80.6999 39.4001 55.7999C49.8001 39.0999 61.6001 23.3999 72.8001 7.19993C76.0001 2.49993 79.8001 -7.08103e-05 84.2001 5.79993C112.3 43.1999 138.8 81.5999 151.7 127.5C152.9 131.8 153.6 136.3 154.2 140.8C154.6 143.6 154.5 146.6 154.7 151Z" fill="white"/>
</mask>
<g mask="url(#mask43_210_2478)">
<path d="M151.2 74.7L151.3 76.5L0 88.2V86.5L151.2 74.7Z" fill="#6291BF"/>
</g>
<mask id="mask44_210_2478" style="mask-type:luminance" maskUnits="userSpaceOnUse" x="3" y="2" width="152" height="223">
<path d="M154.7 151C153 179.5 139.6 202.7 112.5 216.1C85.0001 229.7 57.7001 227.1 33.4001 208.4C9.8001 190.3 9.71556e-05 165.6 4.9001 135.9C9.7001 106.4 24.0001 80.6999 39.4001 55.7999C49.8001 39.0999 61.6001 23.3999 72.8001 7.19993C76.0001 2.49993 79.8001 -7.08103e-05 84.2001 5.79993C112.3 43.1999 138.8 81.5999 151.7 127.5C152.9 131.8 153.6 136.3 154.2 140.8C154.6 143.6 154.5 146.6 154.7 151Z" fill="white"/>
</mask>
<g mask="url(#mask44_210_2478)">
<path d="M151.3 76.5L151.5 78.2L0 90V88.2L151.3 76.5Z" fill="#6291BF"/>
</g>
<mask id="mask45_210_2478" style="mask-type:luminance" maskUnits="userSpaceOnUse" x="3" y="2" width="152" height="223">
<path d="M154.7 151C153 179.5 139.6 202.7 112.5 216.1C85.0001 229.7 57.7001 227.1 33.4001 208.4C9.8001 190.3 9.71556e-05 165.6 4.9001 135.9C9.7001 106.4 24.0001 80.6999 39.4001 55.7999C49.8001 39.0999 61.6001 23.3999 72.8001 7.19993C76.0001 2.49993 79.8001 -7.08103e-05 84.2001 5.79993C112.3 43.1999 138.8 81.5999 151.7 127.5C152.9 131.8 153.6 136.3 154.2 140.8C154.6 143.6 154.5 146.6 154.7 151Z" fill="white"/>
</mask>
<g mask="url(#mask45_210_2478)">
<path d="M151.5 78.2L151.6 80L0 91.8V90L151.5 78.2Z" fill="#6292BF"/>
</g>
<mask id="mask46_210_2478" style="mask-type:luminance" maskUnits="userSpaceOnUse" x="3" y="2" width="152" height="223">
<path d="M154.7 151C153 179.5 139.6 202.7 112.5 216.1C85.0001 229.7 57.7001 227.1 33.4001 208.4C9.8001 190.3 9.71556e-05 165.6 4.9001 135.9C9.7001 106.4 24.0001 80.6999 39.4001 55.7999C49.8001 39.0999 61.6001 23.3999 72.8001 7.19993C76.0001 2.49993 79.8001 -7.08103e-05 84.2001 5.79993C112.3 43.1999 138.8 81.5999 151.7 127.5C152.9 131.8 153.6 136.3 154.2 140.8C154.6 143.6 154.5 146.6 154.7 151Z" fill="white"/>
</mask>
<g mask="url(#mask46_210_2478)">
<path d="M151.6 80L151.7 81.7L0 93.5V91.8L151.6 80Z" fill="#6292BF"/>
</g>
<mask id="mask47_210_2478" style="mask-type:luminance" maskUnits="userSpaceOnUse" x="3" y="2" width="152" height="223">
<path d="M154.7 151C153 179.5 139.6 202.7 112.5 216.1C85.0001 229.7 57.7001 227.1 33.4001 208.4C9.8001 190.3 9.71556e-05 165.6 4.9001 135.9C9.7001 106.4 24.0001 80.6999 39.4001 55.7999C49.8001 39.0999 61.6001 23.3999 72.8001 7.19993C76.0001 2.49993 79.8001 -7.08103e-05 84.2001 5.79993C112.3 43.1999 138.8 81.5999 151.7 127.5C152.9 131.8 153.6 136.3 154.2 140.8C154.6 143.6 154.5 146.6 154.7 151Z" fill="white"/>
</mask>
<g mask="url(#mask47_210_2478)">
<path d="M151.7 81.7L151.9 83.5L0 95.3V93.5L151.7 81.7Z" fill="#6293BF"/>
</g>
<mask id="mask48_210_2478" style="mask-type:luminance" maskUnits="userSpaceOnUse" x="3" y="2" width="152" height="223">
<path d="M154.7 151C153 179.5 139.6 202.7 112.5 216.1C85.0001 229.7 57.7001 227.1 33.4001 208.4C9.8001 190.3 9.71556e-05 165.6 4.9001 135.9C9.7001 106.4 24.0001 80.6999 39.4001 55.7999C49.8001 39.0999 61.6001 23.3999 72.8001 7.19993C76.0001 2.49993 79.8001 -7.08103e-05 84.2001 5.79993C112.3 43.1999 138.8 81.5999 151.7 127.5C152.9 131.8 153.6 136.3 154.2 140.8C154.6 143.6 154.5 146.6 154.7 151Z" fill="white"/>
</mask>
<g mask="url(#mask48_210_2478)">
<path d="M151.9 83.5L152 85.2L0 97.1V95.3L151.9 83.5Z" fill="#6294BF"/>
</g>
<mask id="mask49_210_2478" style="mask-type:luminance" maskUnits="userSpaceOnUse" x="3" y="2" width="152" height="223">
<path d="M154.7 151C153 179.5 139.6 202.7 112.5 216.1C85.0001 229.7 57.7001 227.1 33.4001 208.4C9.8001 190.3 9.71556e-05 165.6 4.9001 135.9C9.7001 106.4 24.0001 80.6999 39.4001 55.7999C49.8001 39.0999 61.6001 23.3999 72.8001 7.19993C76.0001 2.49993 79.8001 -7.08103e-05 84.2001 5.79993C112.3 43.1999 138.8 81.5999 151.7 127.5C152.9 131.8 153.6 136.3 154.2 140.8C154.6 143.6 154.5 146.6 154.7 151Z" fill="white"/>
</mask>
<g mask="url(#mask49_210_2478)">
<path d="M152 85.2L152.2 87L0 98.9V97.1L152 85.2Z" fill="#6294BF"/>
</g>
<mask id="mask50_210_2478" style="mask-type:luminance" maskUnits="userSpaceOnUse" x="3" y="2" width="152" height="223">
<path d="M154.7 151C153 179.5 139.6 202.7 112.5 216.1C85.0001 229.7 57.7001 227.1 33.4001 208.4C9.8001 190.3 9.71556e-05 165.6 4.9001 135.9C9.7001 106.4 24.0001 80.6999 39.4001 55.7999C49.8001 39.0999 61.6001 23.3999 72.8001 7.19993C76.0001 2.49993 79.8001 -7.08103e-05 84.2001 5.79993C112.3 43.1999 138.8 81.5999 151.7 127.5C152.9 131.8 153.6 136.3 154.2 140.8C154.6 143.6 154.5 146.6 154.7 151Z" fill="white"/>
</mask>
<g mask="url(#mask50_210_2478)">
<path d="M152.2 87L152.3 88.8L0 100.6V98.9L152.2 87Z" fill="#6295BF"/>
</g>
<mask id="mask51_210_2478" style="mask-type:luminance" maskUnits="userSpaceOnUse" x="3" y="2" width="152" height="223">
<path d="M154.7 151C153 179.5 139.6 202.7 112.5 216.1C85.0001 229.7 57.7001 227.1 33.4001 208.4C9.8001 190.3 9.71556e-05 165.6 4.9001 135.9C9.7001 106.4 24.0001 80.6999 39.4001 55.7999C49.8001 39.0999 61.6001 23.3999 72.8001 7.19993C76.0001 2.49993 79.8001 -7.08103e-05 84.2001 5.79993C112.3 43.1999 138.8 81.5999 151.7 127.5C152.9 131.8 153.6 136.3 154.2 140.8C154.6 143.6 154.5 146.6 154.7 151Z" fill="white"/>
</mask>
<g mask="url(#mask51_210_2478)">
<path d="M152.3 88.8L152.4 90.5L0 102.4V100.6L152.3 88.8Z" fill="#6295C0"/>
</g>
<mask id="mask52_210_2478" style="mask-type:luminance" maskUnits="userSpaceOnUse" x="3" y="2" width="152" height="223">
<path d="M154.7 151C153 179.5 139.6 202.7 112.5 216.1C85.0001 229.7 57.7001 227.1 33.4001 208.4C9.8001 190.3 9.71556e-05 165.6 4.9001 135.9C9.7001 106.4 24.0001 80.6999 39.4001 55.7999C49.8001 39.0999 61.6001 23.3999 72.8001 7.19993C76.0001 2.49993 79.8001 -7.08103e-05 84.2001 5.79993C112.3 43.1999 138.8 81.5999 151.7 127.5C152.9 131.8 153.6 136.3 154.2 140.8C154.6 143.6 154.5 146.6 154.7 151Z" fill="white"/>
</mask>
<g mask="url(#mask52_210_2478)">
<path d="M152.4 90.5L152.6 92.3L0 104.2V102.4L152.4 90.5Z" fill="#6296C0"/>
</g>
<mask id="mask53_210_2478" style="mask-type:luminance" maskUnits="userSpaceOnUse" x="3" y="2" width="152" height="223">
<path d="M154.7 151C153 179.5 139.6 202.7 112.5 216.1C85.0001 229.7 57.7001 227.1 33.4001 208.4C9.8001 190.3 9.71556e-05 165.6 4.9001 135.9C9.7001 106.4 24.0001 80.6999 39.4001 55.7999C49.8001 39.0999 61.6001 23.3999 72.8001 7.19993C76.0001 2.49993 79.8001 -7.08103e-05 84.2001 5.79993C112.3 43.1999 138.8 81.5999 151.7 127.5C152.9 131.8 153.6 136.3 154.2 140.8C154.6 143.6 154.5 146.6 154.7 151Z" fill="white"/>
</mask>
<g mask="url(#mask53_210_2478)">
<path d="M152.6 92.3L152.7 94L0 105.9V104.2L152.6 92.3Z" fill="#6297C0"/>
</g>
<mask id="mask54_210_2478" style="mask-type:luminance" maskUnits="userSpaceOnUse" x="3" y="2" width="152" height="223">
<path d="M154.7 151C153 179.5 139.6 202.7 112.5 216.1C85.0001 229.7 57.7001 227.1 33.4001 208.4C9.8001 190.3 9.71556e-05 165.6 4.9001 135.9C9.7001 106.4 24.0001 80.6999 39.4001 55.7999C49.8001 39.0999 61.6001 23.3999 72.8001 7.19993C76.0001 2.49993 79.8001 -7.08103e-05 84.2001 5.79993C112.3 43.1999 138.8 81.5999 151.7 127.5C152.9 131.8 153.6 136.3 154.2 140.8C154.6 143.6 154.5 146.6 154.7 151Z" fill="white"/>
</mask>
<g mask="url(#mask54_210_2478)">
<path d="M152.7 94L152.8 95.8L0 107.7V105.9L152.7 94Z" fill="#6197C0"/>
</g>
<mask id="mask55_210_2478" style="mask-type:luminance" maskUnits="userSpaceOnUse" x="3" y="2" width="152" height="223">
<path d="M154.7 151C153 179.5 139.6 202.7 112.5 216.1C85.0001 229.7 57.7001 227.1 33.4001 208.4C9.8001 190.3 9.71556e-05 165.6 4.9001 135.9C9.7001 106.4 24.0001 80.6999 39.4001 55.7999C49.8001 39.0999 61.6001 23.3999 72.8001 7.19993C76.0001 2.49993 79.8001 -7.08103e-05 84.2001 5.79993C112.3 43.1999 138.8 81.5999 151.7 127.5C152.9 131.8 153.6 136.3 154.2 140.8C154.6 143.6 154.5 146.6 154.7 151Z" fill="white"/>
</mask>
<g mask="url(#mask55_210_2478)">
<path d="M152.8 95.8L153 97.6L0 109.5V107.7L152.8 95.8Z" fill="#6198C0"/>
</g>
<mask id="mask56_210_2478" style="mask-type:luminance" maskUnits="userSpaceOnUse" x="3" y="2" width="152" height="223">
<path d="M154.7 151C153 179.5 139.6 202.7 112.5 216.1C85.0001 229.7 57.7001 227.1 33.4001 208.4C9.8001 190.3 9.71556e-05 165.6 4.9001 135.9C9.7001 106.4 24.0001 80.6999 39.4001 55.7999C49.8001 39.0999 61.6001 23.3999 72.8001 7.19993C76.0001 2.49993 79.8001 -7.08103e-05 84.2001 5.79993C112.3 43.1999 138.8 81.5999 151.7 127.5C152.9 131.8 153.6 136.3 154.2 140.8C154.6 143.6 154.5 146.6 154.7 151Z" fill="white"/>
</mask>
<g mask="url(#mask56_210_2478)">
<path d="M153 97.5999L153.1 99.2999L0 111.2V109.5L153 97.5999Z" fill="#6198C0"/>
</g>
<mask id="mask57_210_2478" style="mask-type:luminance" maskUnits="userSpaceOnUse" x="3" y="2" width="152" height="223">
<path d="M154.7 151C153 179.5 139.6 202.7 112.5 216.1C85.0001 229.7 57.7001 227.1 33.4001 208.4C9.8001 190.3 9.71556e-05 165.6 4.9001 135.9C9.7001 106.4 24.0001 80.6999 39.4001 55.7999C49.8001 39.0999 61.6001 23.3999 72.8001 7.19993C76.0001 2.49993 79.8001 -7.08103e-05 84.2001 5.79993C112.3 43.1999 138.8 81.5999 151.7 127.5C152.9 131.8 153.6 136.3 154.2 140.8C154.6 143.6 154.5 146.6 154.7 151Z" fill="white"/>
</mask>
<g mask="url(#mask57_210_2478)">
<path d="M153.1 99.3L153.2 101.1L0 113V111.2L153.1 99.3Z" fill="#6199C0"/>
</g>
<mask id="mask58_210_2478" style="mask-type:luminance" maskUnits="userSpaceOnUse" x="3" y="2" width="152" height="223">
<path d="M154.7 151C153 179.5 139.6 202.7 112.5 216.1C85.0001 229.7 57.7001 227.1 33.4001 208.4C9.8001 190.3 9.71556e-05 165.6 4.9001 135.9C9.7001 106.4 24.0001 80.6999 39.4001 55.7999C49.8001 39.0999 61.6001 23.3999 72.8001 7.19993C76.0001 2.49993 79.8001 -7.08103e-05 84.2001 5.79993C112.3 43.1999 138.8 81.5999 151.7 127.5C152.9 131.8 153.6 136.3 154.2 140.8C154.6 143.6 154.5 146.6 154.7 151Z" fill="white"/>
</mask>
<g mask="url(#mask58_210_2478)">
<path d="M153.2 101.1L153.4 102.8L0 114.8V113L153.2 101.1Z" fill="#6199C0"/>
</g>
<mask id="mask59_210_2478" style="mask-type:luminance" maskUnits="userSpaceOnUse" x="3" y="2" width="152" height="223">
<path d="M154.7 151C153 179.5 139.6 202.7 112.5 216.1C85.0001 229.7 57.7001 227.1 33.4001 208.4C9.8001 190.3 9.71556e-05 165.6 4.9001 135.9C9.7001 106.4 24.0001 80.6999 39.4001 55.7999C49.8001 39.0999 61.6001 23.3999 72.8001 7.19993C76.0001 2.49993 79.8001 -7.08103e-05 84.2001 5.79993C112.3 43.1999 138.8 81.5999 151.7 127.5C152.9 131.8 153.6 136.3 154.2 140.8C154.6 143.6 154.5 146.6 154.7 151Z" fill="white"/>
</mask>
<g mask="url(#mask59_210_2478)">
<path d="M153.4 102.8L153.5 104.6L0 116.6V114.8L153.4 102.8Z" fill="#619AC1"/>
</g>
<mask id="mask60_210_2478" style="mask-type:luminance" maskUnits="userSpaceOnUse" x="3" y="2" width="152" height="223">
<path d="M154.7 151C153 179.5 139.6 202.7 112.5 216.1C85.0001 229.7 57.7001 227.1 33.4001 208.4C9.8001 190.3 9.71556e-05 165.6 4.9001 135.9C9.7001 106.4 24.0001 80.6999 39.4001 55.7999C49.8001 39.0999 61.6001 23.3999 72.8001 7.19993C76.0001 2.49993 79.8001 -7.08103e-05 84.2001 5.79993C112.3 43.1999 138.8 81.5999 151.7 127.5C152.9 131.8 153.6 136.3 154.2 140.8C154.6 143.6 154.5 146.6 154.7 151Z" fill="white"/>
</mask>
<g mask="url(#mask60_210_2478)">
<path d="M153.5 104.6L153.7 106.4L0 118.3V116.6L153.5 104.6Z" fill="#619BC1"/>
</g>
<mask id="mask61_210_2478" style="mask-type:luminance" maskUnits="userSpaceOnUse" x="3" y="2" width="152" height="223">
<path d="M154.7 151C153 179.5 139.6 202.7 112.5 216.1C85.0001 229.7 57.7001 227.1 33.4001 208.4C9.8001 190.3 9.71556e-05 165.6 4.9001 135.9C9.7001 106.4 24.0001 80.6999 39.4001 55.7999C49.8001 39.0999 61.6001 23.3999 72.8001 7.19993C76.0001 2.49993 79.8001 -7.08103e-05 84.2001 5.79993C112.3 43.1999 138.8 81.5999 151.7 127.5C152.9 131.8 153.6 136.3 154.2 140.8C154.6 143.6 154.5 146.6 154.7 151Z" fill="white"/>
</mask>
<g mask="url(#mask61_210_2478)">
<path d="M153.7 106.4L153.8 108.1L0 120.1V118.3L153.7 106.4Z" fill="#619BC1"/>
</g>
<mask id="mask62_210_2478" style="mask-type:luminance" maskUnits="userSpaceOnUse" x="3" y="2" width="152" height="223">
<path d="M154.7 151C153 179.5 139.6 202.7 112.5 216.1C85.0001 229.7 57.7001 227.1 33.4001 208.4C9.8001 190.3 9.71556e-05 165.6 4.9001 135.9C9.7001 106.4 24.0001 80.6999 39.4001 55.7999C49.8001 39.0999 61.6001 23.3999 72.8001 7.19993C76.0001 2.49993 79.8001 -7.08103e-05 84.2001 5.79993C112.3 43.1999 138.8 81.5999 151.7 127.5C152.9 131.8 153.6 136.3 154.2 140.8C154.6 143.6 154.5 146.6 154.7 151Z" fill="white"/>
</mask>
<g mask="url(#mask62_210_2478)">
<path d="M153.8 108.1L153.9 109.9L0 121.9V120.1L153.8 108.1Z" fill="#619CC1"/>
</g>
<mask id="mask63_210_2478" style="mask-type:luminance" maskUnits="userSpaceOnUse" x="3" y="2" width="152" height="223">
<path d="M154.7 151C153 179.5 139.6 202.7 112.5 216.1C85.0001 229.7 57.7001 227.1 33.4001 208.4C9.8001 190.3 9.71556e-05 165.6 4.9001 135.9C9.7001 106.4 24.0001 80.6999 39.4001 55.7999C49.8001 39.0999 61.6001 23.3999 72.8001 7.19993C76.0001 2.49993 79.8001 -7.08103e-05 84.2001 5.79993C112.3 43.1999 138.8 81.5999 151.7 127.5C152.9 131.8 153.6 136.3 154.2 140.8C154.6 143.6 154.5 146.6 154.7 151Z" fill="white"/>
</mask>
<g mask="url(#mask63_210_2478)">
<path d="M153.9 109.9L154.1 111.6L0 123.6V121.9L153.9 109.9Z" fill="#619CC1"/>
</g>
<mask id="mask64_210_2478" style="mask-type:luminance" maskUnits="userSpaceOnUse" x="3" y="2" width="152" height="223">
<path d="M154.7 151C153 179.5 139.6 202.7 112.5 216.1C85.0001 229.7 57.7001 227.1 33.4001 208.4C9.8001 190.3 9.71556e-05 165.6 4.9001 135.9C9.7001 106.4 24.0001 80.6999 39.4001 55.7999C49.8001 39.0999 61.6001 23.3999 72.8001 7.19993C76.0001 2.49993 79.8001 -7.08103e-05 84.2001 5.79993C112.3 43.1999 138.8 81.5999 151.7 127.5C152.9 131.8 153.6 136.3 154.2 140.8C154.6 143.6 154.5 146.6 154.7 151Z" fill="white"/>
</mask>
<g mask="url(#mask64_210_2478)">
<path d="M154.1 111.6L154.2 113.4L0 125.4V123.6L154.1 111.6Z" fill="#619DC1"/>
</g>
<mask id="mask65_210_2478" style="mask-type:luminance" maskUnits="userSpaceOnUse" x="3" y="2" width="152" height="223">
<path d="M154.7 151C153 179.5 139.6 202.7 112.5 216.1C85.0001 229.7 57.7001 227.1 33.4001 208.4C9.8001 190.3 9.71556e-05 165.6 4.9001 135.9C9.7001 106.4 24.0001 80.6999 39.4001 55.7999C49.8001 39.0999 61.6001 23.3999 72.8001 7.19993C76.0001 2.49993 79.8001 -7.08103e-05 84.2001 5.79993C112.3 43.1999 138.8 81.5999 151.7 127.5C152.9 131.8 153.6 136.3 154.2 140.8C154.6 143.6 154.5 146.6 154.7 151Z" fill="white"/>
</mask>
<g mask="url(#mask65_210_2478)">
<path d="M154.2 113.4L154.3 115.1L0 127.2V125.4L154.2 113.4Z" fill="#619EC1"/>
</g>
<mask id="mask66_210_2478" style="mask-type:luminance" maskUnits="userSpaceOnUse" x="3" y="2" width="152" height="223">
<path d="M154.7 151C153 179.5 139.6 202.7 112.5 216.1C85.0001 229.7 57.7001 227.1 33.4001 208.4C9.8001 190.3 9.71556e-05 165.6 4.9001 135.9C9.7001 106.4 24.0001 80.6999 39.4001 55.7999C49.8001 39.0999 61.6001 23.3999 72.8001 7.19993C76.0001 2.49993 79.8001 -7.08103e-05 84.2001 5.79993C112.3 43.1999 138.8 81.5999 151.7 127.5C152.9 131.8 153.6 136.3 154.2 140.8C154.6 143.6 154.5 146.6 154.7 151Z" fill="white"/>
</mask>
<g mask="url(#mask66_210_2478)">
<path d="M154.3 115.1L154.5 116.9L0 128.9V127.2L154.3 115.1Z" fill="#619EC1"/>
</g>
<mask id="mask67_210_2478" style="mask-type:luminance" maskUnits="userSpaceOnUse" x="3" y="2" width="152" height="223">
<path d="M154.7 151C153 179.5 139.6 202.7 112.5 216.1C85.0001 229.7 57.7001 227.1 33.4001 208.4C9.8001 190.3 9.71556e-05 165.6 4.9001 135.9C9.7001 106.4 24.0001 80.6999 39.4001 55.7999C49.8001 39.0999 61.6001 23.3999 72.8001 7.19993C76.0001 2.49993 79.8001 -7.08103e-05 84.2001 5.79993C112.3 43.1999 138.8 81.5999 151.7 127.5C152.9 131.8 153.6 136.3 154.2 140.8C154.6 143.6 154.5 146.6 154.7 151Z" fill="white"/>
</mask>
<g mask="url(#mask67_210_2478)">
<path d="M154.5 116.9L154.6 118.7L0 130.7V128.9L154.5 116.9Z" fill="#619FC1"/>
</g>
<mask id="mask68_210_2478" style="mask-type:luminance" maskUnits="userSpaceOnUse" x="3" y="2" width="152" height="223">
<path d="M154.7 151C153 179.5 139.6 202.7 112.5 216.1C85.0001 229.7 57.7001 227.1 33.4001 208.4C9.8001 190.3 9.71556e-05 165.6 4.9001 135.9C9.7001 106.4 24.0001 80.6999 39.4001 55.7999C49.8001 39.0999 61.6001 23.3999 72.8001 7.19993C76.0001 2.49993 79.8001 -7.08103e-05 84.2001 5.79993C112.3 43.1999 138.8 81.5999 151.7 127.5C152.9 131.8 153.6 136.3 154.2 140.8C154.6 143.6 154.5 146.6 154.7 151Z" fill="white"/>
</mask>
<g mask="url(#mask68_210_2478)">
<path d="M154.6 118.7L154.7 119.2V120.4L0 132.5V130.7L154.6 118.7Z" fill="#619FC2"/>
</g>
<mask id="mask69_210_2478" style="mask-type:luminance" maskUnits="userSpaceOnUse" x="3" y="2" width="152" height="223">
<path d="M154.7 151C153 179.5 139.6 202.7 112.5 216.1C85.0001 229.7 57.7001 227.1 33.4001 208.4C9.8001 190.3 9.71556e-05 165.6 4.9001 135.9C9.7001 106.4 24.0001 80.6999 39.4001 55.7999C49.8001 39.0999 61.6001 23.3999 72.8001 7.19993C76.0001 2.49993 79.8001 -7.08103e-05 84.2001 5.79993C112.3 43.1999 138.8 81.5999 151.7 127.5C152.9 131.8 153.6 136.3 154.2 140.8C154.6 143.6 154.5 146.6 154.7 151Z" fill="white"/>
</mask>
<g mask="url(#mask69_210_2478)">
<path d="M154.7 122.2L0 134.2V132.5L154.7 120.4V122.2Z" fill="#61A0C2"/>
</g>
<mask id="mask70_210_2478" style="mask-type:luminance" maskUnits="userSpaceOnUse" x="3" y="2" width="152" height="223">
<path d="M154.7 151C153 179.5 139.6 202.7 112.5 216.1C85.0001 229.7 57.7001 227.1 33.4001 208.4C9.8001 190.3 9.71556e-05 165.6 4.9001 135.9C9.7001 106.4 24.0001 80.6999 39.4001 55.7999C49.8001 39.0999 61.6001 23.3999 72.8001 7.19993C76.0001 2.49993 79.8001 -7.08103e-05 84.2001 5.79993C112.3 43.1999 138.8 81.5999 151.7 127.5C152.9 131.8 153.6 136.3 154.2 140.8C154.6 143.6 154.5 146.6 154.7 151Z" fill="white"/>
</mask>
<g mask="url(#mask70_210_2478)">
<path d="M154.7 124L0 136V134.2L154.7 122.2V124Z" fill="#61A0C2"/>
</g>
<mask id="mask71_210_2478" style="mask-type:luminance" maskUnits="userSpaceOnUse" x="3" y="2" width="152" height="223">
<path d="M154.7 151C153 179.5 139.6 202.7 112.5 216.1C85.0001 229.7 57.7001 227.1 33.4001 208.4C9.8001 190.3 9.71556e-05 165.6 4.9001 135.9C9.7001 106.4 24.0001 80.6999 39.4001 55.7999C49.8001 39.0999 61.6001 23.3999 72.8001 7.19993C76.0001 2.49993 79.8001 -7.08103e-05 84.2001 5.79993C112.3 43.1999 138.8 81.5999 151.7 127.5C152.9 131.8 153.6 136.3 154.2 140.8C154.6 143.6 154.5 146.6 154.7 151Z" fill="white"/>
</mask>
<g mask="url(#mask71_210_2478)">
<path d="M154.7 125.7L0 137.8V136L154.7 124V125.7Z" fill="#61A1C2"/>
</g>
<mask id="mask72_210_2478" style="mask-type:luminance" maskUnits="userSpaceOnUse" x="3" y="2" width="152" height="223">
<path d="M154.7 151C153 179.5 139.6 202.7 112.5 216.1C85.0001 229.7 57.7001 227.1 33.4001 208.4C9.8001 190.3 9.71556e-05 165.6 4.9001 135.9C9.7001 106.4 24.0001 80.6999 39.4001 55.7999C49.8001 39.0999 61.6001 23.3999 72.8001 7.19993C76.0001 2.49993 79.8001 -7.08103e-05 84.2001 5.79993C112.3 43.1999 138.8 81.5999 151.7 127.5C152.9 131.8 153.6 136.3 154.2 140.8C154.6 143.6 154.5 146.6 154.7 151Z" fill="white"/>
</mask>
<g mask="url(#mask72_210_2478)">
<path d="M154.7 127.5L0 139.6V137.8L154.7 125.7V127.5Z" fill="#61A2C2"/>
</g>
<mask id="mask73_210_2478" style="mask-type:luminance" maskUnits="userSpaceOnUse" x="3" y="2" width="152" height="223">
<path d="M154.7 151C153 179.5 139.6 202.7 112.5 216.1C85.0001 229.7 57.7001 227.1 33.4001 208.4C9.8001 190.3 9.71556e-05 165.6 4.9001 135.9C9.7001 106.4 24.0001 80.6999 39.4001 55.7999C49.8001 39.0999 61.6001 23.3999 72.8001 7.19993C76.0001 2.49993 79.8001 -7.08103e-05 84.2001 5.79993C112.3 43.1999 138.8 81.5999 151.7 127.5C152.9 131.8 153.6 136.3 154.2 140.8C154.6 143.6 154.5 146.6 154.7 151Z" fill="white"/>
</mask>
<g mask="url(#mask73_210_2478)">
<path d="M154.7 129.3L0 141.3V139.6L154.7 127.5V129.3Z" fill="#61A2C2"/>
</g>
<mask id="mask74_210_2478" style="mask-type:luminance" maskUnits="userSpaceOnUse" x="3" y="2" width="152" height="223">
<path d="M154.7 151C153 179.5 139.6 202.7 112.5 216.1C85.0001 229.7 57.7001 227.1 33.4001 208.4C9.8001 190.3 9.71556e-05 165.6 4.9001 135.9C9.7001 106.4 24.0001 80.6999 39.4001 55.7999C49.8001 39.0999 61.6001 23.3999 72.8001 7.19993C76.0001 2.49993 79.8001 -7.08103e-05 84.2001 5.79993C112.3 43.1999 138.8 81.5999 151.7 127.5C152.9 131.8 153.6 136.3 154.2 140.8C154.6 143.6 154.5 146.6 154.7 151Z" fill="white"/>
</mask>
<g mask="url(#mask74_210_2478)">
<path d="M154.7 131L0 143.1V141.3L154.7 129.3V131Z" fill="#61A3C2"/>
</g>
<mask id="mask75_210_2478" style="mask-type:luminance" maskUnits="userSpaceOnUse" x="3" y="2" width="152" height="223">
<path d="M154.7 151C153 179.5 139.6 202.7 112.5 216.1C85.0001 229.7 57.7001 227.1 33.4001 208.4C9.8001 190.3 9.71556e-05 165.6 4.9001 135.9C9.7001 106.4 24.0001 80.6999 39.4001 55.7999C49.8001 39.0999 61.6001 23.3999 72.8001 7.19993C76.0001 2.49993 79.8001 -7.08103e-05 84.2001 5.79993C112.3 43.1999 138.8 81.5999 151.7 127.5C152.9 131.8 153.6 136.3 154.2 140.8C154.6 143.6 154.5 146.6 154.7 151Z" fill="white"/>
</mask>
<g mask="url(#mask75_210_2478)">
<path d="M154.7 132.8L0 144.9V143.1L154.7 131V132.8Z" fill="#61A3C2"/>
</g>
<mask id="mask76_210_2478" style="mask-type:luminance" maskUnits="userSpaceOnUse" x="3" y="2" width="152" height="223">
<path d="M154.7 151C153 179.5 139.6 202.7 112.5 216.1C85.0001 229.7 57.7001 227.1 33.4001 208.4C9.8001 190.3 9.71556e-05 165.6 4.9001 135.9C9.7001 106.4 24.0001 80.6999 39.4001 55.7999C49.8001 39.0999 61.6001 23.3999 72.8001 7.19993C76.0001 2.49993 79.8001 -7.08103e-05 84.2001 5.79993C112.3 43.1999 138.8 81.5999 151.7 127.5C152.9 131.8 153.6 136.3 154.2 140.8C154.6 143.6 154.5 146.6 154.7 151Z" fill="white"/>
</mask>
<g mask="url(#mask76_210_2478)">
<path d="M154.7 134.6L0 146.6V144.9L154.7 132.8V134.6Z" fill="#61A4C2"/>
</g>
<mask id="mask77_210_2478" style="mask-type:luminance" maskUnits="userSpaceOnUse" x="3" y="2" width="152" height="223">
<path d="M154.7 151C153 179.5 139.6 202.7 112.5 216.1C85.0001 229.7 57.7001 227.1 33.4001 208.4C9.8001 190.3 9.71556e-05 165.6 4.9001 135.9C9.7001 106.4 24.0001 80.6999 39.4001 55.7999C49.8001 39.0999 61.6001 23.3999 72.8001 7.19993C76.0001 2.49993 79.8001 -7.08103e-05 84.2001 5.79993C112.3 43.1999 138.8 81.5999 151.7 127.5C152.9 131.8 153.6 136.3 154.2 140.8C154.6 143.6 154.5 146.6 154.7 151Z" fill="white"/>
</mask>
<g mask="url(#mask77_210_2478)">
<path d="M154.7 136.4L0 148.4V146.6L154.7 134.6V136.4Z" fill="#61A5C2"/>
</g>
<mask id="mask78_210_2478" style="mask-type:luminance" maskUnits="userSpaceOnUse" x="3" y="2" width="152" height="223">
<path d="M154.7 151C153 179.5 139.6 202.7 112.5 216.1C85.0001 229.7 57.7001 227.1 33.4001 208.4C9.8001 190.3 9.71556e-05 165.6 4.9001 135.9C9.7001 106.4 24.0001 80.6999 39.4001 55.7999C49.8001 39.0999 61.6001 23.3999 72.8001 7.19993C76.0001 2.49993 79.8001 -7.08103e-05 84.2001 5.79993C112.3 43.1999 138.8 81.5999 151.7 127.5C152.9 131.8 153.6 136.3 154.2 140.8C154.6 143.6 154.5 146.6 154.7 151Z" fill="white"/>
</mask>
<g mask="url(#mask78_210_2478)">
<path d="M154.7 138.1L0 150.2V148.4L154.7 136.4V138.1Z" fill="#61A5C2"/>
</g>
<mask id="mask79_210_2478" style="mask-type:luminance" maskUnits="userSpaceOnUse" x="3" y="2" width="152" height="223">
<path d="M154.7 151C153 179.5 139.6 202.7 112.5 216.1C85.0001 229.7 57.7001 227.1 33.4001 208.4C9.8001 190.3 9.71556e-05 165.6 4.9001 135.9C9.7001 106.4 24.0001 80.6999 39.4001 55.7999C49.8001 39.0999 61.6001 23.3999 72.8001 7.19993C76.0001 2.49993 79.8001 -7.08103e-05 84.2001 5.79993C112.3 43.1999 138.8 81.5999 151.7 127.5C152.9 131.8 153.6 136.3 154.2 140.8C154.6 143.6 154.5 146.6 154.7 151Z" fill="white"/>
</mask>
<g mask="url(#mask79_210_2478)">
<path d="M154.7 139.9L0 151.9V150.2L154.7 138.1V139.9Z" fill="#61A6C3"/>
</g>
<mask id="mask80_210_2478" style="mask-type:luminance" maskUnits="userSpaceOnUse" x="3" y="2" width="152" height="223">
<path d="M154.7 151C153 179.5 139.6 202.7 112.5 216.1C85.0001 229.7 57.7001 227.1 33.4001 208.4C9.8001 190.3 9.71556e-05 165.6 4.9001 135.9C9.7001 106.4 24.0001 80.6999 39.4001 55.7999C49.8001 39.0999 61.6001 23.3999 72.8001 7.19993C76.0001 2.49993 79.8001 -7.08103e-05 84.2001 5.79993C112.3 43.1999 138.8 81.5999 151.7 127.5C152.9 131.8 153.6 136.3 154.2 140.8C154.6 143.6 154.5 146.6 154.7 151Z" fill="white"/>
</mask>
<g mask="url(#mask80_210_2478)">
<path d="M154.7 141.7L0 153.7V151.9L154.7 139.9V141.7Z" fill="#61A6C3"/>
</g>
<mask id="mask81_210_2478" style="mask-type:luminance" maskUnits="userSpaceOnUse" x="3" y="2" width="152" height="223">
<path d="M154.7 151C153 179.5 139.6 202.7 112.5 216.1C85.0001 229.7 57.7001 227.1 33.4001 208.4C9.8001 190.3 9.71556e-05 165.6 4.9001 135.9C9.7001 106.4 24.0001 80.6999 39.4001 55.7999C49.8001 39.0999 61.6001 23.3999 72.8001 7.19993C76.0001 2.49993 79.8001 -7.08103e-05 84.2001 5.79993C112.3 43.1999 138.8 81.5999 151.7 127.5C152.9 131.8 153.6 136.3 154.2 140.8C154.6 143.6 154.5 146.6 154.7 151Z" fill="white"/>
</mask>
<g mask="url(#mask81_210_2478)">
<path d="M154.7 143.4L0 155.5V153.7L154.7 141.7V143.4Z" fill="#61A7C3"/>
</g>
<mask id="mask82_210_2478" style="mask-type:luminance" maskUnits="userSpaceOnUse" x="3" y="2" width="152" height="223">
<path d="M154.7 151C153 179.5 139.6 202.7 112.5 216.1C85.0001 229.7 57.7001 227.1 33.4001 208.4C9.8001 190.3 9.71556e-05 165.6 4.9001 135.9C9.7001 106.4 24.0001 80.6999 39.4001 55.7999C49.8001 39.0999 61.6001 23.3999 72.8001 7.19993C76.0001 2.49993 79.8001 -7.08103e-05 84.2001 5.79993C112.3 43.1999 138.8 81.5999 151.7 127.5C152.9 131.8 153.6 136.3 154.2 140.8C154.6 143.6 154.5 146.6 154.7 151Z" fill="white"/>
</mask>
<g mask="url(#mask82_210_2478)">
<path d="M154.7 145.2L0 157.2V155.5L154.7 143.4V145.2Z" fill="#61A7C3"/>
</g>
<mask id="mask83_210_2478" style="mask-type:luminance" maskUnits="userSpaceOnUse" x="3" y="2" width="152" height="223">
<path d="M154.7 151C153 179.5 139.6 202.7 112.5 216.1C85.0001 229.7 57.7001 227.1 33.4001 208.4C9.8001 190.3 9.71556e-05 165.6 4.9001 135.9C9.7001 106.4 24.0001 80.6999 39.4001 55.7999C49.8001 39.0999 61.6001 23.3999 72.8001 7.19993C76.0001 2.49993 79.8001 -7.08103e-05 84.2001 5.79993C112.3 43.1999 138.8 81.5999 151.7 127.5C152.9 131.8 153.6 136.3 154.2 140.8C154.6 143.6 154.5 146.6 154.7 151Z" fill="white"/>
</mask>
<g mask="url(#mask83_210_2478)">
<path d="M154.7 147L0 159V157.2L154.7 145.2V147Z" fill="#61A8C3"/>
</g>
<mask id="mask84_210_2478" style="mask-type:luminance" maskUnits="userSpaceOnUse" x="3" y="2" width="152" height="223">
<path d="M154.7 151C153 179.5 139.6 202.7 112.5 216.1C85.0001 229.7 57.7001 227.1 33.4001 208.4C9.8001 190.3 9.71556e-05 165.6 4.9001 135.9C9.7001 106.4 24.0001 80.6999 39.4001 55.7999C49.8001 39.0999 61.6001 23.3999 72.8001 7.19993C76.0001 2.49993 79.8001 -7.08103e-05 84.2001 5.79993C112.3 43.1999 138.8 81.5999 151.7 127.5C152.9 131.8 153.6 136.3 154.2 140.8C154.6 143.6 154.5 146.6 154.7 151Z" fill="white"/>
</mask>
<g mask="url(#mask84_210_2478)">
<path d="M154.7 148.7L0 160.8V159L154.7 147V148.7Z" fill="#61A9C3"/>
</g>
<mask id="mask85_210_2478" style="mask-type:luminance" maskUnits="userSpaceOnUse" x="3" y="2" width="152" height="223">
<path d="M154.7 151C153 179.5 139.6 202.7 112.5 216.1C85.0001 229.7 57.7001 227.1 33.4001 208.4C9.8001 190.3 9.71556e-05 165.6 4.9001 135.9C9.7001 106.4 24.0001 80.6999 39.4001 55.7999C49.8001 39.0999 61.6001 23.3999 72.8001 7.19993C76.0001 2.49993 79.8001 -7.08103e-05 84.2001 5.79993C112.3 43.1999 138.8 81.5999 151.7 127.5C152.9 131.8 153.6 136.3 154.2 140.8C154.6 143.6 154.5 146.6 154.7 151Z" fill="white"/>
</mask>
<g mask="url(#mask85_210_2478)">
<path d="M154.7 150.5L0 162.6V160.8L154.7 148.7V150.5Z" fill="#61A9C3"/>
</g>
<mask id="mask86_210_2478" style="mask-type:luminance" maskUnits="userSpaceOnUse" x="3" y="2" width="152" height="223">
<path d="M154.7 151C153 179.5 139.6 202.7 112.5 216.1C85.0001 229.7 57.7001 227.1 33.4001 208.4C9.8001 190.3 9.71556e-05 165.6 4.9001 135.9C9.7001 106.4 24.0001 80.6999 39.4001 55.7999C49.8001 39.0999 61.6001 23.3999 72.8001 7.19993C76.0001 2.49993 79.8001 -7.08103e-05 84.2001 5.79993C112.3 43.1999 138.8 81.5999 151.7 127.5C152.9 131.8 153.6 136.3 154.2 140.8C154.6 143.6 154.5 146.6 154.7 151Z" fill="white"/>
</mask>
<g mask="url(#mask86_210_2478)">
<path d="M154.7 152.3L0 164.3V162.6L154.7 150.5V152.3Z" fill="#61AAC3"/>
</g>
<mask id="mask87_210_2478" style="mask-type:luminance" maskUnits="userSpaceOnUse" x="3" y="2" width="152" height="223">
<path d="M154.7 151C153 179.5 139.6 202.7 112.5 216.1C85.0001 229.7 57.7001 227.1 33.4001 208.4C9.8001 190.3 9.71556e-05 165.6 4.9001 135.9C9.7001 106.4 24.0001 80.6999 39.4001 55.7999C49.8001 39.0999 61.6001 23.3999 72.8001 7.19993C76.0001 2.49993 79.8001 -7.08103e-05 84.2001 5.79993C112.3 43.1999 138.8 81.5999 151.7 127.5C152.9 131.8 153.6 136.3 154.2 140.8C154.6 143.6 154.5 146.6 154.7 151Z" fill="white"/>
</mask>
<g mask="url(#mask87_210_2478)">
<path d="M154.7 154.1L0 166.1V164.3L154.7 152.3V154.1Z" fill="#61AAC3"/>
</g>
<mask id="mask88_210_2478" style="mask-type:luminance" maskUnits="userSpaceOnUse" x="3" y="2" width="152" height="223">
<path d="M154.7 151C153 179.5 139.6 202.7 112.5 216.1C85.0001 229.7 57.7001 227.1 33.4001 208.4C9.8001 190.3 9.71556e-05 165.6 4.9001 135.9C9.7001 106.4 24.0001 80.6999 39.4001 55.7999C49.8001 39.0999 61.6001 23.3999 72.8001 7.19993C76.0001 2.49993 79.8001 -7.08103e-05 84.2001 5.79993C112.3 43.1999 138.8 81.5999 151.7 127.5C152.9 131.8 153.6 136.3 154.2 140.8C154.6 143.6 154.5 146.6 154.7 151Z" fill="white"/>
</mask>
<g mask="url(#mask88_210_2478)">
<path d="M154.7 155.8L0 167.9V166.1L154.7 154.1V155.8Z" fill="#61ABC3"/>
</g>
<mask id="mask89_210_2478" style="mask-type:luminance" maskUnits="userSpaceOnUse" x="3" y="2" width="152" height="223">
<path d="M154.7 151C153 179.5 139.6 202.7 112.5 216.1C85.0001 229.7 57.7001 227.1 33.4001 208.4C9.8001 190.3 9.71556e-05 165.6 4.9001 135.9C9.7001 106.4 24.0001 80.6999 39.4001 55.7999C49.8001 39.0999 61.6001 23.3999 72.8001 7.19993C76.0001 2.49993 79.8001 -7.08103e-05 84.2001 5.79993C112.3 43.1999 138.8 81.5999 151.7 127.5C152.9 131.8 153.6 136.3 154.2 140.8C154.6 143.6 154.5 146.6 154.7 151Z" fill="white"/>
</mask>
<g mask="url(#mask89_210_2478)">
<path d="M154.7 157.6L0 169.6V167.9L154.7 155.8V157.6Z" fill="#61ABC3"/>
</g>
<mask id="mask90_210_2478" style="mask-type:luminance" maskUnits="userSpaceOnUse" x="3" y="2" width="152" height="223">
<path d="M154.7 151C153 179.5 139.6 202.7 112.5 216.1C85.0001 229.7 57.7001 227.1 33.4001 208.4C9.8001 190.3 9.71556e-05 165.6 4.9001 135.9C9.7001 106.4 24.0001 80.6999 39.4001 55.7999C49.8001 39.0999 61.6001 23.3999 72.8001 7.19993C76.0001 2.49993 79.8001 -7.08103e-05 84.2001 5.79993C112.3 43.1999 138.8 81.5999 151.7 127.5C152.9 131.8 153.6 136.3 154.2 140.8C154.6 143.6 154.5 146.6 154.7 151Z" fill="white"/>
</mask>
<g mask="url(#mask90_210_2478)">
<path d="M154.7 159.4L0 171.4V169.6L154.7 157.6V159.4Z" fill="#61ACC3"/>
</g>
<mask id="mask91_210_2478" style="mask-type:luminance" maskUnits="userSpaceOnUse" x="3" y="2" width="152" height="223">
<path d="M154.7 151C153 179.5 139.6 202.7 112.5 216.1C85.0001 229.7 57.7001 227.1 33.4001 208.4C9.8001 190.3 9.71556e-05 165.6 4.9001 135.9C9.7001 106.4 24.0001 80.6999 39.4001 55.7999C49.8001 39.0999 61.6001 23.3999 72.8001 7.19993C76.0001 2.49993 79.8001 -7.08103e-05 84.2001 5.79993C112.3 43.1999 138.8 81.5999 151.7 127.5C152.9 131.8 153.6 136.3 154.2 140.8C154.6 143.6 154.5 146.6 154.7 151Z" fill="white"/>
</mask>
<g mask="url(#mask91_210_2478)">
<path d="M154.7 161.1L0 173.2V171.4L154.7 159.4V161.1Z" fill="#61ADC3"/>
</g>
<mask id="mask92_210_2478" style="mask-type:luminance" maskUnits="userSpaceOnUse" x="3" y="2" width="152" height="223">
<path d="M154.7 151C153 179.5 139.6 202.7 112.5 216.1C85.0001 229.7 57.7001 227.1 33.4001 208.4C9.8001 190.3 9.71556e-05 165.6 4.9001 135.9C9.7001 106.4 24.0001 80.6999 39.4001 55.7999C49.8001 39.0999 61.6001 23.3999 72.8001 7.19993C76.0001 2.49993 79.8001 -7.08103e-05 84.2001 5.79993C112.3 43.1999 138.8 81.5999 151.7 127.5C152.9 131.8 153.6 136.3 154.2 140.8C154.6 143.6 154.5 146.6 154.7 151Z" fill="white"/>
</mask>
<g mask="url(#mask92_210_2478)">
<path d="M154.7 162.9L0 174.9V173.2L154.7 161.1V162.9Z" fill="#61ADC3"/>
</g>
<mask id="mask93_210_2478" style="mask-type:luminance" maskUnits="userSpaceOnUse" x="3" y="2" width="152" height="223">
<path d="M154.7 151C153 179.5 139.6 202.7 112.5 216.1C85.0001 229.7 57.7001 227.1 33.4001 208.4C9.8001 190.3 9.71556e-05 165.6 4.9001 135.9C9.7001 106.4 24.0001 80.6999 39.4001 55.7999C49.8001 39.0999 61.6001 23.3999 72.8001 7.19993C76.0001 2.49993 79.8001 -7.08103e-05 84.2001 5.79993C112.3 43.1999 138.8 81.5999 151.7 127.5C152.9 131.8 153.6 136.3 154.2 140.8C154.6 143.6 154.5 146.6 154.7 151Z" fill="white"/>
</mask>
<g mask="url(#mask93_210_2478)">
<path d="M154.7 164.7L0 176.7V174.9L154.7 162.9V164.7Z" fill="#61AEC4"/>
</g>
<mask id="mask94_210_2478" style="mask-type:luminance" maskUnits="userSpaceOnUse" x="3" y="2" width="152" height="223">
<path d="M154.7 151C153 179.5 139.6 202.7 112.5 216.1C85.0001 229.7 57.7001 227.1 33.4001 208.4C9.8001 190.3 9.71556e-05 165.6 4.9001 135.9C9.7001 106.4 24.0001 80.6999 39.4001 55.7999C49.8001 39.0999 61.6001 23.3999 72.8001 7.19993C76.0001 2.49993 79.8001 -7.08103e-05 84.2001 5.79993C112.3 43.1999 138.8 81.5999 151.7 127.5C152.9 131.8 153.6 136.3 154.2 140.8C154.6 143.6 154.5 146.6 154.7 151Z" fill="white"/>
</mask>
<g mask="url(#mask94_210_2478)">
<path d="M154.7 166.4L0 178.5V176.7L154.7 164.7V166.4Z" fill="#61AEC4"/>
</g>
<mask id="mask95_210_2478" style="mask-type:luminance" maskUnits="userSpaceOnUse" x="3" y="2" width="152" height="223">
<path d="M154.7 151C153 179.5 139.6 202.7 112.5 216.1C85.0001 229.7 57.7001 227.1 33.4001 208.4C9.8001 190.3 9.71556e-05 165.6 4.9001 135.9C9.7001 106.4 24.0001 80.6999 39.4001 55.7999C49.8001 39.0999 61.6001 23.3999 72.8001 7.19993C76.0001 2.49993 79.8001 -7.08103e-05 84.2001 5.79993C112.3 43.1999 138.8 81.5999 151.7 127.5C152.9 131.8 153.6 136.3 154.2 140.8C154.6 143.6 154.5 146.6 154.7 151Z" fill="white"/>
</mask>
<g mask="url(#mask95_210_2478)">
<path d="M154.7 168.2L0 180.3V178.5L154.7 166.4V168.2Z" fill="#61AFC4"/>
</g>
<mask id="mask96_210_2478" style="mask-type:luminance" maskUnits="userSpaceOnUse" x="3" y="2" width="152" height="223">
<path d="M154.7 151C153 179.5 139.6 202.7 112.5 216.1C85.0001 229.7 57.7001 227.1 33.4001 208.4C9.8001 190.3 9.71556e-05 165.6 4.9001 135.9C9.7001 106.4 24.0001 80.6999 39.4001 55.7999C49.8001 39.0999 61.6001 23.3999 72.8001 7.19993C76.0001 2.49993 79.8001 -7.08103e-05 84.2001 5.79993C112.3 43.1999 138.8 81.5999 151.7 127.5C152.9 131.8 153.6 136.3 154.2 140.8C154.6 143.6 154.5 146.6 154.7 151Z" fill="white"/>
</mask>
<g mask="url(#mask96_210_2478)">
<path d="M154.7 170L0 182V180.3L154.7 168.2V170Z" fill="#61AFC4"/>
</g>
<mask id="mask97_210_2478" style="mask-type:luminance" maskUnits="userSpaceOnUse" x="3" y="2" width="152" height="223">
<path d="M154.7 151C153 179.5 139.6 202.7 112.5 216.1C85.0001 229.7 57.7001 227.1 33.4001 208.4C9.8001 190.3 9.71556e-05 165.6 4.9001 135.9C9.7001 106.4 24.0001 80.6999 39.4001 55.7999C49.8001 39.0999 61.6001 23.3999 72.8001 7.19993C76.0001 2.49993 79.8001 -7.08103e-05 84.2001 5.79993C112.3 43.1999 138.8 81.5999 151.7 127.5C152.9 131.8 153.6 136.3 154.2 140.8C154.6 143.6 154.5 146.6 154.7 151Z" fill="white"/>
</mask>
<g mask="url(#mask97_210_2478)">
<path d="M154.7 171.7L0 183.8V182L154.7 170V171.7Z" fill="#61B0C4"/>
</g>
<mask id="mask98_210_2478" style="mask-type:luminance" maskUnits="userSpaceOnUse" x="3" y="2" width="152" height="223">
<path d="M154.7 151C153 179.5 139.6 202.7 112.5 216.1C85.0001 229.7 57.7001 227.1 33.4001 208.4C9.8001 190.3 9.71556e-05 165.6 4.9001 135.9C9.7001 106.4 24.0001 80.6999 39.4001 55.7999C49.8001 39.0999 61.6001 23.3999 72.8001 7.19993C76.0001 2.49993 79.8001 -7.08103e-05 84.2001 5.79993C112.3 43.1999 138.8 81.5999 151.7 127.5C152.9 131.8 153.6 136.3 154.2 140.8C154.6 143.6 154.5 146.6 154.7 151Z" fill="white"/>
</mask>
<g mask="url(#mask98_210_2478)">
<path d="M154.7 173.5L0 185.6V183.8L154.7 171.7V173.5Z" fill="#61B1C4"/>
</g>
<mask id="mask99_210_2478" style="mask-type:luminance" maskUnits="userSpaceOnUse" x="3" y="2" width="152" height="223">
<path d="M154.7 151C153 179.5 139.6 202.7 112.5 216.1C85.0001 229.7 57.7001 227.1 33.4001 208.4C9.8001 190.3 9.71556e-05 165.6 4.9001 135.9C9.7001 106.4 24.0001 80.6999 39.4001 55.7999C49.8001 39.0999 61.6001 23.3999 72.8001 7.19993C76.0001 2.49993 79.8001 -7.08103e-05 84.2001 5.79993C112.3 43.1999 138.8 81.5999 151.7 127.5C152.9 131.8 153.6 136.3 154.2 140.8C154.6 143.6 154.5 146.6 154.7 151Z" fill="white"/>
</mask>
<g mask="url(#mask99_210_2478)">
<path d="M154.7 175.3L0 187.3V185.6L154.7 173.5V175.3Z" fill="#61B1C4"/>
</g>
<mask id="mask100_210_2478" style="mask-type:luminance" maskUnits="userSpaceOnUse" x="3" y="2" width="152" height="223">
<path d="M154.7 151C153 179.5 139.6 202.7 112.5 216.1C85.0001 229.7 57.7001 227.1 33.4001 208.4C9.8001 190.3 9.71556e-05 165.6 4.9001 135.9C9.7001 106.4 24.0001 80.6999 39.4001 55.7999C49.8001 39.0999 61.6001 23.3999 72.8001 7.19993C76.0001 2.49993 79.8001 -7.08103e-05 84.2001 5.79993C112.3 43.1999 138.8 81.5999 151.7 127.5C152.9 131.8 153.6 136.3 154.2 140.8C154.6 143.6 154.5 146.6 154.7 151Z" fill="white"/>
</mask>
<g mask="url(#mask100_210_2478)">
<path d="M154.7 177.1L0 189.1V187.3L154.7 175.3V177.1Z" fill="#61B2C4"/>
</g>
<mask id="mask101_210_2478" style="mask-type:luminance" maskUnits="userSpaceOnUse" x="3" y="2" width="152" height="223">
<path d="M154.7 151C153 179.5 139.6 202.7 112.5 216.1C85.0001 229.7 57.7001 227.1 33.4001 208.4C9.8001 190.3 9.71556e-05 165.6 4.9001 135.9C9.7001 106.4 24.0001 80.6999 39.4001 55.7999C49.8001 39.0999 61.6001 23.3999 72.8001 7.19993C76.0001 2.49993 79.8001 -7.08103e-05 84.2001 5.79993C112.3 43.1999 138.8 81.5999 151.7 127.5C152.9 131.8 153.6 136.3 154.2 140.8C154.6 143.6 154.5 146.6 154.7 151Z" fill="white"/>
</mask>
<g mask="url(#mask101_210_2478)">
<path d="M154.7 178.8L0 190.9V189.1L154.7 177.1V178.8Z" fill="#61B2C4"/>
</g>
<mask id="mask102_210_2478" style="mask-type:luminance" maskUnits="userSpaceOnUse" x="3" y="2" width="152" height="223">
<path d="M154.7 151C153 179.5 139.6 202.7 112.5 216.1C85.0001 229.7 57.7001 227.1 33.4001 208.4C9.8001 190.3 9.71556e-05 165.6 4.9001 135.9C9.7001 106.4 24.0001 80.6999 39.4001 55.7999C49.8001 39.0999 61.6001 23.3999 72.8001 7.19993C76.0001 2.49993 79.8001 -7.08103e-05 84.2001 5.79993C112.3 43.1999 138.8 81.5999 151.7 127.5C152.9 131.8 153.6 136.3 154.2 140.8C154.6 143.6 154.5 146.6 154.7 151Z" fill="white"/>
</mask>
<g mask="url(#mask102_210_2478)">
<path d="M154.7 180.6L0.1 192.6L0 191.4V190.9L154.7 178.8V180.6Z" fill="#60B3C4"/>
</g>
<mask id="mask103_210_2478" style="mask-type:luminance" maskUnits="userSpaceOnUse" x="3" y="2" width="152" height="223">
<path d="M154.7 151C153 179.5 139.6 202.7 112.5 216.1C85.0001 229.7 57.7001 227.1 33.4001 208.4C9.8001 190.3 9.71556e-05 165.6 4.9001 135.9C9.7001 106.4 24.0001 80.6999 39.4001 55.7999C49.8001 39.0999 61.6001 23.3999 72.8001 7.19993C76.0001 2.49993 79.8001 -7.08103e-05 84.2001 5.79993C112.3 43.1999 138.8 81.5999 151.7 127.5C152.9 131.8 153.6 136.3 154.2 140.8C154.6 143.6 154.5 146.6 154.7 151Z" fill="white"/>
</mask>
<g mask="url(#mask103_210_2478)">
<path d="M154.7 182.4L0.200098 194.4L0.100098 192.6L154.7 180.6V182.4Z" fill="#60B3C4"/>
</g>
<mask id="mask104_210_2478" style="mask-type:luminance" maskUnits="userSpaceOnUse" x="3" y="2" width="152" height="223">
<path d="M154.7 151C153 179.5 139.6 202.7 112.5 216.1C85.0001 229.7 57.7001 227.1 33.4001 208.4C9.8001 190.3 9.71556e-05 165.6 4.9001 135.9C9.7001 106.4 24.0001 80.6999 39.4001 55.7999C49.8001 39.0999 61.6001 23.3999 72.8001 7.19993C76.0001 2.49993 79.8001 -7.08103e-05 84.2001 5.79993C112.3 43.1999 138.8 81.5999 151.7 127.5C152.9 131.8 153.6 136.3 154.2 140.8C154.6 143.6 154.5 146.6 154.7 151Z" fill="white"/>
</mask>
<g mask="url(#mask104_210_2478)">
<path d="M154.7 184.1L0.400195 196.2L0.200195 194.4L154.7 182.4V184.1Z" fill="#60B4C4"/>
</g>
<mask id="mask105_210_2478" style="mask-type:luminance" maskUnits="userSpaceOnUse" x="3" y="2" width="152" height="223">
<path d="M154.7 151C153 179.5 139.6 202.7 112.5 216.1C85.0001 229.7 57.7001 227.1 33.4001 208.4C9.8001 190.3 9.71556e-05 165.6 4.9001 135.9C9.7001 106.4 24.0001 80.6999 39.4001 55.7999C49.8001 39.0999 61.6001 23.3999 72.8001 7.19993C76.0001 2.49993 79.8001 -7.08103e-05 84.2001 5.79993C112.3 43.1999 138.8 81.5999 151.7 127.5C152.9 131.8 153.6 136.3 154.2 140.8C154.6 143.6 154.5 146.6 154.7 151Z" fill="white"/>
</mask>
<g mask="url(#mask105_210_2478)">
<path d="M154.7 185.9L0.499902 197.9L0.399902 196.2L154.7 184.1V185.9Z" fill="#60B5C4"/>
</g>
<mask id="mask106_210_2478" style="mask-type:luminance" maskUnits="userSpaceOnUse" x="3" y="2" width="152" height="223">
<path d="M154.7 151C153 179.5 139.6 202.7 112.5 216.1C85.0001 229.7 57.7001 227.1 33.4001 208.4C9.8001 190.3 9.71556e-05 165.6 4.9001 135.9C9.7001 106.4 24.0001 80.6999 39.4001 55.7999C49.8001 39.0999 61.6001 23.3999 72.8001 7.19993C76.0001 2.49993 79.8001 -7.08103e-05 84.2001 5.79993C112.3 43.1999 138.8 81.5999 151.7 127.5C152.9 131.8 153.6 136.3 154.2 140.8C154.6 143.6 154.5 146.6 154.7 151Z" fill="white"/>
</mask>
<g mask="url(#mask106_210_2478)">
<path d="M154.7 187.7L0.6 199.7L0.5 197.9L154.7 185.9V187.7Z" fill="#60B5C4"/>
</g>
<mask id="mask107_210_2478" style="mask-type:luminance" maskUnits="userSpaceOnUse" x="3" y="2" width="152" height="223">
<path d="M154.7 151C153 179.5 139.6 202.7 112.5 216.1C85.0001 229.7 57.7001 227.1 33.4001 208.4C9.8001 190.3 9.71556e-05 165.6 4.9001 135.9C9.7001 106.4 24.0001 80.6999 39.4001 55.7999C49.8001 39.0999 61.6001 23.3999 72.8001 7.19993C76.0001 2.49993 79.8001 -7.08103e-05 84.2001 5.79993C112.3 43.1999 138.8 81.5999 151.7 127.5C152.9 131.8 153.6 136.3 154.2 140.8C154.6 143.6 154.5 146.6 154.7 151Z" fill="white"/>
</mask>
<g mask="url(#mask107_210_2478)">
<path d="M154.7 189.4L0.800098 201.4L0.600098 199.7L154.7 187.7V189.4Z" fill="#60B6C4"/>
</g>
<mask id="mask108_210_2478" style="mask-type:luminance" maskUnits="userSpaceOnUse" x="3" y="2" width="152" height="223">
<path d="M154.7 151C153 179.5 139.6 202.7 112.5 216.1C85.0001 229.7 57.7001 227.1 33.4001 208.4C9.8001 190.3 9.71556e-05 165.6 4.9001 135.9C9.7001 106.4 24.0001 80.6999 39.4001 55.7999C49.8001 39.0999 61.6001 23.3999 72.8001 7.19993C76.0001 2.49993 79.8001 -7.08103e-05 84.2001 5.79993C112.3 43.1999 138.8 81.5999 151.7 127.5C152.9 131.8 153.6 136.3 154.2 140.8C154.6 143.6 154.5 146.6 154.7 151Z" fill="white"/>
</mask>
<g mask="url(#mask108_210_2478)">
<path d="M154.7 191.2L0.900293 203.2L0.800293 201.4L154.7 189.4V191.2Z" fill="#60B6C4"/>
</g>
<mask id="mask109_210_2478" style="mask-type:luminance" maskUnits="userSpaceOnUse" x="3" y="2" width="152" height="223">
<path d="M154.7 151C153 179.5 139.6 202.7 112.5 216.1C85.0001 229.7 57.7001 227.1 33.4001 208.4C9.8001 190.3 9.71556e-05 165.6 4.9001 135.9C9.7001 106.4 24.0001 80.6999 39.4001 55.7999C49.8001 39.0999 61.6001 23.3999 72.8001 7.19993C76.0001 2.49993 79.8001 -7.08103e-05 84.2001 5.79993C112.3 43.1999 138.8 81.5999 151.7 127.5C152.9 131.8 153.6 136.3 154.2 140.8C154.6 143.6 154.5 146.6 154.7 151Z" fill="white"/>
</mask>
<g mask="url(#mask109_210_2478)">
<path d="M154.7 193L1.0999 204.9L0.899902 203.2L154.7 191.2V193Z" fill="#60B7C4"/>
</g>
<mask id="mask110_210_2478" style="mask-type:luminance" maskUnits="userSpaceOnUse" x="3" y="2" width="152" height="223">
<path d="M154.7 151C153 179.5 139.6 202.7 112.5 216.1C85.0001 229.7 57.7001 227.1 33.4001 208.4C9.8001 190.3 9.71556e-05 165.6 4.9001 135.9C9.7001 106.4 24.0001 80.6999 39.4001 55.7999C49.8001 39.0999 61.6001 23.3999 72.8001 7.19993C76.0001 2.49993 79.8001 -7.08103e-05 84.2001 5.79993C112.3 43.1999 138.8 81.5999 151.7 127.5C152.9 131.8 153.6 136.3 154.2 140.8C154.6 143.6 154.5 146.6 154.7 151Z" fill="white"/>
</mask>
<g mask="url(#mask110_210_2478)">
<path d="M154.7 194.8L1.2001 206.7L1.1001 204.9L154.7 193V194.8Z" fill="#60B8C4"/>
</g>
<mask id="mask111_210_2478" style="mask-type:luminance" maskUnits="userSpaceOnUse" x="3" y="2" width="152" height="223">
<path d="M154.7 151C153 179.5 139.6 202.7 112.5 216.1C85.0001 229.7 57.7001 227.1 33.4001 208.4C9.8001 190.3 9.71556e-05 165.6 4.9001 135.9C9.7001 106.4 24.0001 80.6999 39.4001 55.7999C49.8001 39.0999 61.6001 23.3999 72.8001 7.19993C76.0001 2.49993 79.8001 -7.08103e-05 84.2001 5.79993C112.3 43.1999 138.8 81.5999 151.7 127.5C152.9 131.8 153.6 136.3 154.2 140.8C154.6 143.6 154.5 146.6 154.7 151Z" fill="white"/>
</mask>
<g mask="url(#mask111_210_2478)">
<path d="M154.7 196.5L1.3002 208.5L1.2002 206.7L154.7 194.8V196.5Z" fill="#60B8C4"/>
</g>
<mask id="mask112_210_2478" style="mask-type:luminance" maskUnits="userSpaceOnUse" x="3" y="2" width="152" height="223">
<path d="M154.7 151C153 179.5 139.6 202.7 112.5 216.1C85.0001 229.7 57.7001 227.1 33.4001 208.4C9.8001 190.3 9.71556e-05 165.6 4.9001 135.9C9.7001 106.4 24.0001 80.6999 39.4001 55.7999C49.8001 39.0999 61.6001 23.3999 72.8001 7.19993C76.0001 2.49993 79.8001 -7.08103e-05 84.2001 5.79993C112.3 43.1999 138.8 81.5999 151.7 127.5C152.9 131.8 153.6 136.3 154.2 140.8C154.6 143.6 154.5 146.6 154.7 151Z" fill="white"/>
</mask>
<g mask="url(#mask112_210_2478)">
<path d="M154.7 198.3L1.50029 210.2L1.30029 208.5L154.7 196.5V198.3Z" fill="#60B9C4"/>
</g>
<mask id="mask113_210_2478" style="mask-type:luminance" maskUnits="userSpaceOnUse" x="3" y="2" width="152" height="223">
<path d="M154.7 151C153 179.5 139.6 202.7 112.5 216.1C85.0001 229.7 57.7001 227.1 33.4001 208.4C9.8001 190.3 9.71556e-05 165.6 4.9001 135.9C9.7001 106.4 24.0001 80.6999 39.4001 55.7999C49.8001 39.0999 61.6001 23.3999 72.8001 7.19993C76.0001 2.49993 79.8001 -7.08103e-05 84.2001 5.79993C112.3 43.1999 138.8 81.5999 151.7 127.5C152.9 131.8 153.6 136.3 154.2 140.8C154.6 143.6 154.5 146.6 154.7 151Z" fill="white"/>
</mask>
<g mask="url(#mask113_210_2478)">
<path d="M154.7 200.1L1.6 212L1.5 210.2L154.7 198.3V200.1Z" fill="#60B9C4"/>
</g>
<mask id="mask114_210_2478" style="mask-type:luminance" maskUnits="userSpaceOnUse" x="3" y="2" width="152" height="223">
<path d="M154.7 151C153 179.5 139.6 202.7 112.5 216.1C85.0001 229.7 57.7001 227.1 33.4001 208.4C9.8001 190.3 9.71556e-05 165.6 4.9001 135.9C9.7001 106.4 24.0001 80.6999 39.4001 55.7999C49.8001 39.0999 61.6001 23.3999 72.8001 7.19993C76.0001 2.49993 79.8001 -7.08103e-05 84.2001 5.79993C112.3 43.1999 138.8 81.5999 151.7 127.5C152.9 131.8 153.6 136.3 154.2 140.8C154.6 143.6 154.5 146.6 154.7 151Z" fill="white"/>
</mask>
<g mask="url(#mask114_210_2478)">
<path d="M154.7 201.8L1.7001 213.7L1.6001 212L154.7 200.1V201.8Z" fill="#60BAC4"/>
</g>
<mask id="mask115_210_2478" style="mask-type:luminance" maskUnits="userSpaceOnUse" x="3" y="2" width="152" height="223">
<path d="M154.7 151C153 179.5 139.6 202.7 112.5 216.1C85.0001 229.7 57.7001 227.1 33.4001 208.4C9.8001 190.3 9.71556e-05 165.6 4.9001 135.9C9.7001 106.4 24.0001 80.6999 39.4001 55.7999C49.8001 39.0999 61.6001 23.3999 72.8001 7.19993C76.0001 2.49993 79.8001 -7.08103e-05 84.2001 5.79993C112.3 43.1999 138.8 81.5999 151.7 127.5C152.9 131.8 153.6 136.3 154.2 140.8C154.6 143.6 154.5 146.6 154.7 151Z" fill="white"/>
</mask>
<g mask="url(#mask115_210_2478)">
<path d="M154.7 203.6L1.9002 215.5L1.7002 213.7L154.7 201.8V203.6Z" fill="#60BAC4"/>
</g>
<mask id="mask116_210_2478" style="mask-type:luminance" maskUnits="userSpaceOnUse" x="3" y="2" width="152" height="223">
<path d="M154.7 151C153 179.5 139.6 202.7 112.5 216.1C85.0001 229.7 57.7001 227.1 33.4001 208.4C9.8001 190.3 9.71556e-05 165.6 4.9001 135.9C9.7001 106.4 24.0001 80.6999 39.4001 55.7999C49.8001 39.0999 61.6001 23.3999 72.8001 7.19993C76.0001 2.49993 79.8001 -7.08103e-05 84.2001 5.79993C112.3 43.1999 138.8 81.5999 151.7 127.5C152.9 131.8 153.6 136.3 154.2 140.8C154.6 143.6 154.5 146.6 154.7 151Z" fill="white"/>
</mask>
<g mask="url(#mask116_210_2478)">
<path d="M154.7 205.4L1.9999 217.3L1.8999 215.5L154.7 203.6V205.4Z" fill="#60BBC4"/>
</g>
<mask id="mask117_210_2478" style="mask-type:luminance" maskUnits="userSpaceOnUse" x="3" y="2" width="152" height="223">
<path d="M154.7 151C153 179.5 139.6 202.7 112.5 216.1C85.0001 229.7 57.7001 227.1 33.4001 208.4C9.8001 190.3 9.71556e-05 165.6 4.9001 135.9C9.7001 106.4 24.0001 80.6999 39.4001 55.7999C49.8001 39.0999 61.6001 23.3999 72.8001 7.19993C76.0001 2.49993 79.8001 -7.08103e-05 84.2001 5.79993C112.3 43.1999 138.8 81.5999 151.7 127.5C152.9 131.8 153.6 136.3 154.2 140.8C154.6 143.6 154.5 146.6 154.7 151Z" fill="white"/>
</mask>
<g mask="url(#mask117_210_2478)">
<path d="M154.7 207.1L2.2 219L2 217.3L154.7 205.4V207.1Z" fill="#60BBC5"/>
</g>
<mask id="mask118_210_2478" style="mask-type:luminance" maskUnits="userSpaceOnUse" x="3" y="2" width="152" height="223">
<path d="M154.7 151C153 179.5 139.6 202.7 112.5 216.1C85.0001 229.7 57.7001 227.1 33.4001 208.4C9.8001 190.3 9.71556e-05 165.6 4.9001 135.9C9.7001 106.4 24.0001 80.6999 39.4001 55.7999C49.8001 39.0999 61.6001 23.3999 72.8001 7.19993C76.0001 2.49993 79.8001 -7.08103e-05 84.2001 5.79993C112.3 43.1999 138.8 81.5999 151.7 127.5C152.9 131.8 153.6 136.3 154.2 140.8C154.6 143.6 154.5 146.6 154.7 151Z" fill="white"/>
</mask>
<g mask="url(#mask118_210_2478)">
<path d="M154.7 208.9L2.3002 220.8L2.2002 219L154.7 207.1V208.9Z" fill="#60BCC5"/>
</g>
<mask id="mask119_210_2478" style="mask-type:luminance" maskUnits="userSpaceOnUse" x="3" y="2" width="152" height="223">
<path d="M154.7 151C153 179.5 139.6 202.7 112.5 216.1C85.0001 229.7 57.7001 227.1 33.4001 208.4C9.8001 190.3 9.71556e-05 165.6 4.9001 135.9C9.7001 106.4 24.0001 80.6999 39.4001 55.7999C49.8001 39.0999 61.6001 23.3999 72.8001 7.19993C76.0001 2.49993 79.8001 -7.08103e-05 84.2001 5.79993C112.3 43.1999 138.8 81.5999 151.7 127.5C152.9 131.8 153.6 136.3 154.2 140.8C154.6 143.6 154.5 146.6 154.7 151Z" fill="white"/>
</mask>
<g mask="url(#mask119_210_2478)">
<path d="M154.7 210.7L2.40029 222.5L2.30029 220.8L154.7 208.9V210.7Z" fill="#60BDC5"/>
</g>
<mask id="mask120_210_2478" style="mask-type:luminance" maskUnits="userSpaceOnUse" x="3" y="2" width="152" height="223">
<path d="M154.7 151C153 179.5 139.6 202.7 112.5 216.1C85.0001 229.7 57.7001 227.1 33.4001 208.4C9.8001 190.3 9.71556e-05 165.6 4.9001 135.9C9.7001 106.4 24.0001 80.6999 39.4001 55.7999C49.8001 39.0999 61.6001 23.3999 72.8001 7.19993C76.0001 2.49993 79.8001 -7.08103e-05 84.2001 5.79993C112.3 43.1999 138.8 81.5999 151.7 127.5C152.9 131.8 153.6 136.3 154.2 140.8C154.6 143.6 154.5 146.6 154.7 151Z" fill="white"/>
</mask>
<g mask="url(#mask120_210_2478)">
<path d="M154.7 212.4L2.5999 224.3L2.3999 222.5L154.7 210.7V212.4Z" fill="#60BDC5"/>
</g>
<mask id="mask121_210_2478" style="mask-type:luminance" maskUnits="userSpaceOnUse" x="3" y="2" width="152" height="223">
<path d="M154.7 151C153 179.5 139.6 202.7 112.5 216.1C85.0001 229.7 57.7001 227.1 33.4001 208.4C9.8001 190.3 9.71556e-05 165.6 4.9001 135.9C9.7001 106.4 24.0001 80.6999 39.4001 55.7999C49.8001 39.0999 61.6001 23.3999 72.8001 7.19993C76.0001 2.49993 79.8001 -7.08103e-05 84.2001 5.79993C112.3 43.1999 138.8 81.5999 151.7 127.5C152.9 131.8 153.6 136.3 154.2 140.8C154.6 143.6 154.5 146.6 154.7 151Z" fill="white"/>
</mask>
<g mask="url(#mask121_210_2478)">
<path d="M154.7 214.2L2.7001 226.1L2.6001 224.3L154.7 212.4V214.2Z" fill="#60BEC5"/>
</g>
<mask id="mask122_210_2478" style="mask-type:luminance" maskUnits="userSpaceOnUse" x="3" y="2" width="152" height="223">
<path d="M154.7 151C153 179.5 139.6 202.7 112.5 216.1C85.0001 229.7 57.7001 227.1 33.4001 208.4C9.8001 190.3 9.71556e-05 165.6 4.9001 135.9C9.7001 106.4 24.0001 80.6999 39.4001 55.7999C49.8001 39.0999 61.6001 23.3999 72.8001 7.19993C76.0001 2.49993 79.8001 -7.08103e-05 84.2001 5.79993C112.3 43.1999 138.8 81.5999 151.7 127.5C152.9 131.8 153.6 136.3 154.2 140.8C154.6 143.6 154.5 146.6 154.7 151Z" fill="white"/>
</mask>
<g mask="url(#mask122_210_2478)">
<path d="M154.7 216L2.8002 227.8L2.7002 226.1L154.7 214.2V216Z" fill="#60BEC5"/>
</g>
<mask id="mask123_210_2478" style="mask-type:luminance" maskUnits="userSpaceOnUse" x="3" y="2" width="152" height="223">
<path d="M154.7 151C153 179.5 139.6 202.7 112.5 216.1C85.0001 229.7 57.7001 227.1 33.4001 208.4C9.8001 190.3 9.71556e-05 165.6 4.9001 135.9C9.7001 106.4 24.0001 80.6999 39.4001 55.7999C49.8001 39.0999 61.6001 23.3999 72.8001 7.19993C76.0001 2.49993 79.8001 -7.08103e-05 84.2001 5.79993C112.3 43.1999 138.8 81.5999 151.7 127.5C152.9 131.8 153.6 136.3 154.2 140.8C154.6 143.6 154.5 146.6 154.7 151Z" fill="white"/>
</mask>
<g mask="url(#mask123_210_2478)">
<path d="M154.7 217.8L3.00029 229.6L2.80029 227.8L154.7 216V217.8Z" fill="#60BFC5"/>
</g>
<mask id="mask124_210_2478" style="mask-type:luminance" maskUnits="userSpaceOnUse" x="3" y="2" width="152" height="223">
<path d="M154.7 151C153 179.5 139.6 202.7 112.5 216.1C85.0001 229.7 57.7001 227.1 33.4001 208.4C9.8001 190.3 9.71556e-05 165.6 4.9001 135.9C9.7001 106.4 24.0001 80.6999 39.4001 55.7999C49.8001 39.0999 61.6001 23.3999 72.8001 7.19993C76.0001 2.49993 79.8001 -7.08103e-05 84.2001 5.79993C112.3 43.1999 138.8 81.5999 151.7 127.5C152.9 131.8 153.6 136.3 154.2 140.8C154.6 143.6 154.5 146.6 154.7 151Z" fill="white"/>
</mask>
<g mask="url(#mask124_210_2478)">
<path d="M154.7 219.5L22.9 229.8H3V229.6L154.7 217.8V219.5Z" fill="#60C0C5"/>
</g>
<mask id="mask125_210_2478" style="mask-type:luminance" maskUnits="userSpaceOnUse" x="3" y="2" width="152" height="223">
<path d="M154.7 151C153 179.5 139.6 202.7 112.5 216.1C85.0001 229.7 57.7001 227.1 33.4001 208.4C9.8001 190.3 9.71556e-05 165.6 4.9001 135.9C9.7001 106.4 24.0001 80.6999 39.4001 55.7999C49.8001 39.0999 61.6001 23.3999 72.8001 7.19993C76.0001 2.49993 79.8001 -7.08103e-05 84.2001 5.79993C112.3 43.1999 138.8 81.5999 151.7 127.5C152.9 131.8 153.6 136.3 154.2 140.8C154.6 143.6 154.5 146.6 154.7 151Z" fill="white"/>
</mask>
<g mask="url(#mask125_210_2478)">
<path d="M154.7 221.3L45.5999 229.8H22.8999L154.7 219.5V221.3Z" fill="#60C0C5"/>
</g>
<mask id="mask126_210_2478" style="mask-type:luminance" maskUnits="userSpaceOnUse" x="3" y="2" width="152" height="223">
<path d="M154.7 151C153 179.5 139.6 202.7 112.5 216.1C85.0001 229.7 57.7001 227.1 33.4001 208.4C9.8001 190.3 9.71556e-05 165.6 4.9001 135.9C9.7001 106.4 24.0001 80.6999 39.4001 55.7999C49.8001 39.0999 61.6001 23.3999 72.8001 7.19993C76.0001 2.49993 79.8001 -7.08103e-05 84.2001 5.79993C112.3 43.1999 138.8 81.5999 151.7 127.5C152.9 131.8 153.6 136.3 154.2 140.8C154.6 143.6 154.5 146.6 154.7 151Z" fill="white"/>
</mask>
<g mask="url(#mask126_210_2478)">
<path d="M154.7 223.1L68.4001 229.8H45.6001L154.7 221.3V223.1Z" fill="#60C1C5"/>
</g>
<mask id="mask127_210_2478" style="mask-type:luminance" maskUnits="userSpaceOnUse" x="3" y="2" width="152" height="223">
<path d="M154.7 151C153 179.5 139.6 202.7 112.5 216.1C85.0001 229.7 57.7001 227.1 33.4001 208.4C9.8001 190.3 9.71556e-05 165.6 4.9001 135.9C9.7001 106.4 24.0001 80.6999 39.4001 55.7999C49.8001 39.0999 61.6001 23.3999 72.8001 7.19993C76.0001 2.49993 79.8001 -7.08103e-05 84.2001 5.79993C112.3 43.1999 138.8 81.5999 151.7 127.5C152.9 131.8 153.6 136.3 154.2 140.8C154.6 143.6 154.5 146.6 154.7 151Z" fill="white"/>
</mask>
<g mask="url(#mask127_210_2478)">
<path d="M154.7 224.8L91.0999 229.8H68.3999L154.7 223.1V224.8Z" fill="#60C1C5"/>
</g>
<mask id="mask128_210_2478" style="mask-type:luminance" maskUnits="userSpaceOnUse" x="3" y="2" width="152" height="223">
<path d="M154.7 151C153 179.5 139.6 202.7 112.5 216.1C85.0001 229.7 57.7001 227.1 33.4001 208.4C9.8001 190.3 9.71556e-05 165.6 4.9001 135.9C9.7001 106.4 24.0001 80.6999 39.4001 55.7999C49.8001 39.0999 61.6001 23.3999 72.8001 7.19993C76.0001 2.49993 79.8001 -7.08103e-05 84.2001 5.79993C112.3 43.1999 138.8 81.5999 151.7 127.5C152.9 131.8 153.6 136.3 154.2 140.8C154.6 143.6 154.5 146.6 154.7 151Z" fill="white"/>
</mask>
<g mask="url(#mask128_210_2478)">
</g>
<mask id="mask129_210_2478" style="mask-type:luminance" maskUnits="userSpaceOnUse" x="3" y="2" width="152" height="223">
<path d="M154.7 151C153 179.5 139.6 202.7 112.5 216.1C85.0001 229.7 57.7001 227.1 33.4001 208.4C9.8001 190.3 9.71556e-05 165.6 4.9001 135.9C9.7001 106.4 24.0001 80.6999 39.4001 55.7999C49.8001 39.0999 61.6001 23.3999 72.8001 7.19993C76.0001 2.49993 79.8001 -7.08103e-05 84.2001 5.79993C112.3 43.1999 138.8 81.5999 151.7 127.5C152.9 131.8 153.6 136.3 154.2 140.8C154.6 143.6 154.5 146.6 154.7 151Z" fill="white"/>
</mask>
<g mask="url(#mask129_210_2478)">
</g>
<mask id="mask130_210_2478" style="mask-type:luminance" maskUnits="userSpaceOnUse" x="3" y="2" width="152" height="223">
<path d="M154.7 151C153 179.5 139.6 202.7 112.5 216.1C85.0001 229.7 57.7001 227.1 33.4001 208.4C9.8001 190.3 9.71556e-05 165.6 4.9001 135.9C9.7001 106.4 24.0001 80.6999 39.4001 55.7999C49.8001 39.0999 61.6001 23.3999 72.8001 7.19993C76.0001 2.49993 79.8001 -7.08103e-05 84.2001 5.79993C112.3 43.1999 138.8 81.5999 151.7 127.5C152.9 131.8 153.6 136.3 154.2 140.8C154.6 143.6 154.5 146.6 154.7 151Z" fill="white"/>
</mask>
<g mask="url(#mask130_210_2478)">
</g>
<path d="M52.4003 185.7V92.6998C52.4003 92.6998 113.3 82.4998 119.5 129C119.7 136.8 125.1 181.6 65.2003 180.1C63.7003 180.1 59.1003 187.5 65.8003 188.6C72.8003 189 122.3 194.3 129.2 142.1C129.6 136.4 133.5 87.0998 78.1003 83.1998C72.4003 83.1998 47.2003 83.1998 47.2003 83.1998C47.2003 83.1998 41.8003 82.9998 41.8003 87.9998C41.8003 92.9998 41.8003 186 41.8003 186C41.8003 186 47.4003 191.7 52.4003 185.7Z" fill="#1C4C65"/>
<path d="M109.7 93.5999C107.2 95.9999 104.6 98.2999 101.9 100.5C110.7 106 117.6 114.9 119.5 129.1C119.6 133.9 121.7 152.8 109.3 166.2C111.9 168.1 114.3 170.3 116.3 172.8C122.5 165.9 127.3 156.1 129.2 142.2C129.4 137.9 131.6 109.4 109.7 93.5999Z" fill="white"/>
<path d="M67.0006 148.4V109.4C67.0006 109.4 101.101 103.1 104.501 131.8C104.601 136.6 107.601 164.2 74.1006 163.3C73.3006 163.3 70.7006 167.9 74.4006 168.6C78.3006 168.8 106.001 172.1 109.901 140C110.101 136.5 112.301 106.1 81.3006 103.7C78.1006 103.7 64.0006 103.7 64.0006 103.7C64.0006 103.7 61.1006 103.5 61.1006 106.6C61.1006 109.6 61.1006 148.7 61.1006 148.7C61.1006 148.7 64.2006 152.1 67.0006 148.4Z" fill="#1C4C65"/>
<path d="M78.7005 170.2C77.4005 170.2 76.2005 170.2 74.9005 170.1L74.2005 170C72.1005 169.6 70.8005 168.1 71.0005 166C71.2005 164.3 72.5005 161.8 74.1005 161.8C84.2005 162.1 91.8005 159.7 96.6005 154.8C103.7 147.6 103.2 136.8 103 132.8C103 132.5 103 132.2 103 131.9C102.1 124.8 99.2005 119.4 94.3005 115.8C85.4005 109.3 72.5005 110.3 68.5005 110.8V149L68.2005 149.4C66.8005 151.2 65.3005 151.6 64.3005 151.7C61.9005 151.8 60.1005 149.9 59.9005 149.7L59.5005 149.3V106.6C59.5005 104.9 60.2005 103.9 60.8005 103.4C62.1005 102.2 63.9005 102.2 64.1005 102.2H81.4005H81.5005C111.3 104.5 112 131.7 111.5 139.9V140C109.1 159.6 97.5005 170.2 78.7005 170.2ZM74.6005 167H75.1005C94.6005 168.4 106.1 158.9 108.4 139.6C109 129.9 107.5 107.1 81.2005 105H64.0005C63.8005 105 63.2005 105 62.9005 105.4C62.7005 105.6 62.6005 106 62.6005 106.4V148C63.0005 148.3 63.6005 148.7 64.2005 148.7C64.6005 148.7 65.1005 148.4 65.5005 148V108.3L66.7005 108.1C67.4005 108 84.5005 104.9 96.1005 113.5C101.7 117.6 105.1 123.8 106 131.8V131.9C106 132.1 106 132.4 106 132.8C106.2 137.2 106.7 149 98.7005 157.1C93.3005 162.5 85.2005 165.2 74.5005 165C74.2005 165.4 73.8005 166.4 73.9005 166.9C74.0005 166.7 74.1005 166.9 74.6005 167Z" fill="#1C4C65"/>
</g>
<defs>
<clipPath id="clip0_210_2478">
<rect width="154.7" height="229.8" fill="white"/>
</clipPath>
</defs>
</svg>
