<svg width="1720" height="367" viewBox="0 0 1720 367" fill="none" xmlns="http://www.w3.org/2000/svg">
<path d="M223.3 144.3C223.4 143.5 223.2 146 223.2 146.4C223.2 147.4 223.2 148.4 223.2 149.4C223.2 151.4 223 153.3 222.8 155.3C226.1 151.3 229.6 147.5 233.5 143.9C252.5 126.2 274.3 117.4 298.8 117.4C336.2 117.7 364.1 131.3 382.4 158.2L390.6 152.1C369.5 122.5 338.9 107.6 298.8 107.2C269.2 107.2 244 118.1 223.2 139.7C223.5 141.1 223.6 142.7 223.3 144.3Z" fill="#A78400"/>
<path d="M382.4 297.8C361.3 326.7 333.4 341.3 298.8 341.7C267.9 341.7 242.4 329 222.3 303.5C221 301.7 219.7 300 218.5 298.2C217.2 301.6 214.7 304.5 211.6 306.2C215.8 311.9 220.6 317.3 225.9 322.4C247 342.1 271.3 352 298.8 352C338.2 351.7 368.8 335.7 390.6 304.1L382.4 297.8Z" fill="#A78400"/>
<path d="M299 316C275.4 316 255.9 306.2 240.6 286.5C228.1 270 221.9 251 221.9 229.5C221.9 202.5 231 180.5 249.2 163.4C263.7 149.8 280.4 142.9 299.1 142.9C327.7 143.2 349 153.7 363 174.4L369.2 169.7C353.1 146.9 329.7 135.4 299.1 135.1C273.9 135.1 252.9 145.5 236 166.2C221.4 184.3 214.2 205.4 214.2 229.5C214.2 258.3 223.9 282.2 243.4 301.1C259.5 316.3 278.1 323.9 299.1 323.9C329.2 323.6 352.6 311.3 369.2 286.9L363 282.2C346.7 304.5 325.4 315.8 299 316Z" fill="#F3CA2E"/>
<path d="M214.2 5.1V178C201.6 148.4 181.2 127.5 153 115.3C139.7 109.9 126.1 107.1 112.2 107.1C79.6 107.1 52 120.2 29.6 146.4C9.9 170.2 0 197.9 0 229.5C0 266.6 12.7 297.3 38.2 321.8C59.6 341.9 84.3 351.9 112.1 351.9C145.4 351.9 173.1 338.5 195.2 311.6C203 302.1 209.3 291.9 214.1 281V346.8V351.9H224.3V346.8V229.5V5.1V0H214.1V5.1H214.2ZM178 315.2C159 332.9 137 341.7 112.2 341.7C81.6 341.7 56.1 329.1 35.7 304C18.7 282.6 10.2 257.8 10.2 229.5C10.2 194.8 22.3 166.3 46.4 143.8C65.8 126.1 87.7 117.3 112.2 117.3C143.5 117.3 169.1 130 189.2 155.5C205.9 176.9 214.2 201.6 214.2 229.4C214.2 264.2 202.1 292.7 178 315.2Z" fill="#005B96"/>
<path d="M201 146.3V0H190.8V131.8C194.9 136.1 198.3 141 201 146.3Z" fill="#61B1E6"/>
<path d="M112.2 323.9C66 323.9 28.5 281.6 28.5 229.5C28.5 177.4 66 135.1 112.2 135.1C158.4 135.1 195.9 177.4 195.9 229.5C195.9 281.6 158.3 323.9 112.2 323.9ZM112.2 144.1C70.8 144.1 37.1 182.4 37.1 229.5C37.1 276.6 70.8 314.9 112.2 314.9C153.6 314.9 187.3 276.6 187.3 229.5C187.3 182.4 153.6 144.1 112.2 144.1Z" fill="#61B1E6"/>
<path d="M534.9 107.3C585.1 107.3 610.3 145.7 610.3 184C610.3 222.3 585.1 260.5 534.9 260.5H479.9V107.3H534.9ZM534.9 238.3C570.4 238.3 588.4 211.1 588.4 183.9C588.4 156.7 570.4 129.3 534.9 129.3H502V238.2H534.9V238.3Z" fill="url(#paint0_linear_11_6)"/>
<path d="M685.5 182.7H711.4C730 182.7 739.2 169.3 739.2 156C739.2 142.8 730 129.5 711.4 129.5H677.4V260.6H655.5V107H711.4C744.7 107 761.4 131.6 761.4 155.9C761.4 177.6 748 198.2 721.7 202.8L770.1 260.5H741.4L685.5 193.2V182.7Z" fill="url(#paint1_linear_11_6)"/>
<path d="M821.2 128.3C835.2 114.1 855 105.1 876.4 105.1C898.1 105.1 917.6 114.1 931.9 128.3C945.7 142.5 954.7 162.1 954.7 183.8C954.7 205.5 945.7 225 931.9 239.3C917.7 253.8 898.1 262.5 876.4 262.5C854.9 262.5 835.2 253.7 821.2 239.3C807.4 225.1 798.4 205.5 798.4 183.8C798.4 162.1 807.4 142.5 821.2 128.3ZM916.1 144.1C905.8 133.8 891.5 127.4 876.4 127.4C861.3 127.4 847.2 133.8 837.2 144.1C827.1 154.2 820.8 168.2 820.8 183.8C820.8 199.4 827.2 213.4 837.2 223.5C847.3 233.8 861.3 240.2 876.4 240.2C891.5 240.2 905.8 233.8 916.1 223.5C926 213.4 932.3 199.6 932.3 183.8C932.3 168 926 154.2 916.1 144.1Z" fill="url(#paint2_linear_11_6)"/>
<path d="M1061.7 107C1094.8 107 1111.5 132.6 1111.5 158.3C1111.5 183.9 1094.8 209.4 1061.7 209.4H1027.9V260.5H1005.5V107H1061.7ZM1061.7 187.5C1080.3 187.5 1089.5 173 1089.5 158.6C1089.5 143.9 1080.3 129.4 1061.7 129.4H1027.9V187.5H1061.7Z" fill="url(#paint3_linear_11_6)"/>
<path d="M1252 129.2C1265.4 115.4 1284.2 106.4 1305 106.4C1340.1 106.4 1367.7 128.3 1376.5 163H1354.6C1346.5 140 1327.6 128.4 1305.1 128.4C1290.4 128.4 1277 134.8 1267.4 144.8C1257.8 154.9 1251.6 168.5 1251.6 184.3C1251.6 199.6 1257.7 213.2 1267.4 223.3C1277 233.4 1290.4 239.7 1305.1 239.7C1328.3 239.7 1348.1 226.3 1356 203.1H1377.7C1368.9 238 1340.9 261.6 1305.1 261.6C1284.3 261.6 1265.4 252.8 1252.1 238.8C1238.9 224.8 1230.2 205.5 1230.2 184.2C1230 162.5 1238.8 143.2 1252 129.2Z" fill="url(#paint4_linear_11_6)"/>
<path d="M1444.2 260.5H1422.1V107H1440.1L1490.7 181.5L1541.3 107H1558.8V260.4H1536.9V152.4L1496.8 212H1484.3L1444.2 152.4V260.5Z" fill="url(#paint5_linear_11_6)"/>
<path d="M1693 146.7C1689.9 132.9 1675 127 1661.7 127.2C1651.4 127.4 1640 130.9 1633.9 138.8C1630.8 142.7 1629.7 147.8 1630.2 153C1631.3 168.8 1648.6 170.8 1665.1 172.3C1686.1 174.9 1712.2 180.4 1718.1 205C1718.8 208.3 1719.2 212 1719.2 215.1C1719.2 244.7 1689.8 261.8 1662.2 261.8C1638.5 261.8 1609.8 247.8 1607 220.4L1606.8 216.2L1629.2 215.8L1629.4 219.1V218.2C1630.9 232.4 1648.3 239.9 1662.5 239.9C1678.9 239.9 1696.9 230.7 1696.9 214.9C1696.9 213.4 1696.7 211.6 1696.2 209.6C1693.6 198 1677.8 196 1662.4 194.5C1638.5 192.1 1610.4 186.8 1608 154.8V155C1607.1 144.7 1609.8 134.4 1616.3 125.8C1626.6 112.4 1645 105.4 1662.8 105.4C1686.5 105.4 1711 117.7 1715 145.7L1693 146.7Z" fill="url(#paint6_linear_11_6)"/>
<path d="M493.4 325.9C489.8 324.7 487 323.1 484.9 321C482.8 318.9 481.8 316.4 481.8 313.5C481.8 310.6 482.8 308.1 484.9 306.1C487 304 489.5 303 492.5 303C495.4 303 498 304 500.1 306.1C501.3 307.2 502.1 308.4 502.5 309.8L500 310.8C499.6 309.8 499 308.8 498.1 308C496.6 306.5 494.7 305.7 492.6 305.7C490.4 305.7 488.6 306.5 487.1 308C485.6 309.5 484.8 311.4 484.8 313.5C484.8 315.6 485.6 317.5 487.1 319C488.5 320.4 490.5 321.7 493 322.9C497 324.2 500.4 326.2 503.2 328.9C506.1 331.8 507.6 335.3 507.6 339.4C507.6 343.5 506.1 347 503.2 349.9C500.3 352.8 496.8 354.3 492.7 354.3C488.6 354.3 485.1 352.8 482.2 349.9C479.9 347.6 478.5 344.9 478 341.8L480.7 340.8C481 343.5 482.2 345.9 484.2 347.9C486.6 350.3 489.4 351.4 492.8 351.4C496.2 351.4 499 350.2 501.4 347.9C503.8 345.5 505 342.7 505 339.4C505 336.1 503.8 333.2 501.4 330.9C499 328.8 496.4 327.2 493.4 325.9Z" fill="black"/>
<path d="M549.9 312.8C550.5 313.3 550.7 314 550.7 314.8C550.7 315.6 550.4 316.3 549.9 316.8C549.3 317.3 548.7 317.6 547.9 317.6C547.1 317.6 546.5 317.3 545.9 316.8C545.3 316.3 545.1 315.6 545.1 314.8C545.1 314 545.4 313.4 545.9 312.8C546.5 312.3 547.1 312 547.9 312C548.7 312 549.4 312.3 549.9 312.8ZM549.4 322.9V353.6H546.6V322.9H549.4Z" fill="black"/>
<path d="M594.4 322.9V323.6C596.2 321.9 598.3 321.1 600.7 321.1C603.2 321.1 605.4 322 607.2 323.8C607.7 324.3 608.1 324.8 608.5 325.4C608.9 324.9 609.3 324.3 609.8 323.8C611.6 322 613.7 321.1 616.3 321.1C618.8 321.1 621 322 622.8 323.8C624.5 325.5 625.4 327.6 625.5 330V353.7H622.7V330C622.6 328.4 622 327 620.8 325.8C619.5 324.6 618 324 616.3 324C614.6 324 613.1 324.6 611.8 325.8C610.6 327 609.9 328.6 609.9 330.4V353.7H607.1V330C607 328.4 606.4 327 605.2 325.8C603.9 324.6 602.4 324 600.7 324C599 324 597.5 324.6 596.2 325.8C595.1 326.9 594.5 328.2 594.3 329.7V353.7H591.5V322.9H594.4Z" fill="black"/>
<path d="M667.1 322.9H669.9V327.2C670.4 326.5 671 325.8 671.7 325.1C675.1 321.8 679.1 320.1 683.9 320.1C688.7 320.1 692.8 321.8 696.1 325.1C699.5 328.4 701.2 332.5 701.2 337.3C701.2 342 699.5 346.1 696.1 349.4C692.7 352.8 688.7 354.4 683.9 354.4C679.1 354.4 675.1 352.7 671.7 349.4C671 348.7 670.4 348 669.9 347.3V365.3H667.1V322.9ZM670 334.4V340.3C670.5 343 671.8 345.4 673.9 347.4C676.7 350.2 680.1 351.6 684 351.6C687.9 351.6 691.3 350.2 694.1 347.4C696.9 344.6 698.3 341.3 698.3 337.4C698.3 333.5 696.9 330.1 694.1 327.4C691.3 324.6 687.9 323.2 684 323.2C680.1 323.2 676.7 324.6 673.9 327.4C671.8 329.3 670.5 331.7 670 334.4Z" fill="black"/>
<path d="M744.2 303.6V353.7H741.4V303.6H744.2Z" fill="black"/>
<path d="M789.9 312.8C790.5 313.3 790.7 314 790.7 314.8C790.7 315.6 790.4 316.3 789.9 316.8C789.3 317.3 788.7 317.6 787.9 317.6C787.1 317.6 786.5 317.3 785.9 316.8C785.3 316.3 785.1 315.6 785.1 314.8C785.1 314 785.4 313.4 785.9 312.8C786.5 312.3 787.1 312 787.9 312C788.7 312 789.3 312.3 789.9 312.8ZM789.3 322.9V353.6H786.5V322.9H789.3Z" fill="black"/>
<path d="M835.7 325.7V353.6H832.9V325.7H829.8V322.9H832.9V314.6C833 312.3 833.9 310.3 835.6 308.6C837.3 307 839.3 306.2 841.5 306.2C842.7 306.2 843.9 306.4 845.2 306.9L844.3 309.4C843.4 309 842.6 308.8 841.8 308.8C840.3 308.8 838.9 309.4 837.6 310.6C836.4 311.7 835.8 313.1 835.7 314.8V322.9H842V325.7H835.7Z" fill="black"/>
<path d="M884.4 365.4H881.6L890 348L877.9 322.9H881.1L891.4 344.9L901.7 322.9H904.9L884.4 365.4Z" fill="black"/>
<path d="M941.5 349.3C942.1 349.8 942.3 350.5 942.3 351.3C942.3 352.1 942 352.8 941.5 353.3C940.9 353.8 940.3 354.1 939.5 354.1C938.7 354.1 938.1 353.8 937.5 353.3C936.9 352.8 936.7 352.1 936.7 351.3C936.7 350.5 937 349.9 937.5 349.3C938.1 348.8 938.7 348.5 939.5 348.5C940.2 348.5 940.9 348.8 941.5 349.3Z" fill="black"/>
<path d="M1049.1 345.7L1051.2 347.6C1046.3 352 1040.5 354.3 1033.9 354.3C1026.8 354.3 1020.7 351.8 1015.7 346.8C1010.7 341.8 1008.2 335.8 1008.2 328.7C1008.2 321.6 1010.7 315.6 1015.7 310.6C1020.7 305.6 1026.8 303.1 1033.9 303.1C1040.6 303.1 1046.3 305.3 1051.2 309.8L1049.1 311.7C1044.8 307.9 1039.7 306 1033.9 306C1027.6 306 1022.2 308.2 1017.7 312.7C1013.2 317.1 1011 322.5 1011 328.8C1011 335.1 1013.2 340.5 1017.7 344.9C1022.2 349.3 1027.6 351.6 1033.9 351.6C1039.7 351.4 1044.8 349.5 1049.1 345.7Z" fill="black"/>
<path d="M1091.3 322.9H1094.1V328.5C1094.7 327.7 1095.4 326.9 1096.1 326.1C1098.6 323.6 1101.2 322.3 1103.8 322.2V325.3C1102 325.4 1100.2 326.4 1098.3 328.3C1095.6 331 1094.2 334.1 1094.1 337.8V353.7H1091.3V322.9Z" fill="black"/>
<path d="M1148.1 347.9C1150.8 350.3 1153.9 351.5 1157.6 351.5C1161.5 351.5 1164.9 350.1 1167.7 347.3C1168.1 346.9 1168.4 346.6 1168.7 346.2L1171.7 347.3C1171.2 348.1 1170.5 348.8 1169.8 349.5C1166.4 352.9 1162.3 354.5 1157.6 354.5C1152.8 354.5 1148.8 352.8 1145.4 349.5C1142 346.1 1140.3 342.1 1140.3 337.3C1140.3 332.6 1142 328.5 1145.4 325.2C1148.8 321.8 1152.8 320.2 1157.6 320.2C1161.7 320.2 1165.3 321.4 1168.3 323.9C1168.8 324.3 1169.3 324.8 1169.8 325.3C1170 325.5 1170.2 325.7 1170.3 325.9L1168.2 328L1148.1 347.9ZM1166.2 326C1163.7 324.1 1160.9 323.2 1157.6 323.2C1153.7 323.2 1150.3 324.6 1147.5 327.3C1144.7 330.1 1143.3 333.4 1143.3 337.3C1143.3 340.5 1144.2 343.4 1146.1 345.8L1166.2 326Z" fill="black"/>
<path d="M1244.9 353.7H1242.1V347.4C1241.6 348.1 1241 348.8 1240.3 349.5C1236.9 352.9 1232.8 354.5 1228.1 354.5C1223.3 354.5 1219.3 352.8 1215.9 349.5C1212.5 346.1 1210.8 342.1 1210.8 337.4C1210.8 332.6 1212.5 328.6 1215.9 325.2C1219.3 321.8 1223.3 320.2 1228.1 320.2C1232.9 320.2 1237 321.9 1240.3 325.2C1240.9 325.9 1241.5 326.6 1242.1 327.3V322.9H1244.9V353.7ZM1242 340.1V334.5C1241.5 331.7 1240.2 329.3 1238.1 327.2C1235.3 324.4 1231.9 323 1228 323C1224.1 323 1220.7 324.4 1217.9 327.2C1215.1 330 1213.7 333.3 1213.7 337.2C1213.7 341.1 1215.1 344.5 1217.9 347.2C1220.7 350 1224.1 351.3 1228 351.3C1231.9 351.3 1235.3 349.9 1238.1 347.1C1240.2 345.3 1241.5 342.9 1242 340.1Z" fill="black"/>
<path d="M1291.1 322.9V309.8H1293.9V322.9H1300.2V325.7H1293.9V353.6H1291.1V325.7H1284.8V322.9H1291.1Z" fill="black"/>
<path d="M1345.9 347.9C1348.6 350.3 1351.7 351.5 1355.4 351.5C1359.3 351.5 1362.7 350.1 1365.5 347.3C1365.9 346.9 1366.2 346.6 1366.5 346.2L1369.5 347.3C1369 348.1 1368.3 348.8 1367.6 349.5C1364.2 352.9 1360.1 354.5 1355.4 354.5C1350.6 354.5 1346.6 352.8 1343.2 349.5C1339.8 346.1 1338.1 342.1 1338.1 337.3C1338.1 332.6 1339.8 328.5 1343.2 325.2C1346.6 321.8 1350.6 320.2 1355.4 320.2C1359.5 320.2 1363.1 321.4 1366.1 323.9C1366.6 324.3 1367.1 324.8 1367.6 325.3C1367.8 325.5 1368 325.7 1368.1 325.9L1366 328L1345.9 347.9ZM1363.9 326C1361.4 324.1 1358.6 323.2 1355.3 323.2C1351.4 323.2 1348 324.6 1345.2 327.3C1342.4 330.1 1341 333.4 1341 337.3C1341 340.5 1341.9 343.4 1343.8 345.8L1363.9 326Z" fill="black"/>
<path d="M1410.2 349.3C1410.8 349.8 1411 350.5 1411 351.3C1411 352.1 1410.7 352.8 1410.2 353.3C1409.6 353.8 1409 354.1 1408.2 354.1C1407.4 354.1 1406.8 353.8 1406.2 353.3C1405.6 352.8 1405.4 352.1 1405.4 351.3C1405.4 350.5 1405.7 349.9 1406.2 349.3C1406.8 348.8 1407.4 348.5 1408.2 348.5C1409 348.5 1409.7 348.8 1410.2 349.3Z" fill="black"/>
<path d="M1519.8 347.4C1515 351.9 1509.3 354.2 1502.7 354.2C1495.6 354.2 1489.5 351.7 1484.5 346.7C1479.5 341.7 1477 335.7 1477 328.6C1477 321.5 1479.5 315.5 1484.5 310.5C1489.5 305.5 1495.6 303 1502.7 303C1509.4 303 1515.1 305.2 1520 309.7L1517.9 311.6C1513.6 307.8 1508.5 305.9 1502.7 305.9C1496.4 305.9 1491 308.1 1486.5 312.6C1482 317 1479.8 322.4 1479.8 328.7C1479.8 335 1482 340.4 1486.5 344.8C1491 349.2 1496.4 351.5 1502.7 351.5C1508.1 351.5 1512.9 349.8 1517 346.5V331.2H1519.8V347.4Z" fill="black"/>
<path d="M1560.9 322.9H1563.7V328.5C1564.3 327.7 1565 326.9 1565.7 326.1C1568.2 323.6 1570.8 322.3 1573.4 322.2V325.3C1571.6 325.4 1569.8 326.4 1567.9 328.3C1565.2 331 1563.8 334.1 1563.7 337.8V353.7H1560.9V322.9Z" fill="black"/>
<path d="M1626.7 320.1C1631.5 320.1 1635.6 321.8 1638.9 325.1C1642.3 328.5 1644 332.5 1644 337.3C1644 342 1642.3 346.1 1638.9 349.4C1635.5 352.8 1631.5 354.4 1626.7 354.4C1621.9 354.4 1617.9 352.7 1614.5 349.4C1611.1 346 1609.4 342 1609.4 337.3C1609.4 332.5 1611.1 328.5 1614.5 325.1C1617.9 321.8 1621.9 320.1 1626.7 320.1ZM1616.6 327.3C1613.8 330.1 1612.4 333.4 1612.4 337.3C1612.4 341.2 1613.8 344.6 1616.6 347.3C1619.4 350.1 1622.8 351.4 1626.7 351.4C1630.6 351.4 1634 350 1636.8 347.3C1639.6 344.5 1641 341.2 1641 337.3C1641 333.4 1639.6 330 1636.8 327.3C1634 324.5 1630.6 323.1 1626.7 323.1C1622.7 323.1 1619.4 324.5 1616.6 327.3Z" fill="black"/>
<path d="M1698.6 345.5V322.9H1701.4V344.8C1701.4 346.6 1702 348.2 1703.3 349.4C1704.5 350.6 1706 351.2 1707.8 351.2C1709.5 351.2 1711 350.6 1712.3 349.4C1713.5 348.3 1714.1 346.9 1714.2 345.2V322.8H1717V345.2C1716.9 347.6 1716 349.6 1714.3 351.3C1712.5 353.1 1710.4 354 1707.8 354C1705.3 354 1703.1 353.1 1701.3 351.3C1700.8 350.8 1700.4 350.3 1700 349.8C1699.6 350.3 1699.2 350.8 1698.7 351.3C1696.9 353.1 1694.8 354 1692.2 354C1689.7 354 1687.5 353.1 1685.7 351.3C1684 349.6 1683.1 347.6 1683 345.2V322.8H1685.8V345.2C1685.9 346.8 1686.5 348.2 1687.7 349.4C1688.9 350.6 1690.4 351.2 1692.2 351.2C1693.9 351.2 1695.4 350.6 1696.7 349.4C1697.8 348.4 1698.4 347.1 1698.6 345.5Z" fill="black"/>
<path fill-rule="evenodd" clip-rule="evenodd" d="M480.857 341.808C481.316 344.1 482.453 346.153 484.2 347.9C486.6 350.3 489.4 351.4 492.8 351.4C496.2 351.4 499 350.2 501.4 347.9C503.8 345.5 505 342.7 505 339.4C505 336.1 503.8 333.2 501.4 330.9C499 328.8 496.4 327.2 493.4 325.9C489.8 324.7 487 323.1 484.9 321C482.8 318.9 481.8 316.4 481.8 313.5C481.8 310.6 482.8 308.1 484.9 306.1C487 304 489.5 303 492.5 303C495.4 303 498 304 500.1 306.1C501.3 307.2 502.1 308.4 502.5 309.8L500 310.8C499.6 309.8 499 308.8 498.1 308C496.6 306.5 494.7 305.7 492.6 305.7C490.4 305.7 488.6 306.5 487.1 308C485.6 309.5 484.8 311.4 484.8 313.5C484.8 315.6 485.6 317.5 487.1 319C488.5 320.4 490.5 321.7 493 322.9C497 324.2 500.4 326.2 503.2 328.9C506.1 331.8 507.6 335.3 507.6 339.4C507.6 343.5 506.1 347 503.2 349.9C500.3 352.8 496.8 354.3 492.7 354.3C488.6 354.3 485.1 352.8 482.2 349.9C479.9 347.6 478.5 344.9 478 341.8L480.7 340.8C480.738 341.141 480.79 341.477 480.857 341.808ZM493.373 321.97C490.958 320.805 489.087 319.573 487.807 318.293C486.491 316.976 485.8 315.329 485.8 313.5C485.8 311.671 486.491 310.024 487.807 308.707C489.129 307.385 490.678 306.7 492.6 306.7C494.429 306.7 496.076 307.391 497.393 308.707L497.414 308.728L497.436 308.747C498.19 309.418 498.713 310.274 499.072 311.171L499.443 312.1L503.71 310.393L503.462 309.525C503.004 307.922 502.093 306.574 500.792 305.378C498.496 303.09 495.643 302 492.5 302C489.249 302 486.494 303.095 484.201 305.384C481.897 307.584 480.8 310.348 480.8 313.5C480.8 316.66 481.902 319.416 484.193 321.707C486.423 323.937 489.358 325.602 493.042 326.835C495.932 328.091 498.424 329.628 500.724 331.637C502.912 333.741 504 336.373 504 339.4C504 342.419 502.917 344.965 500.7 347.185C498.479 349.311 495.926 350.4 492.8 350.4C489.652 350.4 487.11 349.396 484.907 347.193C483.056 345.342 481.967 343.148 481.694 340.69L481.553 339.418L476.882 341.148L477.013 341.959C477.547 345.275 479.05 348.164 481.493 350.607C484.574 353.688 488.326 355.3 492.7 355.3C497.074 355.3 500.826 353.688 503.907 350.607C506.988 347.526 508.6 343.774 508.6 339.4C508.6 335.026 506.988 331.274 503.907 328.193L503.901 328.186L503.894 328.18C500.991 325.381 497.478 323.314 493.373 321.97ZM545.9 312.8C545.4 313.4 545.1 314 545.1 314.8C545.1 315.6 545.3 316.3 545.9 316.8C546.5 317.3 547.1 317.6 547.9 317.6C548.7 317.6 549.3 317.3 549.9 316.8C550.4 316.3 550.7 315.6 550.7 314.8C550.7 314 550.5 313.3 549.9 312.8C549.4 312.3 548.7 312 547.9 312C547.1 312 546.5 312.3 545.9 312.8ZM550.575 312.061C549.884 311.387 548.941 311 547.9 311C546.797 311 545.978 311.433 545.26 312.032L545.19 312.09L545.132 312.16C544.534 312.878 544.1 313.697 544.1 314.8C544.1 315.763 544.346 316.807 545.26 317.568C545.978 318.166 546.797 318.6 547.9 318.6C549.003 318.6 549.822 318.166 550.54 317.568L550.575 317.539L550.607 317.507C551.301 316.814 551.7 315.857 551.7 314.8C551.7 313.849 551.46 312.82 550.575 312.061ZM550.4 321.9V354.6H545.6V321.9H550.4ZM594.4 323.6C594.668 323.347 594.943 323.114 595.224 322.9C595.283 322.856 595.341 322.812 595.4 322.77C596.965 321.638 598.732 321.1 600.7 321.1C603.2 321.1 605.4 322 607.2 323.8C607.449 324.049 607.674 324.299 607.886 324.56C608.099 324.824 608.299 325.099 608.5 325.4C608.619 325.251 608.739 325.092 608.861 324.931L608.862 324.93L608.862 324.929L608.863 324.928C608.953 324.808 609.046 324.686 609.14 324.564C609.344 324.301 609.561 324.039 609.8 323.8C611.6 322 613.7 321.1 616.3 321.1C618.8 321.1 621 322 622.8 323.8C624.5 325.5 625.4 327.6 625.5 330V353.7H622.7V330C622.6 328.4 622 327 620.8 325.8C619.5 324.6 618 324 616.3 324C614.6 324 613.1 324.6 611.8 325.8C610.6 327 609.9 328.6 609.9 330.4V353.7H607.1V330C607 328.4 606.4 327 605.2 325.8C603.9 324.6 602.4 324 600.7 324C599 324 597.5 324.6 596.2 325.8C595.1 326.9 594.5 328.2 594.3 329.7V353.7H591.5V322.9H594.4V323.6ZM595.3 329.769V354.7H590.5V321.9H594.897C596.615 320.684 598.559 320.1 600.7 320.1C603.465 320.1 605.919 321.105 607.907 323.093C608.124 323.309 608.323 323.526 608.512 323.748C608.694 323.522 608.89 323.296 609.093 323.093C611.077 321.109 613.429 320.1 616.3 320.1C619.065 320.1 621.519 321.105 623.507 323.093C625.389 324.975 626.389 327.314 626.499 329.958L626.5 329.979V354.7H621.7V330.032C621.61 328.689 621.114 327.534 620.107 326.521C618.987 325.493 617.731 325 616.3 325C614.869 325 613.613 325.493 612.493 326.521C611.485 327.536 610.9 328.879 610.9 330.4V354.7H606.1V330.032C606.01 328.689 605.514 327.534 604.507 326.521C603.387 325.493 602.131 325 600.7 325C599.269 325 598.013 325.493 596.893 326.521C595.983 327.437 595.48 328.505 595.3 329.769ZM666.1 321.9H670.9V324.486C670.931 324.455 670.962 324.424 670.993 324.393L670.998 324.388L671.004 324.382C674.583 320.908 678.83 319.1 683.9 319.1C688.959 319.1 693.313 320.901 696.802 324.388C700.397 327.88 702.2 332.239 702.2 337.3C702.2 342.264 700.395 346.622 696.802 350.112C693.21 353.702 688.954 355.4 683.9 355.4C678.83 355.4 674.583 353.592 671.004 350.118L670.998 350.112L670.993 350.107C670.962 350.076 670.931 350.045 670.9 350.014V366.3H666.1V321.9ZM669.9 347.3C670.198 347.717 670.531 348.134 670.9 348.551C671.15 348.834 671.417 349.117 671.7 349.4C675.1 352.7 679.1 354.4 683.9 354.4C688.7 354.4 692.7 352.8 696.1 349.4C699.5 346.1 701.2 342 701.2 337.3C701.2 332.5 699.5 328.4 696.1 325.1C692.8 321.8 688.7 320.1 683.9 320.1C679.1 320.1 675.1 321.8 671.7 325.1C671.417 325.383 671.15 325.666 670.9 325.949C670.531 326.366 670.198 326.783 669.9 327.2V322.9H667.1V365.3H669.9V347.3ZM674.599 346.684L674.607 346.693C677.22 349.306 680.366 350.6 684 350.6C687.634 350.6 690.78 349.306 693.393 346.693C696.011 344.074 697.3 341.026 697.3 337.4C697.3 333.763 696.004 330.625 693.406 328.12L693.399 328.114L693.393 328.107C690.78 325.494 687.634 324.2 684 324.2C680.366 324.2 677.22 325.494 674.607 328.107L674.589 328.125L674.571 328.142C672.661 329.87 671.473 332.04 671 334.494V340.206C671.472 342.657 672.661 344.839 674.59 346.676L674.599 346.684ZM670 340.3V334.4C670.5 331.7 671.8 329.3 673.9 327.4C676.7 324.6 680.1 323.2 684 323.2C687.9 323.2 691.3 324.6 694.1 327.4C696.9 330.1 698.3 333.5 698.3 337.4C698.3 341.3 696.9 344.6 694.1 347.4C691.3 350.2 687.9 351.6 684 351.6C680.1 351.6 676.7 350.2 673.9 347.4C671.8 345.4 670.5 343 670 340.3ZM745.2 302.6V354.7H740.4V302.6H745.2ZM790.575 317.539L790.54 317.568C789.822 318.166 789.003 318.6 787.9 318.6C786.797 318.6 785.978 318.166 785.26 317.568C784.346 316.807 784.1 315.763 784.1 314.8C784.1 313.697 784.534 312.878 785.132 312.16L785.19 312.09L785.26 312.032C785.978 311.433 786.797 311 787.9 311C789.003 311 789.822 311.433 790.54 312.032C791.454 312.793 791.7 313.837 791.7 314.8C791.7 315.857 791.301 316.814 790.607 317.507L790.575 317.539ZM790.3 321.9V354.6H785.5V321.9H790.3ZM843.364 309.046C842.825 308.882 842.313 308.8 841.8 308.8C840.3 308.8 838.9 309.4 837.6 310.6C836.4 311.7 835.8 313.1 835.7 314.8V322.9H842V325.7H835.7V353.6H832.9V325.7H829.8V322.9H832.9V314.6C833 312.3 833.9 310.3 835.6 308.6C837.3 307 839.3 306.2 841.5 306.2C842.403 306.2 843.306 306.313 844.252 306.582C844.409 306.627 844.567 306.676 844.727 306.73C844.883 306.782 845.041 306.839 845.2 306.9L844.3 309.4C843.977 309.256 843.666 309.138 843.364 309.046ZM831.9 321.9V314.578L831.901 314.557C832.012 311.995 833.025 309.761 834.893 307.893L834.904 307.882L834.915 307.872C836.792 306.104 839.035 305.2 841.5 305.2C842.82 305.2 844.142 305.422 845.559 305.967L846.472 306.318L844.877 310.751L843.894 310.314C843.083 309.954 842.424 309.8 841.8 309.8C840.596 309.8 839.429 310.273 838.278 311.335L838.276 311.337C837.298 312.233 836.792 313.368 836.7 314.83V321.9H843V326.7H836.7V354.6H831.9V326.7H828.8V321.9H831.9ZM885.028 366.4H880.007L888.89 348L876.308 321.9H881.736L891.4 342.542L901.064 321.9H906.493L885.028 366.4ZM891.4 344.9L881.1 322.9H877.9L890 348L881.6 365.4H884.4L904.9 322.9H901.7L891.4 344.9ZM942.175 354.039L942.14 354.068C941.422 354.666 940.603 355.1 939.5 355.1C938.397 355.1 937.578 354.666 936.86 354.068C935.946 353.307 935.7 352.263 935.7 351.3C935.7 350.197 936.133 349.378 936.732 348.66L936.79 348.59L936.86 348.532C937.578 347.933 938.397 347.5 939.5 347.5C940.487 347.5 941.406 347.92 942.14 348.532C943.054 349.293 943.3 350.337 943.3 351.3C943.3 352.357 942.901 353.314 942.207 354.007L942.175 354.039ZM1049.11 344.359L1052.69 347.603L1051.87 348.344C1046.79 352.903 1040.75 355.3 1033.9 355.3C1026.54 355.3 1020.18 352.697 1014.99 347.507C1009.81 342.32 1007.2 336.066 1007.2 328.7C1007.2 321.334 1009.81 315.08 1014.99 309.893C1020.18 304.703 1026.54 302.1 1033.9 302.1C1040.85 302.1 1046.79 304.392 1051.88 309.063L1052.68 309.805L1049.11 313.041L1048.44 312.449C1044.32 308.814 1039.46 307 1033.9 307C1027.86 307 1022.72 309.097 1018.41 313.407L1018.4 313.415C1014.1 317.621 1012 322.761 1012 328.8C1012 334.839 1014.1 339.979 1018.4 344.185C1022.72 348.406 1027.86 350.596 1033.88 350.6C1039.46 350.404 1044.33 348.582 1048.44 344.951L1049.11 344.359ZM1033.9 351.6C1027.6 351.6 1022.2 349.3 1017.7 344.9C1013.2 340.5 1011 335.1 1011 328.8C1011 322.5 1013.2 317.1 1017.7 312.7C1022.2 308.2 1027.6 306 1033.9 306C1039.7 306 1044.8 307.9 1049.1 311.7L1051.2 309.8C1050.95 309.572 1050.7 309.349 1050.45 309.132C1045.72 305.082 1040.26 303.1 1033.9 303.1C1026.8 303.1 1020.7 305.6 1015.7 310.6C1010.7 315.6 1008.2 321.6 1008.2 328.7C1008.2 335.8 1010.7 341.8 1015.7 346.8C1020.7 351.8 1026.8 354.3 1033.9 354.3C1040.16 354.3 1045.7 352.23 1050.44 348.26C1050.7 348.046 1050.95 347.826 1051.2 347.6L1049.1 345.7C1044.8 349.5 1039.7 351.4 1033.9 351.6ZM1090.3 321.9H1095.1V325.724C1095.18 325.635 1095.26 325.546 1095.33 325.458L1095.35 325.442L1095.37 325.416L1095.39 325.393C1098.01 322.775 1100.84 321.313 1103.76 321.201L1104.8 321.161V326.246L1103.86 326.298C1102.4 326.379 1100.82 327.191 1099.01 329.007C1096.48 331.535 1095.2 334.392 1095.1 337.814V354.7H1090.3V321.9ZM1094.1 337.8C1094.2 334.1 1095.6 331 1098.3 328.3C1100.2 326.4 1102 325.4 1103.8 325.3V322.2C1103.47 322.213 1103.13 322.245 1102.8 322.298C1100.53 322.653 1098.28 323.921 1096.1 326.1C1095.76 326.485 1095.43 326.87 1095.1 327.256C1094.75 327.67 1094.41 328.085 1094.1 328.5V322.9H1091.3V353.7H1094.1V337.8ZM1168.2 328L1148.1 347.9C1148.35 348.125 1148.61 348.34 1148.87 348.544C1151.39 350.515 1154.25 351.5 1157.6 351.5C1161.5 351.5 1164.9 350.1 1167.7 347.3C1168.1 346.9 1168.4 346.6 1168.7 346.2L1171.7 347.3C1171.52 347.591 1171.31 347.869 1171.08 348.139C1170.69 348.61 1170.25 349.055 1169.8 349.5C1166.4 352.9 1162.3 354.5 1157.6 354.5C1152.8 354.5 1148.8 352.8 1145.4 349.5C1142 346.1 1140.3 342.1 1140.3 337.3C1140.3 332.6 1142 328.5 1145.4 325.2C1148.8 321.8 1152.8 320.2 1157.6 320.2C1161.7 320.2 1165.3 321.4 1168.3 323.9C1168.8 324.3 1169.3 324.8 1169.8 325.3C1170 325.5 1170.2 325.7 1170.3 325.9L1168.2 328ZM1168.93 323.126C1165.74 320.465 1161.91 319.2 1157.6 319.2C1152.55 319.2 1148.29 320.898 1144.7 324.487C1141.11 327.977 1139.3 332.336 1139.3 337.3C1139.3 342.372 1141.11 346.624 1144.69 350.207L1144.7 350.212L1144.7 350.218C1148.28 353.692 1152.53 355.5 1157.6 355.5C1162.55 355.5 1166.91 353.803 1170.51 350.207L1170.54 350.171C1171.22 349.496 1171.99 348.728 1172.55 347.83L1173.2 346.785L1168.35 345.005L1167.9 345.6C1167.65 345.935 1167.4 346.187 1166.99 346.593C1164.38 349.206 1161.23 350.5 1157.6 350.5C1154.52 350.5 1151.9 349.616 1149.59 347.834L1168.9 328.711L1168.91 328.707L1171.52 326.097L1171.19 325.453C1171.02 325.101 1170.71 324.797 1170.54 324.627L1170.51 324.593L1170.49 324.572C1170 324.089 1169.47 323.56 1168.93 323.126ZM1245.9 354.7H1241.1V350.114C1241.07 350.145 1241.04 350.176 1241.01 350.207C1237.41 353.803 1233.05 355.5 1228.1 355.5C1223.03 355.5 1218.78 353.692 1215.2 350.218L1215.2 350.212L1215.19 350.207C1211.61 346.627 1209.8 342.375 1209.8 337.4C1209.8 332.328 1211.61 328.076 1215.19 324.493C1218.79 320.899 1223.04 319.2 1228.1 319.2C1233.16 319.2 1237.52 321.003 1241.01 324.493L1241.03 324.52L1241.1 324.597V321.9H1245.9V354.7ZM1242.1 327.3L1240.3 325.2C1237 321.9 1232.9 320.2 1228.1 320.2C1223.3 320.2 1219.3 321.8 1215.9 325.2C1212.5 328.6 1210.8 332.6 1210.8 337.4C1210.8 342.1 1212.5 346.1 1215.9 349.5C1219.3 352.8 1223.3 354.5 1228.1 354.5C1232.8 354.5 1236.9 352.9 1240.3 349.5C1240.58 349.217 1240.85 348.934 1241.1 348.651C1241.47 348.234 1241.8 347.817 1242.1 347.4V353.7H1244.9V322.9H1242.1V327.3ZM1218.6 346.486L1218.61 346.493C1221.21 349.093 1224.35 350.3 1228 350.3C1231.63 350.3 1234.78 349.006 1237.39 346.393L1237.42 346.366L1237.45 346.341C1239.34 344.722 1240.53 342.565 1241 340.01V334.59C1240.53 332.043 1239.34 329.852 1237.39 327.907C1234.78 325.294 1231.63 324 1228 324C1224.37 324 1221.22 325.294 1218.61 327.907C1215.99 330.526 1214.7 333.574 1214.7 337.2C1214.7 340.837 1216 343.975 1218.59 346.48L1218.6 346.486ZM1242 334.5V340.1C1241.5 342.9 1240.2 345.3 1238.1 347.1C1235.3 349.9 1231.9 351.3 1228 351.3C1224.1 351.3 1220.7 350 1217.9 347.2C1215.1 344.5 1213.7 341.1 1213.7 337.2C1213.7 333.3 1215.1 330 1217.9 327.2C1220.7 324.4 1224.1 323 1228 323C1231.9 323 1235.3 324.4 1238.1 327.2C1240.2 329.3 1241.5 331.7 1242 334.5ZM1290.1 308.8H1294.9V321.9H1301.2V326.7H1294.9V354.6H1290.1V326.7H1283.8V321.9H1290.1V308.8ZM1291.1 322.9H1284.8V325.7H1291.1V353.6H1293.9V325.7H1300.2V322.9H1293.9V309.8H1291.1V322.9ZM1366 328L1345.9 347.9C1346.15 348.125 1346.41 348.34 1346.67 348.544C1349.19 350.515 1352.05 351.5 1355.4 351.5C1359.3 351.5 1362.7 350.1 1365.5 347.3C1365.9 346.9 1366.2 346.6 1366.5 346.2L1369.5 347.3C1369.32 347.591 1369.11 347.869 1368.88 348.139C1368.49 348.61 1368.05 349.055 1367.6 349.5C1364.2 352.9 1360.1 354.5 1355.4 354.5C1350.6 354.5 1346.6 352.8 1343.2 349.5C1339.8 346.1 1338.1 342.1 1338.1 337.3C1338.1 332.6 1339.8 328.5 1343.2 325.2C1346.6 321.8 1350.6 320.2 1355.4 320.2C1359.5 320.2 1363.1 321.4 1366.1 323.9C1366.6 324.3 1367.1 324.8 1367.6 325.3C1367.8 325.5 1368 325.7 1368.1 325.9L1366 328ZM1366.73 323.126C1363.54 320.465 1359.71 319.2 1355.4 319.2C1350.35 319.2 1346.09 320.898 1342.5 324.487C1338.9 327.977 1337.1 332.336 1337.1 337.3C1337.1 342.372 1338.91 346.624 1342.49 350.207L1342.5 350.212L1342.5 350.218C1346.08 353.692 1350.33 355.5 1355.4 355.5C1360.35 355.5 1364.71 353.803 1368.31 350.207L1368.34 350.17C1369.02 349.496 1369.79 348.727 1370.35 347.83L1371 346.785L1366.15 345.005L1365.7 345.6C1365.45 345.935 1365.2 346.187 1364.79 346.593C1362.18 349.206 1359.03 350.5 1355.4 350.5C1352.32 350.5 1349.7 349.616 1347.39 347.834L1366.7 328.711L1369.32 326.097L1368.99 325.453C1368.82 325.101 1368.51 324.797 1368.34 324.627L1368.31 324.593L1368.29 324.572C1367.8 324.089 1367.27 323.56 1366.73 323.126ZM1406.2 349.3C1405.7 349.9 1405.4 350.5 1405.4 351.3C1405.4 352.1 1405.6 352.8 1406.2 353.3C1406.8 353.8 1407.4 354.1 1408.2 354.1C1409 354.1 1409.6 353.8 1410.2 353.3C1410.7 352.8 1411 352.1 1411 351.3C1411 350.5 1410.8 349.8 1410.2 349.3C1409.7 348.8 1409 348.5 1408.2 348.5C1407.4 348.5 1406.8 348.8 1406.2 349.3ZM1410.87 348.561C1410.18 347.887 1409.24 347.5 1408.2 347.5C1407.1 347.5 1406.28 347.933 1405.56 348.532L1405.49 348.59L1405.43 348.66C1404.83 349.378 1404.4 350.197 1404.4 351.3C1404.4 352.263 1404.65 353.307 1405.56 354.068C1406.28 354.666 1407.1 355.1 1408.2 355.1C1409.3 355.1 1410.12 354.666 1410.84 354.068L1410.87 354.039L1410.91 354.007C1411.6 353.314 1412 352.357 1412 351.3C1412 350.349 1411.76 349.32 1410.87 348.561ZM1520.8 347.833L1520.48 348.13C1515.5 352.8 1509.56 355.2 1502.7 355.2C1495.34 355.2 1488.98 352.597 1483.79 347.407C1478.61 342.22 1476 335.966 1476 328.6C1476 321.234 1478.61 314.98 1483.79 309.793C1488.98 304.603 1495.34 302 1502.7 302C1509.65 302 1515.59 304.292 1520.68 308.963L1521.48 309.706L1517.91 312.941L1517.24 312.349C1513.12 308.714 1508.26 306.9 1502.7 306.9C1496.66 306.9 1491.52 308.997 1487.21 313.307L1487.2 313.315C1482.9 317.521 1480.8 322.661 1480.8 328.7C1480.8 334.739 1482.9 339.879 1487.2 344.085C1491.52 348.31 1496.67 350.5 1502.7 350.5C1507.71 350.5 1512.16 348.977 1516 346.015V330.2H1520.8V347.833ZM1517 346.5C1512.9 349.8 1508.1 351.5 1502.7 351.5C1496.4 351.5 1491 349.2 1486.5 344.8C1482 340.4 1479.8 335 1479.8 328.7C1479.8 322.4 1482 317 1486.5 312.6C1491 308.1 1496.4 305.9 1502.7 305.9C1508.5 305.9 1513.6 307.8 1517.9 311.6L1520 309.7C1519.75 309.472 1519.5 309.249 1519.25 309.032C1514.52 304.982 1509.06 303 1502.7 303C1495.6 303 1489.5 305.5 1484.5 310.5C1479.5 315.5 1477 321.5 1477 328.6C1477 335.7 1479.5 341.7 1484.5 346.7C1489.5 351.7 1495.6 354.2 1502.7 354.2C1509.3 354.2 1515 351.9 1519.8 347.4V331.2H1517V346.5ZM1559.9 321.9H1564.7V325.724C1564.78 325.636 1564.86 325.547 1564.93 325.459L1564.95 325.442L1564.97 325.416L1564.99 325.393C1567.61 322.775 1570.44 321.313 1573.36 321.201L1574.4 321.161V326.246L1573.46 326.298C1572 326.379 1570.42 327.191 1568.61 329.007C1566.08 331.535 1564.8 334.392 1564.7 337.814V354.7H1559.9V321.9ZM1563.7 337.8C1563.8 334.1 1565.2 331 1567.9 328.3C1569.8 326.4 1571.6 325.4 1573.4 325.3V322.2C1573.07 322.213 1572.73 322.245 1572.4 322.298C1570.13 322.653 1567.88 323.921 1565.7 326.1L1565.7 326.103C1565.36 326.487 1565.03 326.871 1564.7 327.256C1564.35 327.67 1564.01 328.085 1563.7 328.5V322.9H1560.9V353.7H1563.7V337.8ZM1613.8 350.112L1613.79 350.107C1610.21 346.527 1608.4 342.275 1608.4 337.3C1608.4 332.228 1610.21 327.976 1613.79 324.393L1613.8 324.388L1613.8 324.382C1617.38 320.908 1621.63 319.1 1626.7 319.1C1631.76 319.1 1636.12 320.903 1639.61 324.393C1643.19 327.976 1645 332.228 1645 337.3C1645 342.264 1643.2 346.622 1639.6 350.113C1636.01 353.702 1631.75 355.4 1626.7 355.4C1621.63 355.4 1617.38 353.592 1613.8 350.118L1613.8 350.112ZM1638.9 349.4C1642.3 346.1 1644 342 1644 337.3C1644 332.5 1642.3 328.5 1638.9 325.1C1635.6 321.8 1631.5 320.1 1626.7 320.1C1621.9 320.1 1617.9 321.8 1614.5 325.1C1611.1 328.5 1609.4 332.5 1609.4 337.3C1609.4 342 1611.1 346 1614.5 349.4C1617.9 352.7 1621.9 354.4 1626.7 354.4C1631.5 354.4 1635.5 352.8 1638.9 349.4ZM1617.3 346.586L1617.31 346.593C1619.91 349.193 1623.05 350.4 1626.7 350.4C1630.33 350.4 1633.48 349.107 1636.1 346.589C1638.71 343.971 1640 340.924 1640 337.3C1640 333.663 1638.7 330.525 1636.11 328.02L1636.1 328.014L1636.09 328.007C1633.48 325.394 1630.33 324.1 1626.7 324.1C1622.97 324.1 1619.92 325.391 1617.31 328.007C1614.69 330.626 1613.4 333.674 1613.4 337.3C1613.4 340.937 1614.7 344.075 1617.29 346.58L1617.3 346.586ZM1636.8 347.3C1639.6 344.5 1641 341.2 1641 337.3C1641 333.4 1639.6 330 1636.8 327.3C1634 324.5 1630.6 323.1 1626.7 323.1C1622.7 323.1 1619.4 324.5 1616.6 327.3C1613.8 330.1 1612.4 333.4 1612.4 337.3C1612.4 341.2 1613.8 344.6 1616.6 347.3C1619.4 350.1 1622.8 351.4 1626.7 351.4C1630.6 351.4 1634 350 1636.8 347.3ZM1697.6 321.9H1702.4V344.8C1702.4 346.365 1702.91 347.683 1703.98 348.665L1703.99 348.679L1704.01 348.693C1705.01 349.693 1706.25 350.2 1707.8 350.2C1709.24 350.2 1710.5 349.702 1711.62 348.665L1711.62 348.663C1712.6 347.767 1713.11 346.632 1713.2 345.169V321.8H1718V345.221L1718 345.242C1717.89 347.899 1716.88 350.135 1715.01 352.007C1713.02 353.991 1710.67 355 1707.8 355C1705.04 355 1702.58 353.995 1700.59 352.007C1700.38 351.794 1700.18 351.581 1700 351.371C1699.82 351.581 1699.62 351.794 1699.41 352.007C1697.42 353.991 1695.07 355 1692.2 355C1689.44 355 1686.98 353.995 1684.99 352.007C1683.12 350.135 1682.11 347.899 1682 345.242L1682 345.221V321.8H1686.8V345.168C1686.89 346.517 1687.39 347.677 1688.41 348.693C1689.41 349.693 1690.65 350.2 1692.2 350.2C1693.64 350.2 1694.9 349.702 1696.02 348.665L1696.03 348.66C1696.91 347.86 1697.42 346.814 1697.6 345.436V321.9ZM1698.6 345.5C1698.4 347.1 1697.8 348.4 1696.7 349.4C1695.4 350.6 1693.9 351.2 1692.2 351.2C1690.4 351.2 1688.9 350.6 1687.7 349.4C1686.5 348.2 1685.9 346.8 1685.8 345.2V322.8H1683V345.2C1683.1 347.6 1684 349.6 1685.7 351.3C1687.5 353.1 1689.7 354 1692.2 354C1694.8 354 1696.9 353.1 1698.7 351.3C1698.94 351.064 1699.15 350.827 1699.35 350.591C1699.58 350.327 1699.79 350.064 1700 349.8C1700.21 350.064 1700.42 350.327 1700.65 350.591C1700.85 350.827 1701.06 351.064 1701.3 351.3C1703.1 353.1 1705.3 354 1707.8 354C1710.4 354 1712.5 353.1 1714.3 351.3C1716 349.6 1716.9 347.6 1717 345.2V322.8H1714.2V345.2C1714.1 346.9 1713.5 348.3 1712.3 349.4C1711 350.6 1709.5 351.2 1707.8 351.2C1706 351.2 1704.5 350.6 1703.3 349.4C1702 348.2 1701.4 346.6 1701.4 344.8V322.9H1698.6V345.5ZM937.5 349.3C938.1 348.8 938.7 348.5 939.5 348.5C940.2 348.5 940.9 348.8 941.5 349.3C942.1 349.8 942.3 350.5 942.3 351.3C942.3 352.1 942 352.8 941.5 353.3C940.9 353.8 940.3 354.1 939.5 354.1C938.7 354.1 938.1 353.8 937.5 353.3C936.9 352.8 936.7 352.1 936.7 351.3C936.7 350.5 937 349.9 937.5 349.3ZM1164.64 326.133C1162.57 324.826 1160.28 324.2 1157.6 324.2C1153.97 324.2 1150.82 325.494 1148.2 328.014C1145.59 330.631 1144.3 333.677 1144.3 337.3C1144.3 339.902 1144.93 342.255 1146.23 344.267L1164.64 326.133ZM1165.37 325.413C1163.08 323.914 1160.54 323.2 1157.6 323.2C1153.7 323.2 1150.3 324.6 1147.5 327.3C1144.7 330.1 1143.3 333.4 1143.3 337.3C1143.3 340.145 1144.01 342.753 1145.5 344.983C1145.69 345.261 1145.89 345.534 1146.1 345.8L1166.2 326C1165.93 325.793 1165.65 325.597 1165.37 325.413ZM1362.34 326.133C1360.27 324.826 1357.98 324.2 1355.3 324.2C1351.67 324.2 1348.52 325.494 1345.9 328.014C1343.29 330.631 1342 333.677 1342 337.3C1342 339.902 1342.63 342.255 1343.93 344.267L1362.34 326.133ZM1363.07 325.413C1360.78 323.914 1358.24 323.2 1355.3 323.2C1351.4 323.2 1348 324.6 1345.2 327.3C1342.4 330.1 1341 333.4 1341 337.3C1341 340.145 1341.71 342.753 1343.2 344.983C1343.39 345.261 1343.59 345.534 1343.8 345.8L1363.9 326C1363.63 325.793 1363.35 325.597 1363.07 325.413ZM549.4 322.9H546.6V353.6H549.4V322.9ZM744.2 353.7H741.4V303.6H744.2V353.7ZM790.7 314.8C790.7 314 790.5 313.3 789.9 312.8C789.3 312.3 788.7 312 787.9 312C787.1 312 786.5 312.3 785.9 312.8C785.4 313.4 785.1 314 785.1 314.8C785.1 315.6 785.3 316.3 785.9 316.8C786.5 317.3 787.1 317.6 787.9 317.6C788.7 317.6 789.3 317.3 789.9 316.8C790.4 316.3 790.7 315.6 790.7 314.8ZM789.3 322.9H786.5V353.6H789.3V322.9Z" fill="black"/>
<defs>
<linearGradient id="paint0_linear_11_6" x1="449.245" y1="172.38" x2="1736.34" y2="409.602" gradientUnits="userSpaceOnUse">
<stop stop-color="#005B96"/>
<stop offset="0.0138113" stop-color="#005B96"/>
<stop offset="0.497" stop-color="#84986C"/>
<stop offset="0.8365" stop-color="#A78400"/>
<stop offset="1" stop-color="#A78400"/>
</linearGradient>
<linearGradient id="paint1_linear_11_6" x1="455.005" y1="141.131" x2="1742.1" y2="378.353" gradientUnits="userSpaceOnUse">
<stop stop-color="#005B96"/>
<stop offset="0.0138113" stop-color="#005B96"/>
<stop offset="0.497" stop-color="#84986C"/>
<stop offset="0.8365" stop-color="#A78400"/>
<stop offset="1" stop-color="#A78400"/>
</linearGradient>
<linearGradient id="paint2_linear_11_6" x1="461.251" y1="107.242" x2="1748.34" y2="344.464" gradientUnits="userSpaceOnUse">
<stop stop-color="#005B96"/>
<stop offset="0.0138113" stop-color="#005B96"/>
<stop offset="0.497" stop-color="#84986C"/>
<stop offset="0.8365" stop-color="#A78400"/>
<stop offset="1" stop-color="#A78400"/>
</linearGradient>
<linearGradient id="paint3_linear_11_6" x1="466.505" y1="78.7343" x2="1753.6" y2="315.957" gradientUnits="userSpaceOnUse">
<stop stop-color="#005B96"/>
<stop offset="0.0138113" stop-color="#005B96"/>
<stop offset="0.497" stop-color="#84986C"/>
<stop offset="0.8365" stop-color="#A78400"/>
<stop offset="1" stop-color="#A78400"/>
</linearGradient>
<linearGradient id="paint4_linear_11_6" x1="475.303" y1="30.9971" x2="1762.39" y2="268.219" gradientUnits="userSpaceOnUse">
<stop stop-color="#005B96"/>
<stop offset="0.0138113" stop-color="#005B96"/>
<stop offset="0.497" stop-color="#84986C"/>
<stop offset="0.8365" stop-color="#A78400"/>
<stop offset="1" stop-color="#A78400"/>
</linearGradient>
<linearGradient id="paint5_linear_11_6" x1="481.423" y1="-2.21141" x2="1768.51" y2="235.011" gradientUnits="userSpaceOnUse">
<stop stop-color="#005B96"/>
<stop offset="0.0138113" stop-color="#005B96"/>
<stop offset="0.497" stop-color="#84986C"/>
<stop offset="0.8365" stop-color="#A78400"/>
<stop offset="1" stop-color="#A78400"/>
</linearGradient>
<linearGradient id="paint6_linear_11_6" x1="487.101" y1="-33.006" x2="1774.19" y2="204.216" gradientUnits="userSpaceOnUse">
<stop stop-color="#005B96"/>
<stop offset="0.0138113" stop-color="#005B96"/>
<stop offset="0.497" stop-color="#84986C"/>
<stop offset="0.8365" stop-color="#A78400"/>
<stop offset="1" stop-color="#A78400"/>
</linearGradient>
</defs>
</svg>
